<?xml version="1.0" encoding="UTF-8" standalone="no"?>
<!-- Created with Inkscape (http://www.inkscape.org/) -->

<svg
   width="256"
   height="256"
   viewBox="0 0 67.733332 67.733333"
   version="1.1"
   id="svg1"
   xml:space="preserve"
   inkscape:version="1.4.3 (0d15f75042, 2025-12-25)"
   sodipodi:docname="basketball.svg"
   xmlns:inkscape="http://www.inkscape.org/namespaces/inkscape"
   xmlns:sodipodi="http://sodipodi.sourceforge.net/DTD/sodipodi-0.dtd"
   xmlns="http://www.w3.org/2000/svg"
   xmlns:svg="http://www.w3.org/2000/svg"><sodipodi:namedview
     id="namedview1"
     pagecolor="#ffffff"
     bordercolor="#000000"
     borderopacity="0.25"
     inkscape:showpageshadow="2"
     inkscape:pageopacity="0.0"
     inkscape:pagecheckerboard="0"
     inkscape:deskcolor="#d1d1d1"
     inkscape:document-units="mm"
     inkscape:zoom="2.06596"
     inkscape:cx="153.9236"
     inkscape:cy="129.72178"
     inkscape:window-width="883"
     inkscape:window-height="685"
     inkscape:window-x="0"
     inkscape:window-y="0"
     inkscape:window-maximized="1"
     inkscape:current-layer="layer1"
     showgrid="false" /><defs
     id="defs1" /><g
     inkscape:label="Layer 1"
     inkscape:groupmode="layer"
     id="layer1"><circle
       style="fill:currentColor;fill-opacity:1;stroke-width:0.31253;stroke-linecap:round;stroke-linejoin:round;stroke-miterlimit:10;stroke-dasharray:none"
       id="path1"
       cx="33.866665"
       cy="33.866665"
       r="25.141195" /><path
       id="path2"
       style="baseline-shift:baseline;display:inline;overflow:visible;opacity:1;vector-effect:none;fill:#000000;fill-opacity:0.676316;stroke-width:0.999993;stroke-linecap:round;stroke-linejoin:round;stroke-miterlimit:10;enable-background:accumulate;stop-color:#000000;stop-opacity:1"
       d="M 33.866667,8.7257 A 25.141197,25.141197 0 0 0 32.808674,8.747753 V 32.808674 H 28.609231 C 28.284913,30.281581 26.936755,27.58999 24.966628,24.877866 22.741067,21.814102 19.683932,18.730515 16.198909,15.980033 a 25.141197,25.141197 0 0 0 -1.445574,1.554184 1.0585438,1.0585438 0 0 0 0.05072,0.04245 c 3.387176,2.662476 6.35255,5.65868 8.449605,8.545535 1.756236,2.417675 2.875413,4.761212 3.208712,6.686469 H 8.8006802 a 25.141197,25.141197 0 0 0 -0.07498,1.057992 25.141197,25.141197 0 0 0 0.022053,1.059096 H 26.462373 c -0.333712,1.925369 -1.453062,4.27015 -3.208712,6.687018 -2.097055,2.886855 -5.062429,5.882509 -8.449605,8.544986 a 1.0585438,1.0585438 0 0 0 -0.05016,0.04245 25.141197,25.141197 0 0 0 1.445573,1.553633 c 3.484764,-2.750359 6.541739,-5.833701 8.767169,-8.89728 1.969609,-2.711413 3.317279,-5.403902 3.642052,-7.930809 h 4.199993 v 24.059819 a 25.141197,25.141197 0 0 0 1.057994,0.02205 25.141197,25.141197 0 0 0 1.059095,-0.02205 v -24.05982 h 4.19889 c 0.324772,2.526907 1.672442,5.219395 3.642051,7.930809 2.225431,3.063578 5.282406,6.146921 8.767169,8.897278 a 25.141197,25.141197 0 0 0 1.445574,-1.553632 1.0585438,1.0585438 0 0 0 -0.05018,-0.04245 c -3.387177,-2.662473 -6.35255,-5.658128 -8.449604,-8.544982 -1.755649,-2.416869 -2.874998,-4.76165 -3.20871,-6.68702 H 58.98558 a 25.141197,25.141197 0 0 0 0.02205,-1.059094 25.141197,25.141197 0 0 0 -0.07497,-1.057993 h -17.6617 c 0.333297,-1.925257 1.452476,-4.268794 3.20871,-6.68647 2.097056,-2.886853 5.062429,-5.883059 8.449606,-8.545534 a 1.0585438,1.0585438 0 0 0 0.05072,-0.04245 25.141197,25.141197 0 0 0 -1.445573,-1.554183 c -3.485023,2.750482 -6.542158,5.83407 -8.76772,8.897832 -1.970127,2.712125 -3.318285,5.403717 -3.642604,7.930809 H 34.92576 V 8.7477522 a 25.141197,25.141197 0 0 0 -1.059097,-0.022053 z" /><path
       id="path3"
       style="baseline-shift:baseline;display:inline;overflow:visible;opacity:1;fill:#1a1a1a;fill-opacity:1;stroke:none;stroke-width:2;stroke-linecap:round;stroke-linejoin:round;stroke-miterlimit:10;stroke-dasharray:none;enable-background:accumulate;stop-color:#000000;stop-opacity:1"
       d="M 33.866667,8.7257 A 25.141197,25.141197 0 0 0 32.808674,8.747753 V 32.808674 H 28.609231 C 28.284913,30.281581 26.936755,27.58999 24.966628,24.877866 22.741067,21.814102 19.683932,18.730515 16.198909,15.980033 a 25.141197,25.141197 0 0 0 -1.445574,1.554184 1.0585438,1.0585438 0 0 0 0.05072,0.04245 c 3.387176,2.662476 6.35255,5.65868 8.449605,8.545535 1.756236,2.417675 2.875413,4.761212 3.208712,6.686469 H 8.8006802 a 25.141197,25.141197 0 0 0 -0.07498,1.057992 25.141197,25.141197 0 0 0 0.022053,1.059096 H 26.462373 c -0.333712,1.925369 -1.453062,4.27015 -3.208712,6.687018 -2.097055,2.886855 -5.062429,5.882509 -8.449605,8.544986 a 1.0585438,1.0585438 0 0 0 -0.05016,0.04245 25.141197,25.141197 0 0 0 1.445573,1.553633 c 3.484764,-2.750359 6.541739,-5.833701 8.767169,-8.89728 1.969609,-2.711413 3.317279,-5.403902 3.642052,-7.930809 h 4.199993 v 24.059819 a 25.141197,25.141197 0 0 0 1.057994,0.02205 25.141197,25.141197 0 0 0 1.059095,-0.02205 v -24.05982 h 4.19889 c 0.324772,2.526907 1.672442,5.219395 3.642051,7.930809 2.225431,3.063578 5.282406,6.146921 8.767169,8.897278 a 25.141197,25.141197 0 0 0 1.445574,-1.553632 1.0585438,1.0585438 0 0 0 -0.05018,-0.04245 c -3.387177,-2.662473 -6.35255,-5.658128 -8.449604,-8.544982 -1.755649,-2.416869 -2.874998,-4.76165 -3.20871,-6.68702 H 58.98558 a 25.141197,25.141197 0 0 0 0.02205,-1.059094 25.141197,25.141197 0 0 0 -0.07497,-1.057993 h -17.6617 c 0.333297,-1.925257 1.452476,-4.268794 3.20871,-6.68647 2.097056,-2.886853 5.062429,-5.883059 8.449606,-8.545534 a 1.0585438,1.0585438 0 0 0 0.05072,-0.04245 25.141197,25.141197 0 0 0 -1.445573,-1.554183 c -3.485023,2.750482 -6.542158,5.83407 -8.76772,8.897832 -1.970127,2.712125 -3.318285,5.403717 -3.642604,7.930809 H 34.92576 V 8.7477522 a 25.141197,25.141197 0 0 0 -1.059097,-0.022053 z" /><path
       id="path4"
       style="fill:#000000;fill-opacity:0.14070049;stroke:none;stroke-width:2;stroke-linecap:round;stroke-linejoin:round;stroke-miterlimit:10;stroke-opacity:0.455508"
       d="m 57.681234,25.80721 c -5.675105,29.265185 -33.326086,27.984251 -46.79301,18.261418 4.033182,9.08398 13.039366,14.939235 22.978443,14.93914 13.885025,-5.2e-5 25.141049,-11.256076 25.141101,-25.141101 9e-5,-2.740834 -0.448001,-5.463239 -1.326534,-8.059457 z"
       sodipodi:nodetypes="ccccc" /><circle
       style="fill:none;fill-opacity:1;stroke:#1a1a1a;stroke-width:2;stroke-linecap:round;stroke-linejoin:round;stroke-miterlimit:10;stroke-dasharray:none"
       id="circle1"
       cx="33.866665"
       cy="33.866665"
       r="25.141195" /></g></svg>
