<?xml version="1.0" encoding="UTF-8"?>
<!-- Created with Inkscape (http://www.inkscape.org/) -->
<svg width="256" height="256" version="1.1" viewBox="0 0 67.733 67.733" xml:space="preserve" xmlns="http://www.w3.org/2000/svg">
<circle cx="33.867" cy="33.867" r="25.141" fill="var(--avatar-main)" stroke-linecap="round" stroke-linejoin="round" stroke-miterlimit="10" stroke-width=".31253"/><path d="m33.867 8.7257a25.141 25.141 0 0 0-1.058 0.022053v24.061h-4.1994c-0.32432-2.5271-1.6725-5.2187-3.6426-7.9308-2.2256-3.0638-5.2827-6.1474-8.7677-8.8978a25.141 25.141 0 0 0-1.4456 1.5542 1.0585 1.0585 0 0 0 0.05072 0.04245c3.3872 2.6625 6.3526 5.6587 8.4496 8.5455 1.7562 2.4177 2.8754 4.7612 3.2087 6.6865h-17.662a25.141 25.141 0 0 0-0.07498 1.058 25.141 25.141 0 0 0 0.022053 1.0591h17.715c-0.33371 1.9254-1.4531 4.2702-3.2087 6.687-2.0971 2.8869-5.0624 5.8825-8.4496 8.545a1.0585 1.0585 0 0 0-0.05016 0.04245 25.141 25.141 0 0 0 1.4456 1.5536c3.4848-2.7504 6.5417-5.8337 8.7672-8.8973 1.9696-2.7114 3.3173-5.4039 3.6421-7.9308h4.2v24.06a25.141 25.141 0 0 0 1.058 0.02205 25.141 25.141 0 0 0 1.0591-0.02205v-24.06h4.1989c0.32477 2.5269 1.6724 5.2194 3.6421 7.9308 2.2254 3.0636 5.2824 6.1469 8.7672 8.8973a25.141 25.141 0 0 0 1.4456-1.5536 1.0585 1.0585 0 0 0-0.05018-0.04245c-3.3872-2.6625-6.3526-5.6581-8.4496-8.545-1.7556-2.4169-2.875-4.7616-3.2087-6.687h17.715a25.141 25.141 0 0 0 0.02205-1.0591 25.141 25.141 0 0 0-0.07497-1.058h-17.662c0.3333-1.9253 1.4525-4.2688 3.2087-6.6865 2.0971-2.8869 5.0624-5.8831 8.4496-8.5455a1.0585 1.0585 0 0 0 0.05072-0.04245 25.141 25.141 0 0 0-1.4456-1.5542c-3.485 2.7505-6.5422 5.8341-8.7677 8.8978-1.9701 2.7121-3.3183 5.4037-3.6426 7.9308h-4.1983v-24.061a25.141 25.141 0 0 0-1.0591-0.022053z" fill-opacity=".67632" stop-color="#000000" stroke-linecap="round" stroke-linejoin="round" stroke-miterlimit="10" stroke-width=".99999"/><path d="m57.681 25.807c-5.6751 29.265-33.326 27.984-46.793 18.261 4.0332 9.084 13.039 14.939 22.978 14.939 13.885-5.2e-5 25.141-11.256 25.141-25.141 9e-5 -2.7408-0.448-5.4632-1.3265-8.0595z" fill="var(--avatar-shadow)"/><circle cx="33.867" cy="33.867" r="25.141" fill="none" stroke="#1a1a1a" stroke-linecap="round" stroke-linejoin="round" stroke-miterlimit="10" stroke-width="2"/>
<path d="m33.867 8.7257a25.141 25.141 0 0 0-1.058 0.022053v24.061h-4.1994c-0.32432-2.5271-1.6725-5.2187-3.6426-7.9308-2.2256-3.0638-5.2827-6.1474-8.7677-8.8978a25.141 25.141 0 0 0-1.4456 1.5542 1.0585 1.0585 0 0 0 0.05072 0.04245c3.3872 2.6625 6.3526 5.6587 8.4496 8.5455 1.7562 2.4177 2.8754 4.7612 3.2087 6.6865h-17.662a25.141 25.141 0 0 0-0.07498 1.058 25.141 25.141 0 0 0 0.022053 1.0591h17.715c-0.33371 1.9254-1.4531 4.2702-3.2087 6.687-2.0971 2.8869-5.0624 5.8825-8.4496 8.545a1.0585 1.0585 0 0 0-0.05016 0.04245 25.141 25.141 0 0 0 1.4456 1.5536c3.4848-2.7504 6.5417-5.8337 8.7672-8.8973 1.9696-2.7114 3.3173-5.4039 3.6421-7.9308h4.2v24.06a25.141 25.141 0 0 0 1.058 0.02205 25.141 25.141 0 0 0 1.0591-0.02205v-24.06h4.1989c0.32477 2.5269 1.6724 5.2194 3.6421 7.9308 2.2254 3.0636 5.2824 6.1469 8.7672 8.8973a25.141 25.141 0 0 0 1.4456-1.5536 1.0585 1.0585 0 0 0-0.05018-0.04245c-3.3872-2.6625-6.3526-5.6581-8.4496-8.545-1.7556-2.4169-2.875-4.7616-3.2087-6.687h17.715a25.141 25.141 0 0 0 0.02205-1.0591 25.141 25.141 0 0 0-0.07497-1.058h-17.662c0.3333-1.9253 1.4525-4.2688 3.2087-6.6865 2.0971-2.8869 5.0624-5.8831 8.4496-8.5455a1.0585 1.0585 0 0 0 0.05072-0.04245 25.141 25.141 0 0 0-1.4456-1.5542c-3.485 2.7505-6.5422 5.8341-8.7677 8.8978-1.9701 2.7121-3.3183 5.4037-3.6426 7.9308h-4.1983v-24.061a25.141 25.141 0 0 0-1.0591-0.022053z" fill="#1a1a1a" stop-color="#000000"/></svg>
