<?xml version="1.0" encoding="UTF-8" standalone="no"?>
<!-- Created with Inkscape (http://www.inkscape.org/) -->

<svg
   width="256"
   height="256"
   viewBox="0 0 67.733332 67.733333"
   version="1.1"
   id="svg1"
   xml:space="preserve"
   inkscape:version="1.4.3 (0d15f75042, 2025-12-25)"
   sodipodi:docname="basketball.svg"
   xmlns:inkscape="http://www.inkscape.org/namespaces/inkscape"
   xmlns:sodipodi="http://sodipodi.sourceforge.net/DTD/sodipodi-0.dtd"
   xmlns="http://www.w3.org/2000/svg"
   xmlns:svg="http://www.w3.org/2000/svg"><sodipodi:namedview
     id="namedview1"
     pagecolor="#ffffff"
     bordercolor="#000000"
     borderopacity="0.25"
     inkscape:showpageshadow="2"
     inkscape:pageopacity="0.0"
     inkscape:pagecheckerboard="0"
     inkscape:deskcolor="#d1d1d1"
     inkscape:document-units="mm"
     inkscape:zoom="1.9125307"
     inkscape:cx="210.97701"
     inkscape:cy="158.69026"
     inkscape:window-width="2560"
     inkscape:window-height="1600"
     inkscape:window-x="0"
     inkscape:window-y="0"
     inkscape:window-maximized="1"
     inkscape:current-layer="layer1" /><defs
     id="defs1" /><g
     inkscape:label="Layer 1"
     inkscape:groupmode="layer"
     id="layer1"><circle
       style="fill:currentColor;stroke-width:0.31253001;stroke-linecap:round;stroke-linejoin:round;stroke-miterlimit:10;fill-opacity:1;stroke-dasharray:none"
       id="path1"
       cx="33.866665"
       cy="33.866665"
       r="23.565186" /><path
       id="path2"
       style="baseline-shift:baseline;display:inline;overflow:visible;vector-effect:none;fill:#000000;stroke-linecap:round;stroke-linejoin:round;stroke-miterlimit:10;enable-background:accumulate;stop-color:#000000;stop-opacity:1;opacity:1;fill-opacity:0.67631614"
       d="M 33.866667 10.301697 A 23.565186 23.565186 0 0 0 32.874996 10.322367 L 32.874996 32.874996 L 28.938802 32.874996 C 28.634814 30.506318 27.371167 27.983452 25.52454 25.441341 C 23.43849 22.569635 20.572997 19.679347 17.306437 17.101282 A 23.565186 23.565186 0 0 0 15.951481 18.55804 A 0.9921875 0.9921875 0 0 0 15.999023 18.597831 C 19.17387 21.093406 21.953355 23.90179 23.918953 26.607678 C 25.565097 28.873798 26.614117 31.070426 26.926522 32.874996 L 10.371977 32.874996 A 23.565186 23.565186 0 0 0 10.301697 33.866667 A 23.565186 23.565186 0 0 0 10.322367 34.859371 L 26.926522 34.859371 C 26.613729 36.664046 25.564547 38.861842 23.918953 41.127205 C 21.953355 43.833093 19.17387 46.640961 15.999023 49.136536 A 0.9921875 0.9921875 0 0 0 15.951998 49.176326 A 23.565186 23.565186 0 0 0 17.306954 50.632568 C 20.573271 48.054619 23.438614 45.164561 25.52454 42.293026 C 27.370682 39.751582 28.633871 37.227876 28.938285 34.859371 L 32.874996 34.859371 L 32.874996 57.410966 A 23.565186 23.565186 0 0 0 33.866667 57.431637 A 23.565186 23.565186 0 0 0 34.859371 57.410966 L 34.859371 34.859371 L 38.795048 34.859371 C 39.099462 37.227876 40.362651 39.751582 42.208793 42.293026 C 44.294719 45.16456 47.160063 48.05462 50.426379 50.632568 A 23.565186 23.565186 0 0 0 51.781335 49.176326 A 0.9921875 0.9921875 0 0 0 51.73431 49.136536 C 48.559463 46.640961 45.779978 43.833093 43.81438 41.127205 C 42.168786 38.861842 41.119605 36.664046 40.806812 34.859371 L 57.410966 34.859371 A 23.565186 23.565186 0 0 0 57.431637 33.866667 A 23.565186 23.565186 0 0 0 57.361357 32.874996 L 40.806812 32.874996 C 41.119216 31.070426 42.168237 28.873798 43.81438 26.607678 C 45.779978 23.90179 48.559463 21.093406 51.73431 18.597831 A 0.9921875 0.9921875 0 0 0 51.781852 18.55804 A 23.565186 23.565186 0 0 0 50.426896 17.101282 C 47.160337 19.679347 44.294843 22.569636 42.208793 25.441341 C 40.362167 27.983452 39.09852 30.506318 38.794531 32.874996 L 34.859371 32.874996 L 34.859371 10.322367 A 23.565186 23.565186 0 0 0 33.866667 10.301697 z " /><path
       id="path3"
       style="baseline-shift:baseline;display:inline;overflow:visible;vector-effect:none;fill:#000000;stroke-linecap:round;stroke-linejoin:round;stroke-miterlimit:10;enable-background:accumulate;stop-color:#000000;stop-opacity:1;opacity:0.3789211;fill-opacity:0.05340703"
       d="M 33.866667 10.301697 A 23.565186 23.565186 0 0 0 32.874996 10.322367 L 32.874996 32.874996 L 28.938802 32.874996 C 28.634814 30.506318 27.371167 27.983452 25.52454 25.441341 C 23.43849 22.569635 20.572997 19.679347 17.306437 17.101282 A 23.565186 23.565186 0 0 0 15.951481 18.55804 A 0.9921875 0.9921875 0 0 0 15.999023 18.597831 C 19.17387 21.093406 21.953355 23.90179 23.918953 26.607678 C 25.565097 28.873798 26.614117 31.070426 26.926522 32.874996 L 10.371977 32.874996 A 23.565186 23.565186 0 0 0 10.301697 33.866667 A 23.565186 23.565186 0 0 0 10.322367 34.859371 L 26.926522 34.859371 C 26.613729 36.664046 25.564547 38.861842 23.918953 41.127205 C 21.953355 43.833093 19.17387 46.640961 15.999023 49.136536 A 0.9921875 0.9921875 0 0 0 15.951998 49.176326 A 23.565186 23.565186 0 0 0 17.306954 50.632568 C 20.573271 48.054619 23.438614 45.164561 25.52454 42.293026 C 27.370682 39.751582 28.633871 37.227876 28.938285 34.859371 L 32.874996 34.859371 L 32.874996 57.410966 A 23.565186 23.565186 0 0 0 33.866667 57.431637 A 23.565186 23.565186 0 0 0 34.859371 57.410966 L 34.859371 34.859371 L 38.795048 34.859371 C 39.099462 37.227876 40.362651 39.751582 42.208793 42.293026 C 44.294719 45.16456 47.160063 48.05462 50.426379 50.632568 A 23.565186 23.565186 0 0 0 51.781335 49.176326 A 0.9921875 0.9921875 0 0 0 51.73431 49.136536 C 48.559463 46.640961 45.779978 43.833093 43.81438 41.127205 C 42.168786 38.861842 41.119605 36.664046 40.806812 34.859371 L 57.410966 34.859371 A 23.565186 23.565186 0 0 0 57.431637 33.866667 A 23.565186 23.565186 0 0 0 57.361357 32.874996 L 40.806812 32.874996 C 41.119216 31.070426 42.168237 28.873798 43.81438 26.607678 C 45.779978 23.90179 48.559463 21.093406 51.73431 18.597831 A 0.9921875 0.9921875 0 0 0 51.781852 18.55804 A 23.565186 23.565186 0 0 0 50.426896 17.101282 C 47.160337 19.679347 44.294843 22.569636 42.208793 25.441341 C 40.362167 27.983452 39.09852 30.506318 38.794531 32.874996 L 34.859371 32.874996 L 34.859371 10.322367 A 23.565186 23.565186 0 0 0 33.866667 10.301697 z " /></g></svg>
