<?xml version="1.0" encoding="UTF-8"?>
<!-- Created with Inkscape (http://www.inkscape.org/) -->
<svg id="svg1" width="256" height="256" version="1.1" viewBox="0 0 67.733 67.733" xml:space="preserve" xmlns="http://www.w3.org/2000/svg"><g id="layer1"><ellipse id="path28" cx="48.816" cy="19.58" rx="10.492" ry="10.435" fill="currentColor" stroke="#1a1a1a" stroke-linecap="round" stroke-linejoin="round" stroke-miterlimit="10" stroke-width="2"/><ellipse id="circle28" cx="18.917" cy="19.58" rx="10.492" ry="10.435" fill="currentColor" stroke="#1a1a1a" stroke-linecap="round" stroke-linejoin="round" stroke-miterlimit="10" stroke-width="2"/><ellipse id="ellipse36" cx="48.816" cy="19.58" rx="6.4439" ry="6.4065" fill="#fff" fill-opacity=".62157"/><ellipse id="ellipse37" cx="18.917" cy="19.58" rx="6.4439" ry="6.4065" fill="#fff" fill-opacity=".62157"/><path id="path27" d="m59.308 37.646c0 14.051-11.391 20.865-25.442 20.865s-25.442-6.8138-25.442-20.865c2e-7 -14.051 11.391-25.442 25.442-25.442s25.442 11.391 25.442 25.442z" fill="currentColor" stroke="#1a1a1a" stroke-linecap="round" stroke-linejoin="round" stroke-miterlimit="10" stroke-width="2"/><g id="g35" transform="translate(0 4.8196)"><path id="path30" d="m36.567 37.218c0-1.3678-1.174-1.9049-2.6221-1.9049-1.4482 0-2.6221 0.53704-2.6221 1.9049 0 1.3678 1.6369 2.7713 2.6221 2.8134 0.98519 0.04209 2.6221-1.4455 2.6221-2.8134z" fill="#1a1a1a"/><path id="path31" d="m33.944 39.383c0 3.4892-3.6098 3.5549-4.2223 1.3374" fill="none" stroke="#1a1a1a" stroke-linecap="round" stroke-linejoin="round" stroke-miterlimit="10" stroke-width="2"/><path id="path32" d="m33.944 39.383c0 3.4892 3.6098 3.5549 4.2223 1.3374" fill="none" stroke="#1a1a1a" stroke-linecap="round" stroke-linejoin="round" stroke-miterlimit="10" stroke-width="2"/></g><g id="g14" transform="matrix(1.1903 0 0 1.1898 10.697 6.0198)" stroke-width=".84028"><circle id="circle12" cx="28.267" cy="25.942" r="3.4443" fill="#1a1a1a"/><circle id="circle13" cx="27.408" cy="25.213" r="1.3805" fill="#fff"/><circle id="circle14" cx="29.538" cy="27.307" r=".49013" fill="#fff"/></g><g id="g34" transform="matrix(1.1903 0 0 1.1898 -10.259 6.0198)" stroke-width=".84028"><circle id="circle32" cx="28.267" cy="25.942" r="3.4443" fill="#1a1a1a"/><circle id="circle33" cx="27.408" cy="25.213" r="1.3805" fill="#fff"/><circle id="circle34" cx="29.538" cy="27.307" r=".49013" fill="#fff"/></g></g></svg>
