<?xml version="1.0" encoding="UTF-8"?>
<!-- Created with Inkscape (http://www.inkscape.org/) -->
<svg id="svg1" width="256" height="256" version="1.1" viewBox="0 0 67.733 67.733" xml:space="preserve" xmlns="http://www.w3.org/2000/svg"><g id="layer1"><path id="path7" d="m43.62 12.8c1.796-3.1123 4.5805-5.4499 7.3658-3.841 2.7853 1.6089 2.1019 4.643 5.6473 5.702 2.8792 0.86001 5.7207-1.5317 5.3867-5.0383" fill="none" stroke="#1a1a1a" stroke-linecap="round" stroke-linejoin="round" stroke-miterlimit="10" stroke-width="2"/><ellipse id="path6" transform="matrix(.86592 .50018 -.49982 .86613 0 0)" cx="44.179" cy="17.859" rx="22.864" ry="22.859" fill="currentColor"/><path id="path8" d="m50.549 29.074c0.05197 19.25-23.893 27.767-40.294 21.084a22.867 22.856 60 0 0 7.6487 7.2062 22.867 22.856 60 0 0 31.224-8.3626 22.867 22.856 60 0 0 1.4219-19.928z" fill-opacity=".16249"/><ellipse id="circle8" transform="matrix(.49982 .86613 -.86592 .50018 0 0)" cx="47.198" cy="-6.6268" rx="22.864" ry="22.859" fill="none" stroke="#1a1a1a" stroke-linejoin="round" stroke-miterlimit="10" stroke-width="2"/><rect id="rect6" transform="matrix(.86592 .50018 -.49982 .86613 0 0)" x="37.363" y="-11.335" width="13.632" height="7.3697" ry="1.5869" fill="currentColor" stroke="#1a1a1a" stroke-linejoin="round" stroke-miterlimit="10" stroke-width="2"/><path id="path9" d="m47.61 19.523-1.4709 2.5488-11.804-6.8185 1.4847-2.5728" fill="currentColor" stroke="#1a1a1a" stroke-linecap="round" stroke-linejoin="round" stroke-miterlimit="10" stroke-width="2"/><path id="ellipse9" transform="matrix(.49982 .86613 -.86592 .50018 0 0)" d="m33.484 6.9323a19.288 19.283 0 0 1-3.8269-21.577" fill="none" stroke="#fff" stroke-linecap="round" stroke-linejoin="round" stroke-miterlimit="10" stroke-opacity=".45551" stroke-width="2"/></g></svg>
