<?xml version="1.0" encoding="UTF-8"?>
<!-- Created with Inkscape (http://www.inkscape.org/) -->
<svg id="svg1" width="256" height="256" version="1.1" viewBox="0 0 67.733 67.733" xml:space="preserve" xmlns="http://www.w3.org/2000/svg"><g id="layer1"><path id="rect3" d="m33.867 4.1083c4.0414 0 7.2949 3.2535 7.2949 7.2949v38.563c0 4.0414-3.2535 7.2949-7.2949 7.2949-4.0414 0-7.2949-3.2535-7.2949-7.2949v-38.563c0-4.0414 3.2535-7.2949 7.2949-7.2949z" fill="var(--avatar-main)" stroke-linecap="round" stroke-linejoin="round" stroke-miterlimit="10" stroke-width="2"/><path id="rect4" transform="rotate(90)" d="m34.092-52.07c1.8876 0 3.4072 1.5196 3.4072 3.4072v15.002c0 1.8876-1.5196 3.4072-3.4072 3.4072-1.8876 0-3.4072-1.5196-3.4072-3.4072v-15.002c0-1.8876 1.5196-3.4072 3.4072-3.4072z" fill="var(--avatar-main)" stroke-linecap="round" stroke-linejoin="round" stroke-miterlimit="10" stroke-width="2"/><path id="rect5" d="m48.15 23.87c2.1718 0 3.9201 1.7484 3.9201 3.9201v5.7886c0 2.1718-1.7484 3.9201-3.9201 3.9201-2.1718 0-3.9201-1.7484-3.9201-3.9201v-5.7886c0-2.1718 1.7484-3.9201 3.9201-3.9201z" fill="var(--avatar-main)" stroke-linecap="round" stroke-linejoin="round" stroke-miterlimit="10" stroke-width="2"/><path id="rect6" transform="matrix(0,1,1,0,0,0)" d="m23.582 15.664c1.8876 0 3.4072 1.5196 3.4072 3.4072v15.002c0 1.8876-1.5196 3.4072-3.4072 3.4072-1.8876 0-3.4072-1.5196-3.4072-3.4072v-15.002c0-1.8876 1.5196-3.4072 3.4072-3.4072z" fill="var(--avatar-main)" stroke-linecap="round" stroke-linejoin="round" stroke-miterlimit="10" stroke-width="2"/><path id="rect7" transform="scale(-1,1)" d="m-19.584 10.693c2.1718 0 3.9201 1.7484 3.9201 3.9201v8.4552c0 2.1718-1.7484 3.9201-3.9201 3.9201s-3.9201-1.7484-3.9201-3.9201v-8.4552c0-2.1718 1.7484-3.9201 3.9201-3.9201z" fill="var(--avatar-main)" stroke-linecap="round" stroke-linejoin="round" stroke-miterlimit="10" stroke-width="2"/><path id="path16" d="m37.162 12.869v33.396" fill="none" stroke="var(--avatar-shadow)" stroke-linecap="round" stroke-linejoin="round" stroke-miterlimit="10" stroke-width="2"/><path id="path17" d="m33.275 10.81v35.541" fill="none" stroke="var(--avatar-shadow)" stroke-linecap="round" stroke-linejoin="round" stroke-miterlimit="10" stroke-width="2"/><path id="rect23" d="m33.867 4.1083c-4.0414 0-7.2946 3.2538-7.2946 7.2952v8.771h-3.068v-5.5609c0-2.1718-1.7484-3.9202-3.9202-3.9202-2.1718 0-3.9202 1.7484-3.9202 3.9202v8.4553c0 0.089244 0.002973 0.17738 0.008785 0.2651-0.005808 0.081691-0.008785 0.16431-0.008785 0.24753 0 1.8876 1.5194 3.4075 3.407 3.4075h7.5014v22.977c0 4.0414 3.2533 7.2946 7.2946 7.2946 4.0414 0 7.2952-3.2533 7.2952-7.2946v-12.467h7.5008c1.8876 0 3.407-1.5194 3.407-3.407 0-0.083226-0.002976-0.16583-0.008785-0.24753 0.005812-0.087715 0.008785-0.17638 0.008785-0.26562v-5.7883c0-2.1718-1.7484-3.9202-3.9202-3.9202s-3.9202 1.7484-3.9202 3.9202v2.8944h-3.0675v-19.282c0-4.0414-3.2538-7.2952-7.2952-7.2952z" fill="none" stroke="#1a1a1a" stroke-linecap="round" stroke-linejoin="round" stroke-miterlimit="10" stroke-width="2"/><g id="g29"><g id="g28"><path id="rect2" d="m22.708 48.603h21.407l-3.9542 16.021h-13.499z" fill="#ff9249"/><path id="path14" d="m39.258 48.603-3.954 16.022h4.8574l3.9547-16.022z" fill="#f17749"/><path id="path15" d="m22.708 48.603h21.407l-3.9542 16.021h-13.499z" fill="none" stroke="#1a1a1a" stroke-linecap="round" stroke-linejoin="round" stroke-miterlimit="10" stroke-width="2"/></g><g id="g27"><rect id="rect1" x="20.083" y="42.292" width="26.657" height="6.3113" fill="#ff9249"/><rect id="rect15" x="42.115" y="42.292" width="4.6252" height="6.3113" fill="#f17749"/><rect id="rect16" x="20.083" y="42.292" width="26.657" height="6.3113" fill="none" stroke="#1a1a1a" stroke-linecap="round" stroke-linejoin="round" stroke-miterlimit="10" stroke-width="2"/></g></g><path id="path29" d="m28.707 11.45c0-3.3091 3.2113-4.9872 4.3338-5.2865 1.337-0.35651 0.95018-0.011368 0.1041 0.49252-1.1041 0.65755-2.6171 2.4388-2.6171 4.7731 0 1.8341-1.8208 1.9129-1.8208 0.02089z" fill="var(--avatar-highlight)" /><path id="path32" d="m17.15 14.993c0-1.7703 1.2347-2.6489 2.3185-2.8281 0.75054-0.12416 0.57771 0.0671 0.05569 0.26348-1.0349 0.38932-1.4001 1.3047-1.4001 2.5535 0 0.98118-0.97409 1.0234-0.97409 0.01118z" fill="var(--avatar-highlight)"/><path id="path33" d="m45.962 28.567c0-1.7703 1.2347-2.6489 2.3185-2.8281 0.75054-0.12416 0.57771 0.0671 0.05569 0.26348-1.0349 0.38932-1.4001 1.3047-1.4001 2.5535 0 0.98118-0.97409 1.0234-0.97409 0.01118z" fill="var(--avatar-highlight)"/></g></svg>
