<?xml version="1.0" encoding="UTF-8"?>
<!-- Created with Inkscape (http://www.inkscape.org/) -->
<svg id="svg1" width="256" height="256" version="1.1" viewBox="0 0 67.733 67.733" xml:space="preserve" xmlns="http://www.w3.org/2000/svg"><g id="layer1"><g id="g17" stroke-width=".94231"><g id="g16" transform="matrix(-1.056 .10465 .10467 1.0561 67.533 -3.7761)"><path id="path15" d="m56.523 26.061c-2.8814 4.9908-9.2855 6.6878-14.304 3.7904-5.0184-2.8974-6.7507-9.2919-3.8693-14.283 2.8814-4.9908 12.683-10.438 16.777-8.0746s4.2772 13.576 1.3958 18.567z" fill="var(--avatar-main)" stroke="#1a1a1a" stroke-linecap="round" stroke-linejoin="round" stroke-miterlimit="10" stroke-width="1.8846"/><path id="path16" d="m53.718 21.732c-1.5815 2.7601-5.0965 3.6987-7.8509 2.0963-2.7544-1.6024-3.7052-5.1389-2.1237-7.899 1.5815-2.7601 7.22-5.5868 9.2085-4.4657s2.3476 7.5083 0.76612 10.268z" fill="var(--avatar-highlight)"/></g><g id="g1" transform="matrix(1.056 .10465 -.10467 1.0561 .20008 -3.7761)"><path id="path28" d="m56.523 26.061c-2.8814 4.9908-9.2855 6.6878-14.304 3.7904-5.0184-2.8974-6.7507-9.2919-3.8693-14.283 2.8814-4.9908 12.683-10.438 16.777-8.0746s4.2772 13.576 1.3958 18.567z" fill="var(--avatar-main)" stroke="#1a1a1a" stroke-linecap="round" stroke-linejoin="round" stroke-miterlimit="10" stroke-width="1.8846"/><path id="path1" d="m53.718 21.732c-1.5815 2.7601-5.0965 3.6987-7.8509 2.0963-2.7544-1.6024-3.7052-5.1389-2.1237-7.899 1.5815-2.7601 7.22-5.5868 9.2085-4.4657s2.3476 7.5083 0.76612 10.268z" fill="var(--avatar-highlight)"/></g></g><path id="path27" d="m59.023 37.735c0 12.248-11.263 20.649-25.156 20.649-13.894 0-25.156-8.4007-25.156-20.649 3e-7 -12.248 11.263-23.534 25.156-23.534 13.894 0 25.156 11.286 25.156 23.534z" fill="var(--avatar-main)" stroke="#1a1a1a" stroke-linecap="round" stroke-linejoin="round" stroke-miterlimit="10" stroke-width="2"/><g id="g35" transform="matrix(1.0611 0 0 1.0613 -2.0702 -.21425)" stroke-width=".94231"><path id="path30" d="m36.567 37.218c0-1.3678-1.174-1.9049-2.6221-1.9049-1.4482 0-2.6221 0.53704-2.6221 1.9049 0 1.3678 1.6369 2.7713 2.6221 2.8134 0.98519 0.04209 2.6221-1.4455 2.6221-2.8134z" fill="#1a1a1a"/><path id="path31" d="m33.944 39.383c0 3.4892-3.6098 3.5549-4.2223 1.3374" fill="none" stroke="#1a1a1a" stroke-linecap="round" stroke-linejoin="round" stroke-miterlimit="10" stroke-width="1.8846"/><path id="path32" d="m33.944 39.383c0 3.4892 3.6098 3.5549 4.2223 1.3374" fill="none" stroke="#1a1a1a" stroke-linecap="round" stroke-linejoin="round" stroke-miterlimit="10" stroke-width="1.8846"/></g><g id="g14" transform="matrix(1.2631 0 0 1.2628 9.2806 1.0595)" stroke-width=".79181"><circle id="circle12" cx="28.267" cy="25.942" r="3.4443" fill="#1a1a1a"/><circle id="circle13" cx="27.408" cy="25.213" r="1.3805" fill="#fff"/><circle id="circle14" cx="29.538" cy="27.307" r=".49013" fill="#fff"/></g><g id="g34" transform="matrix(1.2631 0 0 1.2628 -12.956 1.0595)" stroke-width=".79181"><circle id="circle32" cx="28.267" cy="25.942" r="3.4443" fill="#1a1a1a"/><circle id="circle33" cx="27.408" cy="25.213" r="1.3805" fill="#fff"/><circle id="circle34" cx="29.538" cy="27.307" r=".49013" fill="#fff"/></g><path id="path11" d="m54.582 40.318 7.9938-1.8473" fill="none" stroke="#1a1a1a" stroke-linecap="round" stroke-linejoin="round" stroke-miterlimit="10" stroke-width="2"/><path id="path12" d="m53.17 44.963 7.9938 1.8473" fill="none" stroke="#1a1a1a" stroke-linecap="round" stroke-linejoin="round" stroke-miterlimit="10" stroke-width="2"/><path id="path13" d="m12.777 40.318-7.9938-1.8473" fill="none" stroke="#1a1a1a" stroke-linecap="round" stroke-linejoin="round" stroke-miterlimit="10" stroke-width="2"/><path id="path14" d="m14.19 44.963-7.9938 1.8473" fill="none" stroke="#1a1a1a" stroke-linecap="round" stroke-linejoin="round" stroke-miterlimit="10" stroke-width="2"/></g></svg>
