<?xml version="1.0" encoding="UTF-8" standalone="no"?>
<!-- Created with Inkscape (http://www.inkscape.org/) -->

<svg
   width="256"
   height="256"
   viewBox="0 0 67.733332 67.733333"
   version="1.1"
   id="svg1"
   xml:space="preserve"
   inkscape:version="1.4.3 (0d15f75042, 2025-12-25)"
   sodipodi:docname="cat.svg"
   xmlns:inkscape="http://www.inkscape.org/namespaces/inkscape"
   xmlns:sodipodi="http://sodipodi.sourceforge.net/DTD/sodipodi-0.dtd"
   xmlns="http://www.w3.org/2000/svg"
   xmlns:svg="http://www.w3.org/2000/svg"><sodipodi:namedview
     id="namedview1"
     pagecolor="#ffffff"
     bordercolor="#000000"
     borderopacity="0.25"
     inkscape:showpageshadow="2"
     inkscape:pageopacity="0.0"
     inkscape:pagecheckerboard="0"
     inkscape:deskcolor="#d1d1d1"
     inkscape:document-units="mm"
     showguides="true"
     inkscape:zoom="1.8523844"
     inkscape:cx="66.940748"
     inkscape:cy="98.791588"
     inkscape:window-width="1651"
     inkscape:window-height="1541"
     inkscape:window-x="0"
     inkscape:window-y="0"
     inkscape:window-maximized="1"
     inkscape:current-layer="layer1" /><defs
     id="defs1" /><g
     inkscape:label="Layer 1"
     inkscape:groupmode="layer"
     id="layer1"><g
       id="g17"><g
         id="g16"
         transform="matrix(-1.0559535,0.10465269,0.10467143,1.0561427,67.533253,-3.7760909)"
         style="stroke-width:0.94231"><path
           id="path15"
           style="fill:currentColor;stroke:#1a1a1a;stroke-width:1.88462;stroke-linecap:round;stroke-linejoin:round;stroke-miterlimit:10"
           d="M 56.523396,26.060975 C 53.641982,31.051727 47.237943,32.748758 42.219573,29.851401 37.201202,26.954043 35.468855,20.559467 38.350267,15.568714 41.231679,10.57796 51.033556,5.1304058 55.127573,7.4940877 59.22159,9.8577696 59.404808,21.070222 56.523396,26.060975 Z"
           sodipodi:nodetypes="ssszs" /><path
           id="path16"
           style="fill:#ffffff;fill-opacity:0.62;stroke:none;stroke-width:1.88462;stroke-linecap:round;stroke-linejoin:round;stroke-miterlimit:10"
           d="m 53.717693,21.732295 c -1.581509,2.760127 -5.096464,3.698667 -7.850874,2.096289 -2.754411,-1.602379 -3.705236,-5.138889 -2.123729,-7.899016 1.581508,-2.760129 7.220006,-5.586759 9.208484,-4.46566 1.988478,1.121099 2.347626,7.508259 0.766119,10.268387 z"
           sodipodi:nodetypes="ssszs" /></g><g
         id="g1"
         transform="matrix(1.0559535,0.10465269,-0.10467143,1.0561427,0.20008246,-3.7760909)"
         style="stroke-width:0.94231"><path
           id="path28"
           style="fill:currentColor;stroke:#1a1a1a;stroke-width:1.88462;stroke-linecap:round;stroke-linejoin:round;stroke-miterlimit:10"
           d="M 56.523396,26.060975 C 53.641982,31.051727 47.237943,32.748758 42.219573,29.851401 37.201202,26.954043 35.468855,20.559467 38.350267,15.568714 41.231679,10.57796 51.033556,5.1304058 55.127573,7.4940877 59.22159,9.8577696 59.404808,21.070222 56.523396,26.060975 Z"
           sodipodi:nodetypes="ssszs" /><path
           id="path1"
           style="fill:#ffffff;fill-opacity:0.62;stroke:none;stroke-width:1.88462;stroke-linecap:round;stroke-linejoin:round;stroke-miterlimit:10"
           d="m 53.717693,21.732295 c -1.581509,2.760127 -5.096464,3.698667 -7.850874,2.096289 -2.754411,-1.602379 -3.705236,-5.138889 -2.123729,-7.899016 1.581508,-2.760129 7.220006,-5.586759 9.208484,-4.46566 1.988478,1.121099 2.347626,7.508259 0.766119,10.268387 z"
           sodipodi:nodetypes="ssszs" /></g></g><path
       id="path27"
       style="opacity:1;fill:currentColor;fill-opacity:1;stroke:#1a1a1a;stroke-width:2;stroke-linecap:round;stroke-linejoin:round;stroke-miterlimit:10"
       d="m 59.023142,37.735036 c 0,12.248108 -11.262937,20.648813 -25.156475,20.648813 -13.893537,0 -25.1564736,-8.400706 -25.1564736,-20.648813 3e-7,-12.248108 11.2629366,-23.534292 25.1564736,-23.534292 13.893538,0 25.156475,11.286184 25.156475,23.534292 z"
       sodipodi:nodetypes="sssss" /><g
       id="g35"
       transform="matrix(1.0611268,0,0,1.0613169,-2.0701601,-0.21424913)"
       style="stroke-width:0.94231"><path
         id="path30"
         style="opacity:1;fill:#1a1a1a;fill-opacity:1;stroke:none;stroke-width:1.88462;stroke-linecap:round;stroke-linejoin:round;stroke-miterlimit:10"
         d="m 36.566563,37.218154 c 0,-1.367822 -1.173963,-1.904863 -2.622121,-1.904863 -1.448157,0 -2.622123,0.537041 -2.622123,1.904863 0,1.367824 1.636929,2.771276 2.622123,2.813364 0.985194,0.04209 2.622121,-1.44554 2.622121,-2.813364 z"
         sodipodi:nodetypes="ssszs" /><path
         style="opacity:1;fill:none;fill-opacity:1;stroke:#1a1a1a;stroke-width:1.88462;stroke-linecap:round;stroke-linejoin:round;stroke-miterlimit:10"
         d="m 33.94444,39.382712 c 0,3.48921 -3.609789,3.55487 -4.222305,1.337379"
         id="path31"
         sodipodi:nodetypes="cc" /><path
         style="opacity:1;fill:none;fill-opacity:1;stroke:#1a1a1a;stroke-width:1.88462;stroke-linecap:round;stroke-linejoin:round;stroke-miterlimit:10"
         d="m 33.94444,39.382712 c 0,3.48921 3.609789,3.55487 4.222305,1.337379"
         id="path32"
         sodipodi:nodetypes="cc" /></g><g
       id="g14"
       transform="matrix(1.2630922,0,0,1.262781,9.2806292,1.05949)"
       style="stroke-width:0.791806"><circle
         style="fill:#1a1a1a;stroke:none;stroke-width:1.5836;stroke-linecap:round;stroke-linejoin:round;stroke-miterlimit:10"
         id="circle12"
         cx="28.267347"
         cy="25.942007"
         r="3.4442995" /><circle
         style="fill:#ffffff;fill-opacity:1;stroke:none;stroke-width:1.5836;stroke-linecap:round;stroke-linejoin:round;stroke-miterlimit:10"
         id="circle13"
         cx="27.408236"
         cy="25.212543"
         r="1.3805408" /><circle
         style="fill:#ffffff;fill-opacity:1;stroke:none;stroke-width:1.5836;stroke-linecap:round;stroke-linejoin:round;stroke-miterlimit:10"
         id="circle14"
         cx="29.537535"
         cy="27.307114"
         r="0.4901334" /></g><g
       id="g34"
       transform="matrix(1.2630922,0,0,1.262781,-12.955828,1.05949)"
       style="stroke-width:0.791806"><circle
         style="fill:#1a1a1a;stroke:none;stroke-width:1.5836;stroke-linecap:round;stroke-linejoin:round;stroke-miterlimit:10"
         id="circle32"
         cx="28.267347"
         cy="25.942007"
         r="3.4442995" /><circle
         style="fill:#ffffff;fill-opacity:1;stroke:none;stroke-width:1.5836;stroke-linecap:round;stroke-linejoin:round;stroke-miterlimit:10"
         id="circle33"
         cx="27.408236"
         cy="25.212543"
         r="1.3805408" /><circle
         style="fill:#ffffff;fill-opacity:1;stroke:none;stroke-width:1.5836;stroke-linecap:round;stroke-linejoin:round;stroke-miterlimit:10"
         id="circle34"
         cx="29.537535"
         cy="27.307114"
         r="0.4901334" /></g><path
       style="fill:none;fill-opacity:0.62;stroke:#1a1a1a;stroke-width:2;stroke-linecap:round;stroke-linejoin:round;stroke-miterlimit:10;stroke-dasharray:none"
       d="m 54.582045,40.317681 7.993786,-1.847257"
       id="path11"
       sodipodi:nodetypes="cc" /><path
       style="fill:none;fill-opacity:0.62;stroke:#1a1a1a;stroke-width:2;stroke-linecap:round;stroke-linejoin:round;stroke-miterlimit:10;stroke-dasharray:none"
       d="m 53.169653,44.963309 7.993786,1.847257"
       id="path12"
       sodipodi:nodetypes="cc" /><path
       style="fill:none;fill-opacity:0.62;stroke:#1a1a1a;stroke-width:2;stroke-linecap:round;stroke-linejoin:round;stroke-miterlimit:10;stroke-dasharray:none"
       d="M 12.7772,40.317681 4.783414,38.470424"
       id="path13"
       sodipodi:nodetypes="cc" /><path
       style="fill:none;fill-opacity:0.62;stroke:#1a1a1a;stroke-width:2;stroke-linecap:round;stroke-linejoin:round;stroke-miterlimit:10;stroke-dasharray:none"
       d="M 14.189592,44.963309 6.195806,46.810566"
       id="path14"
       sodipodi:nodetypes="cc" /></g></svg>
