<?xml version="1.0" encoding="UTF-8" standalone="no"?>
<!-- Created with Inkscape (http://www.inkscape.org/) -->

<svg
   width="256"
   height="256"
   viewBox="0 0 67.733332 67.733333"
   version="1.1"
   id="svg1"
   xml:space="preserve"
   inkscape:version="1.4.3 (0d15f75042, 2025-12-25)"
   sodipodi:docname="controller.svg"
   xmlns:inkscape="http://www.inkscape.org/namespaces/inkscape"
   xmlns:sodipodi="http://sodipodi.sourceforge.net/DTD/sodipodi-0.dtd"
   xmlns="http://www.w3.org/2000/svg"
   xmlns:svg="http://www.w3.org/2000/svg"><sodipodi:namedview
     id="namedview1"
     pagecolor="#ffffff"
     bordercolor="#000000"
     borderopacity="0.25"
     inkscape:showpageshadow="2"
     inkscape:pageopacity="0.0"
     inkscape:pagecheckerboard="0"
     inkscape:deskcolor="#d1d1d1"
     inkscape:document-units="mm"
     showguides="true"
     inkscape:zoom="2.9482937"
     inkscape:cx="116.67766"
     inkscape:cy="112.60751"
     inkscape:window-width="1651"
     inkscape:window-height="1541"
     inkscape:window-x="0"
     inkscape:window-y="0"
     inkscape:window-maximized="1"
     inkscape:current-layer="layer1"><sodipodi:guide
       position="158.32902,138.53372"
       orientation="1,0"
       id="guide25"
       inkscape:locked="false" /></sodipodi:namedview><defs
     id="defs1" /><g
     inkscape:label="Layer 1"
     inkscape:groupmode="layer"
     id="layer1"><path
       id="path18"
       style="opacity:1;fill:currentColor;fill-opacity:1;stroke:#1a1a1a;stroke-width:2;stroke-linecap:round;stroke-linejoin:round;stroke-miterlimit:10"
       d="m 33.866888,5.1459746 c -7.710768,0 -10.86808,3.4231744 -11.266905,5.6830924 -6.846515,0.631448 -17.3692413,2.235147 -17.3692413,23.051155 0,12.990965 3.2615555,16.221511 5.7932943,16.221511 2.531738,0 5.063291,-7.825127 6.137362,-14.729577 l 7.902043,0.690324 c 2.22486,9.896378 4.641066,25.853241 8.803447,25.853241 4.162382,0 6.578145,-15.956863 8.803005,-25.853241 l 7.902043,-0.690324 c 1.074071,6.90445 3.606067,14.729577 6.137805,14.729577 2.531738,0 5.792851,-3.230546 5.792851,-16.221511 0,-20.816008 -10.522282,-22.419707 -17.368797,-23.051155 C 44.73497,8.569149 41.577657,5.1459746 33.866888,5.1459746 Z" /><path
       id="rect19"
       style="opacity:1;fill:#ffffff;fill-opacity:1;stroke:#1a1a1a;stroke-width:1.99999;stroke-linecap:round;stroke-linejoin:round;stroke-miterlimit:10"
       d="M 16.259473 17.858858 L 16.259473 21.968168 L 12.150163 21.968168 L 12.150163 26.24491 L 16.259473 26.24491 L 16.259473 30.35422 L 20.536214 30.35422 L 20.536214 26.24491 L 24.645524 26.24491 L 24.645524 21.968168 L 20.536214 21.968168 L 20.536214 17.858858 L 16.259473 17.858858 z " /><circle
       style="opacity:1;fill:#ffffff;fill-opacity:1;stroke:#1a1a1a;stroke-width:1.99999;stroke-linecap:round;stroke-linejoin:round;stroke-miterlimit:10"
       id="path20"
       cx="33.866665"
       cy="33.146679"
       r="4.4252672" /><circle
       style="opacity:1;fill:#ffffff;fill-opacity:1;stroke:#1a1a1a;stroke-width:1.99999;stroke-linecap:round;stroke-linejoin:round;stroke-miterlimit:10"
       id="circle20"
       cx="50.549572"
       cy="18.733068"
       r="2.1412582" /><circle
       style="opacity:1;fill:#ffffff;fill-opacity:1;stroke:#1a1a1a;stroke-width:1.99999;stroke-linecap:round;stroke-linejoin:round;stroke-miterlimit:10"
       id="circle21"
       cx="50.549572"
       cy="28.761265"
       r="2.1412582" /><circle
       style="opacity:1;fill:#ffffff;fill-opacity:1;stroke:#1a1a1a;stroke-width:1.99999;stroke-linecap:round;stroke-linejoin:round;stroke-miterlimit:10"
       id="circle23"
       cx="23.747168"
       cy="-55.563671"
       r="2.1412582"
       transform="rotate(90)" /><circle
       style="opacity:1;fill:#ffffff;fill-opacity:1;stroke:#1a1a1a;stroke-width:1.99999;stroke-linecap:round;stroke-linejoin:round;stroke-miterlimit:10"
       id="circle24"
       cx="23.747168"
       cy="-45.535473"
       r="2.1412582"
       transform="rotate(90)" /><circle
       style="opacity:1;fill:#ffffff;fill-opacity:0.40269566;stroke:#1a1a1a;stroke-width:1.99999;stroke-linecap:round;stroke-linejoin:round;stroke-miterlimit:10"
       id="circle25"
       cx="22.077585"
       cy="-33.866665"
       r="2.1412582"
       transform="rotate(90)" /></g></svg>
