<?xml version="1.0" encoding="UTF-8"?>
<!-- Created with Inkscape (http://www.inkscape.org/) -->
<svg id="svg1" width="256" height="256" version="1.1" viewBox="0 0 67.733 67.733" xml:space="preserve" xmlns="http://www.w3.org/2000/svg"><g id="layer1" stroke="#1a1a1a" stroke-linecap="round" stroke-linejoin="round" stroke-miterlimit="10"><path id="path18" d="m33.867 5.146c-7.7108 0-10.868 3.4232-11.267 5.6831-6.8465 0.63145-17.369 2.2351-17.369 23.051 0 12.991 3.2616 16.222 5.7933 16.222 2.5317 0 5.0633-7.8251 6.1374-14.73l7.902 0.69032c2.2249 9.8964 4.6411 25.853 8.8034 25.853 4.1624 0 6.5781-15.957 8.803-25.853l7.902-0.69032c1.0741 6.9044 3.6061 14.73 6.1378 14.73s5.7929-3.2305 5.7929-16.222c0-20.816-10.522-22.42-17.369-23.051-0.39882-2.2599-3.5561-5.6831-11.267-5.6831z" fill="currentColor" stroke-width="2"/><path id="rect19" d="m16.259 17.859v4.1093h-4.1093v4.2767h4.1093v4.1093h4.2767v-4.1093h4.1093v-4.2767h-4.1093v-4.1093h-4.2767z" fill="#fff" stroke-width="2"/><circle id="path20" cx="33.867" cy="33.147" r="4.4253" fill="#fff" stroke-width="2"/><circle id="circle20" cx="50.55" cy="18.733" r="2.1413" fill="#fff" stroke-width="2"/><circle id="circle21" cx="50.55" cy="28.761" r="2.1413" fill="#fff" stroke-width="2"/><circle id="circle23" transform="rotate(90)" cx="23.747" cy="-55.564" r="2.1413" fill="#fff" stroke-width="2"/><circle id="circle24" transform="rotate(90)" cx="23.747" cy="-45.535" r="2.1413" fill="#fff" stroke-width="2"/><circle id="circle25" transform="rotate(90)" cx="22.078" cy="-33.867" r="2.1413" fill="#fff" fill-opacity=".4027" stroke-width="2"/></g></svg>
