<?xml version="1.0" encoding="UTF-8" standalone="no"?>
<!-- Created with Inkscape (http://www.inkscape.org/) -->

<svg
   width="256"
   height="256"
   viewBox="0 0 67.733332 67.733333"
   version="1.1"
   id="svg1"
   xml:space="preserve"
   inkscape:version="1.4.3 (0d15f75042, 2025-12-25)"
   sodipodi:docname="crab.svg"
   xmlns:inkscape="http://www.inkscape.org/namespaces/inkscape"
   xmlns:sodipodi="http://sodipodi.sourceforge.net/DTD/sodipodi-0.dtd"
   xmlns="http://www.w3.org/2000/svg"
   xmlns:svg="http://www.w3.org/2000/svg"><sodipodi:namedview
     id="namedview1"
     pagecolor="#ffffff"
     bordercolor="#000000"
     borderopacity="0.25"
     inkscape:showpageshadow="2"
     inkscape:pageopacity="0.0"
     inkscape:pagecheckerboard="0"
     inkscape:deskcolor="#d1d1d1"
     inkscape:document-units="mm"
     showgrid="false"
     inkscape:zoom="15.538508"
     inkscape:cx="132.83129"
     inkscape:cy="72.593843"
     inkscape:window-width="1651"
     inkscape:window-height="1541"
     inkscape:window-x="0"
     inkscape:window-y="0"
     inkscape:window-maximized="1"
     inkscape:current-layer="layer1"><inkscape:grid
       id="grid8"
       units="mm"
       originx="0"
       originy="0"
       spacingx="0.99999998"
       spacingy="1"
       empcolor="#0099e5"
       empopacity="0.30196078"
       color="#0099e5"
       opacity="0.14901961"
       empspacing="5"
       enabled="true"
       visible="false" /></sodipodi:namedview><defs
     id="defs1" /><g
     inkscape:label="Layer 1"
     inkscape:groupmode="layer"
     id="layer1"><path
       id="rect1"
       style="opacity:1;fill:currentColor;fill-opacity:1;stroke-width:2.56768;stroke-linecap:round;stroke-linejoin:round;stroke-miterlimit:10"
       d="m 16.279426,30.929308 c -6.2889489,4.032422 1.524332,15.314155 7.02032,18.487265 3.107856,1.794321 6.864283,2.722839 10.566921,2.671987 3.702638,0.05084 7.459066,-0.877666 10.566922,-2.671987 5.495987,-3.17311 13.309268,-14.454843 7.02032,-18.487265 -11.448843,-7.340908 -23.712151,-7.349557 -35.174483,0 z"
       sodipodi:nodetypes="sscsss" /><path
       style="opacity:1;fill:currentColor;fill-opacity:1;stroke:none;stroke-width:2.61186;stroke-linecap:round;stroke-linejoin:round;stroke-miterlimit:10"
       d="m 42.62132,28.141121 c 4.570284,-2.627916 2.742171,-5.255829 2.742171,-9.426214 0,-4.170384 3.142072,-7.312455 6.055628,-7.426712 -0.971186,1.885242 -0.685543,3.998999 0.171386,5.084442 2.799299,-2.056628 3.027813,-4.970185 2.228013,-6.6269134 5.769985,1.3139574 9.083441,12.8539264 -3.656228,17.9954974 -0.720929,1.036698 -2.170885,2.570785 -4.68454,3.256328 -2.619005,0.714275 -2.85643,-2.856428 -2.85643,-2.856428 z"
       id="path2"
       sodipodi:nodetypes="csccccsc" /><path
       style="opacity:1;fill:currentColor;fill-opacity:1;stroke:none;stroke-width:2.61186;stroke-linecap:round;stroke-linejoin:round;stroke-miterlimit:10"
       d="m 25.112013,28.141121 c -4.570284,-2.627916 -2.742171,-5.255829 -2.742171,-9.426214 0,-4.170384 -3.142072,-7.312455 -6.055628,-7.426712 0.971186,1.885242 0.685543,3.998999 -0.171386,5.084442 C 13.343529,14.316009 13.115015,11.402452 13.914815,9.7457236 8.1448301,11.059681 4.8313742,22.59965 17.571043,27.741221 c 0.720929,1.036698 2.170885,2.570785 4.68454,3.256328 2.619005,0.714275 2.85643,-2.856428 2.85643,-2.856428 z"
       id="path3"
       sodipodi:nodetypes="csccccsc" /><path
       style="opacity:1;fill:currentColor;fill-opacity:0.476773;stroke:currentColor;stroke-width:2.61186;stroke-linecap:round;stroke-linejoin:round;stroke-miterlimit:10"
       d="m 36.341925,28.530126 c 2.492214,-2.757485 2.141533,-9.155055 2.141533,-9.155055"
       id="path4" /><circle
       style="opacity:1;fill:#1a1a1a;fill-opacity:1;stroke:none;stroke-width:2.61186;stroke-linecap:round;stroke-linejoin:round;stroke-miterlimit:10"
       id="path5"
       cx="38.483452"
       cy="19.375069"
       r="2.7839942" /><path
       style="opacity:1;fill:none;fill-opacity:0.476773;stroke:currentColor;stroke-width:2.61186;stroke-linecap:round;stroke-linejoin:round;stroke-miterlimit:10"
       d="m 50.957895,35.543651 c 6.799368,-0.214152 9.476286,-5.086143 10.225823,-10.38644"
       id="path7" /><path
       style="opacity:1;fill:none;fill-opacity:0.476773;stroke:currentColor;stroke-width:2.61186;stroke-linecap:round;stroke-linejoin:round;stroke-miterlimit:10"
       d="m 48.066821,40.576257 c 4.874846,-1.380816 13.468108,-2.076813 16.100529,5.82045"
       id="path8"
       sodipodi:nodetypes="cc" /><path
       style="opacity:1;fill:none;fill-opacity:0.476773;stroke:currentColor;stroke-width:2.61186;stroke-linecap:round;stroke-linejoin:round;stroke-miterlimit:10"
       d="m 43.728194,47.681627 c 9.213473,-2.632421 20.078903,-0.627231 15.742297,9.705672"
       id="path9"
       sodipodi:nodetypes="cc" /><path
       style="opacity:1;fill:currentColor;fill-opacity:0.476773;stroke:currentColor;stroke-width:2.61186;stroke-linecap:round;stroke-linejoin:round;stroke-miterlimit:10"
       d="M 31.391408,28.530126 C 28.899194,25.772641 29.249875,19.375071 29.249875,19.375071"
       id="path10" /><circle
       style="opacity:1;fill:#1a1a1a;fill-opacity:1;stroke:none;stroke-width:2.61186;stroke-linecap:round;stroke-linejoin:round;stroke-miterlimit:10"
       id="circle10"
       cx="-29.249878"
       cy="19.375069"
       r="2.7839942"
       transform="scale(-1,1)" /><path
       style="opacity:1;fill:none;fill-opacity:0.476773;stroke:currentColor;stroke-width:2.61186;stroke-linecap:round;stroke-linejoin:round;stroke-miterlimit:10"
       d="M 16.775438,35.543651 C 9.9760698,35.329499 7.2991517,30.457508 6.5496146,25.157211"
       id="path11" /><path
       style="opacity:1;fill:none;fill-opacity:0.476773;stroke:currentColor;stroke-width:2.61186;stroke-linecap:round;stroke-linejoin:round;stroke-miterlimit:10"
       d="M 19.666512,40.576257 C 14.791666,39.195441 6.1984036,38.499444 3.5659826,46.396707"
       id="path12"
       sodipodi:nodetypes="cc" /><path
       style="opacity:1;fill:none;fill-opacity:0.476773;stroke:currentColor;stroke-width:2.61186;stroke-linecap:round;stroke-linejoin:round;stroke-miterlimit:10"
       d="M 24.005139,47.681627 C 14.791666,45.049206 3.926236,47.054396 8.2628416,57.387299"
       id="path13"
       sodipodi:nodetypes="cc" /><path
       style="opacity:1;fill:#ffffff;fill-opacity:0.386093;stroke:none;stroke-width:2.61186;stroke-linecap:round;stroke-linejoin:round;stroke-miterlimit:10"
       d="m 16.712015,35.333215 c 1.665361,-4.090964 6.039936,-6.05102 9.265596,-6.673225 3.932783,-0.758605 4.575731,-0.189648 0.143123,1.51399 -2.437345,0.936775 -5.056395,3.499985 -6.347126,5.216865 -1.215103,1.616284 -4.009377,2.270606 -3.061593,-0.05762 z"
       id="path14"
       sodipodi:nodetypes="sssss" /><path
       style="opacity:1;fill:#ffffff;fill-opacity:0.386093;stroke:none;stroke-width:2.61186;stroke-linecap:round;stroke-linejoin:round;stroke-miterlimit:10"
       d="m 10.26317,17.187393 c 0.05833,-2.468754 1.150554,-4.904996 1.150554,-0.121104 0,4.783885 -1.20784,2.545681 -1.150554,0.121104 z"
       id="path16"
       sodipodi:nodetypes="sss" /><path
       style="opacity:1;fill:#ffffff;fill-opacity:0.386093;stroke:none;stroke-width:2.61186;stroke-linecap:round;stroke-linejoin:round;stroke-miterlimit:10"
       d="m 46.84707,16.537961 c 0.866372,-2.312476 2.698534,-4.254489 1.126452,0.263717 -1.57208,4.518199 -1.97732,2.007379 -1.126452,-0.263717 z"
       id="path19"
       sodipodi:nodetypes="sss" /><path
       id="path20"
       style="opacity:1;fill:#000000;fill-opacity:0.1322937;stroke:none;stroke-width:1.98438;stroke-linecap:round;stroke-linejoin:round;stroke-miterlimit:10"
       d="m 53.118205,32.634701 c 0.08078,11.539302 -20.51539,18.284098 -29.818335,16.781921 3.107856,1.794321 6.864159,2.72304 10.566797,2.672188 3.702638,0.05084 7.458941,-0.877867 10.566797,-2.672188 4.847285,-2.798582 11.497048,-11.904848 8.684741,-16.781921 z"
       sodipodi:nodetypes="cccsc" /><path
       id="path1"
       style="opacity:1;fill:none;fill-opacity:1;stroke-width:2;stroke-linecap:round;stroke-linejoin:round;stroke-miterlimit:10;stroke:#1a1a1a;stroke-opacity:1;stroke-dasharray:none"
       d="M 13.915013,9.7456876 C 8.1450278,11.059645 4.8314518,22.599401 17.57112,27.740972 c 0.324533,0.466678 0.796932,1.034263 1.447457,1.579748 -0.917473,0.489963 -1.830632,1.025828 -2.738851,1.608171 -1.172259,0.751643 -1.854719,1.755518 -2.153357,2.91145 C 12.510115,33.37144 11.32574,32.519392 10.39068,31.413616 9.00019,29.769261 8.1943548,27.465873 7.8419988,24.974215 a 1.30593,1.30593 0 0 0 -1.474846,-1.111043 1.30593,1.30593 0 0 0 -1.111043,1.476396 c 0.397181,2.808639 1.305181,5.591548 3.140377,7.7618 1.3586512,1.606705 3.2444132,2.824591 5.6358312,3.396175 0.09102,0.624861 0.250767,1.267854 0.468189,1.918746 -1.305692,-0.04691 -2.656809,0.03537 -3.990454,0.312126 -3.4091912,0.707475 -6.7293372,2.891906 -8.1839972,7.255887 a 1.30593,1.30593 0 0 0 0.826306,1.650029 1.30593,1.30593 0 0 0 1.652613,-0.824239 c 1.177761,-3.533282 3.472054,-4.951606 6.2363112,-5.525244 1.495931,-0.310436 3.121283,-0.315388 4.662248,-0.151412 0.812939,1.492753 1.846103,2.950007 2.965194,4.246252 -0.539983,-0.04195 -1.07622,-0.06595 -1.606104,-0.07131 -2.381543,-0.02411 -4.634569,0.33145 -6.535001,1.167887 -1.900432,0.836438 -3.4769172,2.24954 -4.1640872,4.238501 -0.68717,1.98896 -0.470243,4.400782 0.695048,7.17734 a 1.30593,1.30593 0 0 0 1.7089392,0.699182 1.30593,1.30593 0 0 0 0.699183,-1.70894 C 8.4636938,54.492455 8.4137698,52.778823 8.832119,51.567944 c 0.418348,-1.210878 1.320552,-2.073706 2.746086,-2.701127 2.489123,-1.095538 6.483061,-1.18086 10.379728,-0.34985 0.456445,0.345636 0.906523,0.647726 1.342037,0.89917 0.776964,0.448581 1.594133,0.84326 2.441194,1.18184 2.541263,1.015914 5.348465,1.52849 8.125603,1.490349 3.702638,0.05084 7.45894,-0.877868 10.566796,-2.672189 0.435404,-0.25138 0.885712,-0.55364 1.342037,-0.89917 3.896711,-0.831315 7.889288,-0.745815 10.378695,0.34985 1.425534,0.627421 2.329804,1.490249 2.748153,2.701127 0.418349,1.210879 0.366358,2.924511 -0.636654,5.314404 a 1.30593,1.30593 0 0 0 0.699182,1.70894 1.30593,1.30593 0 0 0 1.70894,-0.699182 c 1.165291,-2.776558 1.384285,-5.18838 0.697115,-7.17734 -0.68717,-1.988961 -2.263655,-3.402063 -4.164087,-4.238501 -1.900432,-0.836437 -4.155527,-1.191995 -6.537069,-1.167887 -0.529564,0.0054 -1.065417,0.02941 -1.60507,0.07131 1.119067,-1.296228 2.15227,-2.753525 2.965194,-4.246252 1.541472,-0.16397 3.16737,-0.15902 4.663281,0.151412 2.764257,0.573638 5.057002,1.991962 6.234762,5.525244 a 1.30593,1.30593 0 0 0 1.652095,0.824239 1.30593,1.30593 0 0 0 0.826306,-1.650029 c -1.45466,-4.363981 -4.774287,-6.548412 -8.183479,-7.255887 -1.333331,-0.276694 -2.684532,-0.358969 -3.989938,-0.312126 0.217442,-0.650959 0.37718,-1.293825 0.468189,-1.918746 2.39097,-0.571679 4.276325,-1.789682 5.634798,-3.396175 1.835196,-2.170252 2.743713,-4.953161 3.140894,-7.7618 a 1.30593,1.30593 0 0 0 -1.109493,-1.476396 1.30593,1.30593 0 0 0 -1.476913,1.111043 c -0.352356,2.491658 -1.158192,4.795046 -2.548682,6.439401 -0.934896,1.105582 -2.118835,1.957255 -3.734655,2.426208 -0.04851,-0.187731 -0.111146,-0.369539 -0.180351,-0.548804 -0.01838,-0.0476 -0.038,-0.09462 -0.05788,-0.141593 -0.06912,-0.163335 -0.14534,-0.323818 -0.23306,-0.479041 -0.0066,-0.01171 -0.01084,-0.02451 -0.01757,-0.03617 5e-6,6.97e-4 -5e-6,0.0014 0,0.0021 -0.376391,-0.653251 -0.921682,-1.231102 -1.664498,-1.707389 -0.908129,-0.582285 -1.82128,-1.118164 -2.738851,-1.608171 0.650531,-0.545488 1.122923,-1.113067 1.447457,-1.579748 12.739669,-5.141571 9.426092,-16.681327 3.656107,-17.9952844 0.7998,1.6567284 0.571528,4.5698414 -2.227771,6.6264694 -0.856929,-1.085443 -1.142751,-3.199203 -0.171565,-5.084445 -2.913556,0.114257 -6.055445,3.256553 -6.055445,7.426937 0,3.681143 1.424014,6.160343 -1.384928,8.498706 -1.611452,-0.575831 -3.231633,-1.013029 -4.856551,-1.311548 0.268424,-0.963562 0.419492,-1.939815 0.522448,-2.833935 0.04886,-0.424301 0.08356,-0.833336 0.108004,-1.21543 a 2.7839942,2.7839942 0 0 0 1.514636,-2.477885 2.7839942,2.7839942 0 0 0 -2.783809,-2.783809 2.7839942,2.7839942 0 0 0 -2.783809,2.783809 2.7839942,2.7839942 0 0 0 1.439188,2.438094 c -0.02119,0.303369 -0.04961,0.624432 -0.08785,0.956531 -0.105475,0.915998 -0.304205,1.895507 -0.588077,2.768307 -1.729927,-0.156541 -3.462244,-0.156545 -5.192448,0 -0.283376,-0.87279 -0.481571,-1.852322 -0.587045,-2.768307 -0.03826,-0.332304 -0.06666,-0.653514 -0.08785,-0.957047 a 2.7839942,2.7839942 0 0 0 1.438156,-2.437578 2.7839942,2.7839942 0 0 0 -2.78381,-2.783809 2.7839942,2.7839942 0 0 0 -2.783809,2.783809 2.7839942,2.7839942 0 0 0 1.513602,2.477885 c 0.02445,0.382232 0.05913,0.790949 0.108004,1.21543 0.10296,0.894153 0.254006,1.870339 0.522449,2.833935 -1.624386,0.298461 -3.244087,0.735713 -4.855518,1.311548 -2.808878,-2.338351 -1.384928,-4.817584 -1.384928,-8.498706 0,-4.170384 -3.141888,-7.31268 -6.055444,-7.426937 0.971186,1.885242 0.685363,3.999002 -0.171566,5.084445 -2.799299,-2.056628 -3.027571,-4.969741 -2.227771,-6.6264694 z" /><circle
       style="opacity:1;fill:#ffffff;fill-opacity:1;stroke:none;stroke-width:0.531979;stroke-linecap:round;stroke-linejoin:round;stroke-miterlimit:10"
       id="circle16"
       cx="-28.429537"
       cy="18.164381"
       r="1.2079213"
       transform="scale(-1,1)" /><circle
       style="opacity:1;fill:#ffffff;fill-opacity:1;stroke:none;stroke-width:0.254101;stroke-linecap:round;stroke-linejoin:round;stroke-miterlimit:10"
       id="circle17"
       cx="-30.387983"
       cy="20.310129"
       r="0.59727573"
       transform="scale(-1,1)" /><circle
       style="opacity:1;fill:#ffffff;fill-opacity:1;stroke:none;stroke-width:0.531979;stroke-linecap:round;stroke-linejoin:round;stroke-miterlimit:10"
       id="circle3"
       cx="-37.620392"
       cy="17.936152"
       r="1.2079213"
       transform="scale(-1,1)" /><circle
       style="opacity:1;fill:#ffffff;fill-opacity:1;stroke:none;stroke-width:0.254101;stroke-linecap:round;stroke-linejoin:round;stroke-miterlimit:10"
       id="circle4"
       cx="-39.770107"
       cy="20.19599"
       r="0.59727573"
       transform="scale(-1,1)" /></g></svg>
