<?xml version="1.0" encoding="UTF-8"?>
<!-- Created with Inkscape (http://www.inkscape.org/) -->
<svg id="svg1" width="256" height="256" version="1.1" viewBox="0 0 67.733 67.733" xml:space="preserve" xmlns="http://www.w3.org/2000/svg"><g id="layer1"><path id="rect1" d="m16.279 30.929c-6.2889 4.0324 1.5243 15.314 7.0203 18.487 3.1079 1.7943 6.8643 2.7228 10.567 2.672 3.7026 0.05084 7.4591-0.87767 10.567-2.672 5.496-3.1731 13.309-14.455 7.0203-18.487-11.449-7.3409-23.712-7.3496-35.174 0z" fill="currentColor" stroke-linecap="round" stroke-linejoin="round" stroke-miterlimit="10" stroke-width="2.5677"/><path id="path2" d="m42.621 28.141c4.5703-2.6279 2.7422-5.2558 2.7422-9.4262 0-4.1704 3.1421-7.3125 6.0556-7.4267-0.97119 1.8852-0.68554 3.999 0.17139 5.0844 2.7993-2.0566 3.0278-4.9702 2.228-6.6269 5.77 1.314 9.0834 12.854-3.6562 17.995-0.72093 1.0367-2.1709 2.5708-4.6845 3.2563-2.619 0.71428-2.8564-2.8564-2.8564-2.8564z" fill="currentColor"/><path id="path3" d="m25.112 28.141c-4.5703-2.6279-2.7422-5.2558-2.7422-9.4262 0-4.1704-3.1421-7.3125-6.0556-7.4267 0.97119 1.8852 0.68554 3.999-0.17139 5.0844-2.7993-2.0566-3.0278-4.9702-2.228-6.6269-5.77 1.314-9.0834 12.854 3.6562 17.995 0.72093 1.0367 2.1709 2.5708 4.6845 3.2563 2.619 0.71428 2.8564-2.8564 2.8564-2.8564z" fill="currentColor"/><path id="path4" d="m36.342 28.53c2.4922-2.7575 2.1415-9.1551 2.1415-9.1551" fill="currentColor" fill-opacity=".47677" stroke="currentColor" stroke-linecap="round" stroke-linejoin="round" stroke-miterlimit="10" stroke-width="2.6119"/><circle id="path5" cx="38.483" cy="19.375" r="2.784" fill="#1a1a1a"/><path id="path7" d="m50.958 35.544c6.7994-0.21415 9.4763-5.0861 10.226-10.386" fill="none" stroke="currentColor" stroke-linecap="round" stroke-linejoin="round" stroke-miterlimit="10" stroke-width="2.6119"/><path id="path8" d="m48.067 40.576c4.8748-1.3808 13.468-2.0768 16.101 5.8204" fill="none" stroke="currentColor" stroke-linecap="round" stroke-linejoin="round" stroke-miterlimit="10" stroke-width="2.6119"/><path id="path9" d="m43.728 47.682c9.2135-2.6324 20.079-0.62723 15.742 9.7057" fill="none" stroke="currentColor" stroke-linecap="round" stroke-linejoin="round" stroke-miterlimit="10" stroke-width="2.6119"/><path id="path10" d="m31.391 28.53c-2.4922-2.7575-2.1415-9.1551-2.1415-9.1551" fill="currentColor" fill-opacity=".47677" stroke="currentColor" stroke-linecap="round" stroke-linejoin="round" stroke-miterlimit="10" stroke-width="2.6119"/><circle id="circle10" transform="scale(-1,1)" cx="-29.25" cy="19.375" r="2.784" fill="#1a1a1a"/><path id="path11" d="m16.775 35.544c-6.7994-0.21415-9.4763-5.0861-10.226-10.386" fill="none" stroke="currentColor" stroke-linecap="round" stroke-linejoin="round" stroke-miterlimit="10" stroke-width="2.6119"/><path id="path12" d="m19.667 40.576c-4.8748-1.3808-13.468-2.0768-16.101 5.8204" fill="none" stroke="currentColor" stroke-linecap="round" stroke-linejoin="round" stroke-miterlimit="10" stroke-width="2.6119"/><path id="path13" d="m24.005 47.682c-9.2135-2.6324-20.079-0.62723-15.742 9.7057" fill="none" stroke="currentColor" stroke-linecap="round" stroke-linejoin="round" stroke-miterlimit="10" stroke-width="2.6119"/><path id="path14" d="m16.712 35.333c1.6654-4.091 6.0399-6.051 9.2656-6.6732 3.9328-0.7586 4.5757-0.18965 0.14312 1.514-2.4373 0.93678-5.0564 3.5-6.3471 5.2169-1.2151 1.6163-4.0094 2.2706-3.0616-0.05762z" fill="#fff" fill-opacity=".38609"/><path id="path16" d="m10.263 17.187c0.05833-2.4688 1.1506-4.905 1.1506-0.1211 0 4.7839-1.2078 2.5457-1.1506 0.1211z" fill="#fff" fill-opacity=".38609"/><path id="path19" d="m46.847 16.538c0.86637-2.3125 2.6985-4.2545 1.1265 0.26372-1.5721 4.5182-1.9773 2.0074-1.1265-0.26372z" fill="#fff" fill-opacity=".38609"/><path id="path20" d="m53.118 32.635c0.08078 11.539-20.515 18.284-29.818 16.782 3.1079 1.7943 6.8642 2.723 10.567 2.6722 3.7026 0.05084 7.4589-0.87787 10.567-2.6722 4.8473-2.7986 11.497-11.905 8.6847-16.782z" fill-opacity=".13229"/><path id="path1" d="m13.915 9.7457c-5.77 1.314-9.0836 12.854 3.6561 17.995 0.32453 0.46668 0.79693 1.0343 1.4475 1.5797-0.91747 0.48996-1.8306 1.0258-2.7389 1.6082-1.1723 0.75164-1.8547 1.7555-2.1534 2.9114-1.6163-0.4689-2.8006-1.3209-3.7357-2.4267-1.3905-1.6444-2.1963-3.9477-2.5487-6.4394a1.3059 1.3059 0 0 0-1.4748-1.111 1.3059 1.3059 0 0 0-1.111 1.4764c0.39718 2.8086 1.3052 5.5915 3.1404 7.7618 1.3587 1.6067 3.2444 2.8246 5.6358 3.3962 0.09102 0.62486 0.25077 1.2679 0.46819 1.9187-1.3057-0.04691-2.6568 0.03537-3.9905 0.31213-3.4092 0.70748-6.7293 2.8919-8.184 7.2559a1.3059 1.3059 0 0 0 0.82631 1.65 1.3059 1.3059 0 0 0 1.6526-0.82424c1.1778-3.5333 3.4721-4.9516 6.2363-5.5252 1.4959-0.31044 3.1213-0.31539 4.6622-0.15141 0.81294 1.4928 1.8461 2.95 2.9652 4.2463-0.53998-0.04195-1.0762-0.06595-1.6061-0.07131-2.3815-0.02411-4.6346 0.33145-6.535 1.1679-1.9004 0.83644-3.4769 2.2495-4.1641 4.2385-0.68717 1.989-0.47024 4.4008 0.69505 7.1773a1.3059 1.3059 0 0 0 1.7089 0.69918 1.3059 1.3059 0 0 0 0.69918-1.7089c-1.003-2.3899-1.0529-4.1035-0.63459-5.3144 0.41835-1.2109 1.3206-2.0737 2.7461-2.7011 2.4891-1.0955 6.4831-1.1809 10.38-0.34985 0.45644 0.34564 0.90652 0.64773 1.342 0.89917 0.77696 0.44858 1.5941 0.84326 2.4412 1.1818 2.5413 1.0159 5.3485 1.5285 8.1256 1.4903 3.7026 0.05084 7.4589-0.87787 10.567-2.6722 0.4354-0.25138 0.88571-0.55364 1.342-0.89917 3.8967-0.83132 7.8893-0.74582 10.379 0.34985 1.4255 0.62742 2.3298 1.4902 2.7482 2.7011 0.41835 1.2109 0.36636 2.9245-0.63665 5.3144a1.3059 1.3059 0 0 0 0.69918 1.7089 1.3059 1.3059 0 0 0 1.7089-0.69918c1.1653-2.7766 1.3843-5.1884 0.69712-7.1773-0.68717-1.989-2.2637-3.4021-4.1641-4.2385-1.9004-0.83644-4.1555-1.192-6.5371-1.1679-0.52956 0.0054-1.0654 0.02941-1.6051 0.07131 1.1191-1.2962 2.1523-2.7535 2.9652-4.2463 1.5415-0.16397 3.1674-0.15902 4.6633 0.15141 2.7643 0.57364 5.057 1.992 6.2348 5.5252a1.3059 1.3059 0 0 0 1.6521 0.82424 1.3059 1.3059 0 0 0 0.82631-1.65c-1.4547-4.364-4.7743-6.5484-8.1835-7.2559-1.3333-0.27669-2.6845-0.35897-3.9899-0.31213 0.21744-0.65096 0.37718-1.2938 0.46819-1.9187 2.391-0.57168 4.2763-1.7897 5.6348-3.3962 1.8352-2.1703 2.7437-4.9532 3.1409-7.7618a1.3059 1.3059 0 0 0-1.1095-1.4764 1.3059 1.3059 0 0 0-1.4769 1.111c-0.35236 2.4917-1.1582 4.795-2.5487 6.4394-0.9349 1.1056-2.1188 1.9573-3.7347 2.4262-0.04851-0.18773-0.11115-0.36954-0.18035-0.5488-0.01838-0.0476-0.038-0.09462-0.05788-0.14159-0.06912-0.16334-0.14534-0.32382-0.23306-0.47904-0.0066-0.01171-0.01084-0.02451-0.01757-0.03617 5e-6 6.97e-4 -5e-6 0.0014 0 0.0021-0.37639-0.65325-0.92168-1.2311-1.6645-1.7074-0.90813-0.58228-1.8213-1.1182-2.7389-1.6082 0.65053-0.54549 1.1229-1.1131 1.4475-1.5797 12.74-5.1416 9.4261-16.681 3.6561-17.995 0.7998 1.6567 0.57153 4.5698-2.2278 6.6265-0.85693-1.0854-1.1428-3.1992-0.17156-5.0844-2.9136 0.11426-6.0554 3.2566-6.0554 7.4269 0 3.6811 1.424 6.1603-1.3849 8.4987-1.6115-0.57583-3.2316-1.013-4.8566-1.3115 0.26842-0.96356 0.41949-1.9398 0.52245-2.8339 0.04886-0.4243 0.08356-0.83334 0.108-1.2154a2.784 2.784 0 0 0 1.5146-2.4779 2.784 2.784 0 0 0-2.7838-2.7838 2.784 2.784 0 0 0-2.7838 2.7838 2.784 2.784 0 0 0 1.4392 2.4381c-0.02119 0.30337-0.04961 0.62443-0.08785 0.95653-0.10548 0.916-0.3042 1.8955-0.58808 2.7683-1.7299-0.15654-3.4622-0.15654-5.1924 0-0.28338-0.87279-0.48157-1.8523-0.58704-2.7683-0.03826-0.3323-0.06666-0.65351-0.08785-0.95705a2.784 2.784 0 0 0 1.4382-2.4376 2.784 2.784 0 0 0-2.7838-2.7838 2.784 2.784 0 0 0-2.7838 2.7838 2.784 2.784 0 0 0 1.5136 2.4779c0.02445 0.38223 0.05913 0.79095 0.108 1.2154 0.10296 0.89415 0.25401 1.8703 0.52245 2.8339-1.6244 0.29846-3.2441 0.73571-4.8555 1.3115-2.8089-2.3384-1.3849-4.8176-1.3849-8.4987 0-4.1704-3.1419-7.3127-6.0554-7.4269 0.97119 1.8852 0.68536 3.999-0.17157 5.0844-2.7993-2.0566-3.0276-4.9697-2.2278-6.6265z" fill="none" stroke="#1a1a1a" stroke-linecap="round" stroke-linejoin="round" stroke-miterlimit="10" stroke-width="2"/><circle id="circle16" transform="scale(-1,1)" cx="-28.43" cy="18.164" r="1.2079" fill="#fff"/><circle id="circle17" transform="scale(-1,1)" cx="-30.388" cy="20.31" r=".59728" fill="#fff"/><circle id="circle3" transform="scale(-1,1)" cx="-37.62" cy="17.936" r="1.2079" fill="#fff"/><circle id="circle4" transform="scale(-1,1)" cx="-39.77" cy="20.196" r=".59728" fill="#fff"/></g></svg>
