<?xml version="1.0" encoding="UTF-8" standalone="no"?>
<!-- Created with Inkscape (http://www.inkscape.org/) -->

<svg
   width="256"
   height="256"
   viewBox="0 0 67.733332 67.733333"
   version="1.1"
   id="svg1"
   xml:space="preserve"
   inkscape:version="1.4.3 (0d15f75042, 2025-12-25)"
   sodipodi:docname="crab.svg"
   xmlns:inkscape="http://www.inkscape.org/namespaces/inkscape"
   xmlns:sodipodi="http://sodipodi.sourceforge.net/DTD/sodipodi-0.dtd"
   xmlns="http://www.w3.org/2000/svg"
   xmlns:svg="http://www.w3.org/2000/svg"><sodipodi:namedview
     id="namedview1"
     pagecolor="#ffffff"
     bordercolor="#000000"
     borderopacity="0.25"
     inkscape:showpageshadow="2"
     inkscape:pageopacity="0.0"
     inkscape:pagecheckerboard="0"
     inkscape:deskcolor="#d1d1d1"
     inkscape:document-units="mm"
     showgrid="false"
     inkscape:zoom="1.6003942"
     inkscape:cx="39.990147"
     inkscape:cy="4.9987684"
     inkscape:window-width="1651"
     inkscape:window-height="1541"
     inkscape:window-x="0"
     inkscape:window-y="0"
     inkscape:window-maximized="1"
     inkscape:current-layer="layer1"><inkscape:grid
       id="grid8"
       units="mm"
       originx="0"
       originy="0"
       spacingx="0.99999998"
       spacingy="1"
       empcolor="#0099e5"
       empopacity="0.30196078"
       color="#0099e5"
       opacity="0.14901961"
       empspacing="5"
       enabled="true"
       visible="false" /></sodipodi:namedview><defs
     id="defs1" /><g
     inkscape:label="Layer 1"
     inkscape:groupmode="layer"
     id="layer1"><path
       id="rect1"
       style="opacity:1;fill:currentColor;fill-opacity:1;stroke-width:2.56768;stroke-linecap:round;stroke-linejoin:round;stroke-miterlimit:10"
       d="m 16.279426,30.929308 c -6.2889489,4.032422 1.524332,15.314155 7.02032,18.487265 3.107856,1.794321 6.864283,2.722839 10.566921,2.671987 3.702638,0.05084 7.459066,-0.877666 10.566922,-2.671987 5.495987,-3.17311 13.309268,-14.454843 7.02032,-18.487265 -11.448843,-7.340908 -23.712151,-7.349557 -35.174483,0 z"
       sodipodi:nodetypes="sscsss" /><path
       style="opacity:1;fill:currentColor;fill-opacity:1;stroke:none;stroke-width:2.61186;stroke-linecap:round;stroke-linejoin:round;stroke-miterlimit:10"
       d="m 42.62132,28.141121 c 4.570284,-2.627916 2.742171,-5.255829 2.742171,-9.426214 0,-4.170384 3.142072,-7.312455 6.055628,-7.426712 -0.971186,1.885242 -0.685543,3.998999 0.171386,5.084442 2.799299,-2.056628 3.027813,-4.970185 2.228013,-6.6269134 5.769985,1.3139574 9.083441,12.8539264 -3.656228,17.9954974 -0.720929,1.036698 -2.170885,2.570785 -4.68454,3.256328 -2.619005,0.714275 -2.85643,-2.856428 -2.85643,-2.856428 z"
       id="path2"
       sodipodi:nodetypes="csccccsc" /><path
       style="opacity:1;fill:currentColor;fill-opacity:1;stroke:none;stroke-width:2.61186;stroke-linecap:round;stroke-linejoin:round;stroke-miterlimit:10"
       d="m 25.112013,28.141121 c -4.570284,-2.627916 -2.742171,-5.255829 -2.742171,-9.426214 0,-4.170384 -3.142072,-7.312455 -6.055628,-7.426712 0.971186,1.885242 0.685543,3.998999 -0.171386,5.084442 C 13.343529,14.316009 13.115015,11.402452 13.914815,9.7457236 8.1448301,11.059681 4.8313742,22.59965 17.571043,27.741221 c 0.720929,1.036698 2.170885,2.570785 4.68454,3.256328 2.619005,0.714275 2.85643,-2.856428 2.85643,-2.856428 z"
       id="path3"
       sodipodi:nodetypes="csccccsc" /><path
       style="opacity:1;fill:currentColor;fill-opacity:0.476773;stroke:currentColor;stroke-width:2.61186;stroke-linecap:round;stroke-linejoin:round;stroke-miterlimit:10"
       d="m 36.341925,28.530126 c 2.492214,-2.757485 2.141533,-9.155055 2.141533,-9.155055"
       id="path4" /><circle
       style="opacity:1;fill:#171717;fill-opacity:1;stroke:none;stroke-width:2.61186;stroke-linecap:round;stroke-linejoin:round;stroke-miterlimit:10"
       id="path5"
       cx="38.483452"
       cy="19.375069"
       r="2.7839942" /><path
       style="opacity:1;fill:none;fill-opacity:0.476773;stroke:currentColor;stroke-width:2.61186;stroke-linecap:round;stroke-linejoin:round;stroke-miterlimit:10"
       d="m 50.957895,35.543651 c 6.799368,-0.214152 9.476286,-5.086143 10.225823,-10.38644"
       id="path7" /><path
       style="opacity:1;fill:none;fill-opacity:0.476773;stroke:currentColor;stroke-width:2.61186;stroke-linecap:round;stroke-linejoin:round;stroke-miterlimit:10"
       d="m 48.066821,40.576257 c 4.874846,-1.380816 13.468108,-2.076813 16.100529,5.82045"
       id="path8"
       sodipodi:nodetypes="cc" /><path
       style="opacity:1;fill:none;fill-opacity:0.476773;stroke:currentColor;stroke-width:2.61186;stroke-linecap:round;stroke-linejoin:round;stroke-miterlimit:10"
       d="m 43.728194,47.681627 c 9.213473,-2.632421 20.078903,-0.627231 15.742297,9.705672"
       id="path9"
       sodipodi:nodetypes="cc" /><path
       style="opacity:1;fill:currentColor;fill-opacity:0.476773;stroke:currentColor;stroke-width:2.61186;stroke-linecap:round;stroke-linejoin:round;stroke-miterlimit:10"
       d="M 31.391408,28.530126 C 28.899194,25.772641 29.249875,19.375071 29.249875,19.375071"
       id="path10" /><circle
       style="opacity:1;fill:#171717;fill-opacity:1;stroke:none;stroke-width:2.61186;stroke-linecap:round;stroke-linejoin:round;stroke-miterlimit:10"
       id="circle10"
       cx="-29.249878"
       cy="19.375069"
       r="2.7839942"
       transform="scale(-1,1)" /><path
       style="opacity:1;fill:none;fill-opacity:0.476773;stroke:currentColor;stroke-width:2.61186;stroke-linecap:round;stroke-linejoin:round;stroke-miterlimit:10"
       d="M 16.775438,35.543651 C 9.9760698,35.329499 7.2991517,30.457508 6.5496146,25.157211"
       id="path11" /><path
       style="opacity:1;fill:none;fill-opacity:0.476773;stroke:currentColor;stroke-width:2.61186;stroke-linecap:round;stroke-linejoin:round;stroke-miterlimit:10"
       d="M 19.666512,40.576257 C 14.791666,39.195441 6.1984036,38.499444 3.5659826,46.396707"
       id="path12"
       sodipodi:nodetypes="cc" /><path
       style="opacity:1;fill:none;fill-opacity:0.476773;stroke:currentColor;stroke-width:2.61186;stroke-linecap:round;stroke-linejoin:round;stroke-miterlimit:10"
       d="M 24.005139,47.681627 C 14.791666,45.049206 3.926236,47.054396 8.2628416,57.387299"
       id="path13"
       sodipodi:nodetypes="cc" /><path
       style="opacity:1;fill:#ffffff;fill-opacity:0.386093;stroke:none;stroke-width:2.61186;stroke-linecap:round;stroke-linejoin:round;stroke-miterlimit:10"
       d="m 16.712015,35.333215 c 1.665361,-4.090964 6.039936,-6.05102 9.265596,-6.673225 3.932783,-0.758605 4.575731,-0.189648 0.143123,1.51399 -2.437345,0.936775 -5.056395,3.499985 -6.347126,5.216865 -1.215103,1.616284 -4.009377,2.270606 -3.061593,-0.05762 z"
       id="path14"
       sodipodi:nodetypes="sssss" /><path
       style="opacity:1;fill:#ffffff;fill-opacity:0.386093;stroke:none;stroke-width:2.61186;stroke-linecap:round;stroke-linejoin:round;stroke-miterlimit:10"
       d="m 10.26317,17.187393 c 0.05833,-2.468754 1.150554,-4.904996 1.150554,-0.121104 0,4.783885 -1.20784,2.545681 -1.150554,0.121104 z"
       id="path16"
       sodipodi:nodetypes="sss" /><circle
       style="opacity:1;fill:#ffffff;fill-opacity:0.682159;stroke:none;stroke-width:0.531979;stroke-linecap:round;stroke-linejoin:round;stroke-miterlimit:10"
       id="circle16"
       cx="-27.823044"
       cy="19.028433"
       r="0.56703997"
       transform="scale(-1,1)" /><circle
       style="opacity:1;fill:#ffffff;fill-opacity:0.682159;stroke:none;stroke-width:0.254101;stroke-linecap:round;stroke-linejoin:round;stroke-miterlimit:10"
       id="circle17"
       cx="-28.621851"
       cy="17.990683"
       r="0.27084771"
       transform="scale(-1,1)" /><circle
       style="opacity:1;fill:#ffffff;fill-opacity:0.682159;stroke:none;stroke-width:0.531979;stroke-linecap:round;stroke-linejoin:round;stroke-miterlimit:10"
       id="circle18"
       cx="-36.91523"
       cy="18.836042"
       r="0.56703997"
       transform="scale(-1,1)" /><circle
       style="opacity:1;fill:#ffffff;fill-opacity:0.682159;stroke:none;stroke-width:0.254101;stroke-linecap:round;stroke-linejoin:round;stroke-miterlimit:10"
       id="circle19"
       cx="-37.714039"
       cy="17.798292"
       r="0.27084771"
       transform="scale(-1,1)" /><path
       style="opacity:1;fill:#ffffff;fill-opacity:0.386093;stroke:none;stroke-width:2.61186;stroke-linecap:round;stroke-linejoin:round;stroke-miterlimit:10"
       d="m 46.84707,16.537961 c 0.866372,-2.312476 2.698534,-4.254489 1.126452,0.263717 -1.57208,4.518199 -1.97732,2.007379 -1.126452,-0.263717 z"
       id="path19"
       sodipodi:nodetypes="sss" /><path
       id="path20"
       style="opacity:1;fill:#000000;fill-opacity:0.1322937;stroke:none;stroke-width:1.98438;stroke-linecap:round;stroke-linejoin:round;stroke-miterlimit:10"
       d="m 53.118205,32.634701 c 0.08078,11.539302 -20.51539,18.284098 -29.818335,16.781921 3.107856,1.794321 6.864159,2.72304 10.566797,2.672188 3.702638,0.05084 7.458941,-0.877867 10.566797,-2.672188 4.847285,-2.798582 11.497048,-11.904848 8.684741,-16.781921 z"
       sodipodi:nodetypes="cccsc" /></g></svg>
