<?xml version="1.0" encoding="UTF-8"?>
<!-- Created with Inkscape (http://www.inkscape.org/) -->
<svg id="svg1" width="256" height="256" version="1.1" viewBox="0 0 67.733 67.733" xml:space="preserve" xmlns="http://www.w3.org/2000/svg"><g id="layer1"><ellipse id="path1-6-7" cx="23.379" cy="50.002" rx="11.635" ry="11.639" fill="currentColor" stroke="#1a1a1a" stroke-linecap="round" stroke-linejoin="round" stroke-width="2"/><ellipse id="path1-6-2" cx="44.345" cy="49.954" rx="11.635" ry="11.639" fill="currentColor" stroke="#1a1a1a" stroke-linecap="round" stroke-linejoin="round" stroke-width="2"/><ellipse id="path1-6-9" cx="50.816" cy="29.989" rx="11.635" ry="11.639" fill="currentColor" stroke="#1a1a1a" stroke-linecap="round" stroke-linejoin="round" stroke-width="2"/><ellipse id="path1-6-6" cx="33.897" cy="17.731" rx="11.635" ry="11.639" fill="currentColor" stroke="#1a1a1a" stroke-linecap="round" stroke-linejoin="round" stroke-width="2"/><path id="path1-6-1" d="m28.552 29.969c0 3.3015-0.60288 9.097-3.5813 8.4003-0.08274-0.01935-1.0655 0.03412-2.7864 0.05223-0.86264 0.0091-2.7637 0.53483-3.86 1.0999-1.8641 0.96081-2.3661 1.4923-2.9075 1.9812-0.05068 0.04577 0.05023 0.01651-0.0043 0.0094-5.7153-0.73804-10.131-5.6247-10.131-11.543 0-6.4283 5.2092-11.639 11.635-11.639s11.635 5.2112 11.635 11.639z" fill="currentColor" stroke="#1a1a1a" stroke-linecap="round" stroke-linejoin="round" stroke-width="2"/><ellipse id="path1" cx="33.798" cy="35.32" rx="12.325" ry="12.33" stroke-width="0"/><path id="path2" d="m23.641 16.768c3.4797 2.1382 4.5072 3.102 7.2051 6.9315l-2.1211 0.76526c-1.6349-2.9013-2.5558-3.9039-5.0609-5.6242z" fill-opacity=".2" stroke-width="0"/><path id="path2-3" d="m48.55 19.918c-0.91109 3.9824-1.4949 5.2646-4.2579 9.0473l-1.4037-1.7653c2.2243-2.4782 2.879-3.6719 3.7062-6.5968z" fill-opacity=".2" stroke-width="0"/><path id="path2-9" d="m53.158 44.644c-4.0715 0.3165-5.469 0.14107-9.9018-1.3704l1.2663-1.8664c3.0275 1.3857 4.3616 1.6552 7.399 1.5737z" fill-opacity=".2" stroke-width="0"/><path id="path2-96" d="m31.173 56.743c-1.5536-3.7782-1.8166-5.1624-1.7427-9.8467l2.1648 0.63115c-0.38663 3.308-0.23258 4.6608 0.77935 7.527z" fill-opacity=".2" stroke-width="0"/><path id="path2-1" d="m12.948 39.483c3.1201-2.6358 4.3569-3.3099 8.8375-4.673l0.06183 2.2549c-3.2664 0.64412-4.5067 1.2048-6.9247 3.0457z" fill-opacity=".2" stroke-width="0"/></g></svg>
