<?xml version="1.0" encoding="UTF-8"?>
<!-- Created with Inkscape (http://www.inkscape.org/) -->
<svg width="256" height="256" version="1.1" viewBox="0 0 67.733 67.733" xmlns="http://www.w3.org/2000/svg">
 <g stroke-linejoin="round" stroke-width="2">
  <path d="m24.741 15.739c-6.0401 20.319 21.593 19.354 18.494 2.6959-2.7682-14.88-12.961-21.31-18.494-2.6959z" fill="var(--avatar-main)" stroke="#1a1a1a"/>
  <path d="m24.741 15.74c-2.6245 16.363 7.0465 13.803 10.376 14.226 1.9866 0.25262 9.5555 4.0373 7.5443-14.815 0 0-6.9766 5.9645-8.6704 5.9184-1.6027-0.04359-9.2503-5.3304-9.2503-5.3304z" fill="var(--avatar-shadow)"/>
  <path d="m41.894 36.434c-2.7914-1.7785-5.8124-4.0141-8.9369-7.0916-5.1044-5.0277-6.1193-17.48-17.664-23.006 0 0-8.4985 28.568-3.2568 40.727 0.84447 1.9587 2.493 3.9952 4.7249 6.0099 8.2149 7.4154 35.027-10.334 25.133-16.639z" fill="var(--avatar-main)" stroke="#1a1a1a"/>
  <path d="m12.943 47.597c-0.55261-1.5588-2.4063-6.8903-2.4063-6.8903 5.8377-3.3553 16.356-7.6075 21.023-13.042 0.01546-9e-3 2.0319 2.708 2.0319 2.708-11.258 8.035-18.805 10.673-20.649 17.225z" fill="var(--avatar-shadow)"/>
  <path d="m41.894 36.434c-2.7914-1.7785-5.8124-4.0141-8.9369-7.0916-5.1044-5.0277-6.1193-17.48-17.664-23.006 0 0-8.4985 28.568-3.2568 40.727 0.84447 1.9587 2.493 3.9952 4.7249 6.0099 8.2149 7.4154 35.027-10.334 25.133-16.639z" fill="none" stroke="#1a1a1a"/>
  <path d="m12.984 53.688c-1.909-15.336 7.6999-10.527 21.859-24.515 5.0896-5.0281 6.1015-17.481 17.613-23.008 0 0 8.4738 28.571 3.2473 40.73-3.9412 9.1689-22.728 14.019-39.225 16.391 0 0-3.1868-5.8834-3.4942-9.598z" fill="var(--avatar-main)" stroke="#1a1a1a"/>
  <path d="m14.647 59.41c13.72-0.6275 21.989-3.1931 29.085-7.3536 10.097-5.9205 13.543-19.862 13.543-19.862 0.19515 1.0725-0.29985 4.9531-0.05446 8.1215 1.1812 15.252-31.246 21.339-40.742 22.97-0.78634-1.4097-1.0857-2.1884-1.8316-3.8765z" fill="var(--avatar-shadow)"/>
  <path d="m12.984 53.688c-1.909-15.336 7.6999-10.527 21.859-24.515 5.0896-5.0281 6.1015-17.481 17.613-23.008 0 0 8.4738 28.571 3.2473 40.73-3.9412 9.1689-22.728 14.019-39.225 16.391 0 0-3.1868-5.8834-3.4942-9.598z" fill="none" stroke="#1a1a1a"/>
 </g>
</svg>
