<?xml version="1.0" encoding="UTF-8"?>
<!-- Created with Inkscape (http://www.inkscape.org/) -->
<svg id="svg1" width="256" height="256" version="1.1" viewBox="0 0 67.733 67.733" xmlns="http://www.w3.org/2000/svg">
 <path id="path1-8-8-5-3" d="m24.741 15.739c-6.0401 20.319 21.593 19.354 18.494 2.6959-2.7682-14.88-12.961-21.31-18.494-2.6959z" fill="currentColor" stroke="#1a1a1a" stroke-linejoin="round" stroke-width="2"/>
 <path id="path1-8-8-5-3-5" d="m27.22 15.53c-1.8984 4.6944 4.5676 14.013 7.8974 14.436 1.9866 0.25262 6.5202-9.1966 5.0654-14.605 0 0-4.4977 5.7545-6.1915 5.7084-1.6027-0.04359-6.7714-5.5397-6.7714-5.5397z" fill-opacity=".20769" stroke-linejoin="round" stroke-width="2"/>
 <path id="path1-8-1" d="m41.894 36.434c-2.7914-1.7785-5.8124-4.0141-8.9369-7.0916-5.1044-5.0277-6.1193-17.48-17.664-23.006 0 0-8.4985 28.568-3.2568 40.727 0.84447 1.9587 2.493 3.9952 4.7249 6.0099 8.2149 7.4154 35.027-10.334 25.133-16.639z" fill="currentColor" stroke="#1a1a1a" stroke-linejoin="round" stroke-width="2"/>
 <path id="path1-8" d="m12.984 53.688c-1.909-15.336 7.6999-10.527 21.859-24.515 5.0896-5.0281 6.1015-17.481 17.613-23.008 0 0 8.4738 28.571 3.2473 40.73-3.9412 9.1689-22.728 14.019-39.225 16.391 0 0-3.1868-5.8834-3.4942-9.598z" fill="currentColor" stroke="#1a1a1a" stroke-linejoin="round" stroke-width="2"/>
 <path id="path1-8-93" d="m17.27 61.719c-0.76248-1.5065-1.2615-2.7344-1.2615-2.7344 8.426 2.0978 22.063-4.5167 27.723-6.9287 9.2159-3.9274 12.379-19.498 12.379-19.498 0.19515 1.0725-0.28566 4.7194-0.04027 7.8878 1.1812 15.252-29.305 19.642-38.801 21.273z" fill-opacity=".20769" stroke-linejoin="round" stroke-width="2"/>
 <path id="path1-8-93-9" d="m12.591 44.126c-0.55261-1.5588-0.67418-3.9172-0.67418-3.9172 5.8377-3.3553 13.041-8.6741 18.372-11.74 0.01546-9e-3 1.4068 1.7155 1.4068 1.7155-2.6252 2.549-6.5658 5.0902-13.23 8.7093-2.1021 1.1416-4.5638 2.9579-5.875 5.2329z" fill-opacity=".20769" stroke-linejoin="round" stroke-width="2"/>
</svg>
