<?xml version="1.0" encoding="UTF-8" standalone="no"?>
<!-- Created with Inkscape (http://www.inkscape.org/) -->

<svg
   width="256"
   height="256"
   viewBox="0 0 67.733334 67.733333"
   version="1.1"
   id="svg1"
   xml:space="preserve"
   inkscape:version="1.4.3 (0d15f75042, 2025-12-25)"
   sodipodi:docname="flower.svg"
   xmlns:inkscape="http://www.inkscape.org/namespaces/inkscape"
   xmlns:sodipodi="http://sodipodi.sourceforge.net/DTD/sodipodi-0.dtd"
   xmlns="http://www.w3.org/2000/svg"
   xmlns:svg="http://www.w3.org/2000/svg"><sodipodi:namedview
     id="namedview1"
     pagecolor="#ffffff"
     bordercolor="#000000"
     borderopacity="0.25"
     inkscape:showpageshadow="2"
     inkscape:pageopacity="0.0"
     inkscape:pagecheckerboard="0"
     inkscape:deskcolor="#d1d1d1"
     inkscape:document-units="mm"
     inkscape:zoom="1.7123314"
     inkscape:cx="170.81974"
     inkscape:cy="134.02779"
     inkscape:window-width="2560"
     inkscape:window-height="1600"
     inkscape:window-x="0"
     inkscape:window-y="0"
     inkscape:window-maximized="1"
     inkscape:current-layer="layer1" /><defs
     id="defs1" /><g
     inkscape:label="Layer 1"
     inkscape:groupmode="layer"
     id="layer1"><ellipse
       style="fill:currentColor;fill-opacity:1;stroke:#1a1a1a;stroke-width:2;stroke-dasharray:none;stroke-linejoin:round;stroke-linecap:round"
       id="path1-6-7"
       cx="23.378645"
       cy="50.002388"
       rx="11.635062"
       ry="11.639473" /><ellipse
       style="fill:currentColor;fill-opacity:1;stroke:#1a1a1a;stroke-width:2;stroke-dasharray:none;stroke-linejoin:round;stroke-linecap:round"
       id="path1-6-2"
       cx="44.345367"
       cy="49.953629"
       rx="11.635062"
       ry="11.639473" /><ellipse
       style="fill:currentColor;fill-opacity:1;stroke:#1a1a1a;stroke-width:2;stroke-dasharray:none;stroke-linejoin:round;stroke-linecap:round"
       id="path1-6-9"
       cx="50.816055"
       cy="29.988705"
       rx="11.635062"
       ry="11.639473" /><ellipse
       style="fill:currentColor;fill-opacity:1;stroke:#1a1a1a;stroke-width:2;stroke-dasharray:none;stroke-linejoin:round;stroke-linecap:round"
       id="path1-6-6"
       cx="33.896923"
       cy="17.730949"
       rx="11.635062"
       ry="11.639473" /><path
       id="path1-6-1"
       style="fill:currentColor;fill-opacity:1;stroke:#1a1a1a;stroke-width:2;stroke-dasharray:none;stroke-linejoin:round;stroke-linecap:round"
       d="m 28.55239,29.968797 c 0,3.301498 -0.602883,9.096974 -3.581259,8.400282 -0.08274,-0.01935 -1.065527,0.03412 -2.786362,0.05223 -0.862642,0.0091 -2.763744,0.534829 -3.860037,1.099887 -1.864114,0.960811 -2.366105,1.49234 -2.907451,1.981207 -0.05068,0.04577 0.05023,0.01651 -0.0043,0.0094 C 9.6977235,40.773764 5.2822179,35.887093 5.2822179,29.968734 c 0,-6.428303 5.2091951,-11.639473 11.6350621,-11.639473 6.425867,0 11.635061,5.21117 11.635061,11.639473 z"
       sodipodi:nodetypes="ssssssssss" /><ellipse
       style="fill:#000000;fill-opacity:1;stroke:#1a1a1a;stroke-width:0;stroke-linejoin:round;stroke-linecap:round"
       id="path1"
       cx="33.797527"
       cy="35.319576"
       rx="12.324847"
       ry="12.32952" /><path
       style="fill:#000000;fill-opacity:0.2;stroke:#1a1a1a;stroke-width:0;stroke-dasharray:none;stroke-linejoin:round;stroke-linecap:round"
       d="m 23.641334,16.768364 c 3.479739,2.138248 4.507208,3.101998 7.205067,6.931462 l -2.121139,0.765255 c -1.634911,-2.901319 -2.555783,-3.90389 -5.06091,-5.624187 z"
       id="path2"
       sodipodi:nodetypes="ccccc" /><path
       style="fill:#000000;fill-opacity:0.2;stroke:#1a1a1a;stroke-width:0;stroke-dasharray:none;stroke-linejoin:round;stroke-linecap:round"
       d="m 48.550389,19.918206 c -0.911086,3.982357 -1.494881,5.264632 -4.257869,9.047338 l -1.403705,-1.765329 c 2.224272,-2.478202 2.878956,-3.671878 3.706209,-6.596766 z"
       id="path2-3"
       sodipodi:nodetypes="ccccc" /><path
       style="fill:#000000;fill-opacity:0.2;stroke:#1a1a1a;stroke-width:0;stroke-dasharray:none;stroke-linejoin:round;stroke-linecap:round"
       d="m 53.157531,44.644239 c -4.071502,0.316501 -5.469016,0.141066 -9.901779,-1.370391 l 1.266283,-1.866433 c 3.027466,1.38568 4.361559,1.655211 7.399024,1.573726 z"
       id="path2-9"
       sodipodi:nodetypes="ccccc" /><path
       style="fill:#000000;fill-opacity:0.2;stroke:#1a1a1a;stroke-width:0;stroke-dasharray:none;stroke-linejoin:round;stroke-linecap:round"
       d="m 31.173485,56.743013 c -1.553568,-3.778157 -1.816623,-5.162375 -1.742681,-9.84674 l 2.164798,0.631151 c -0.38663,3.308022 -0.23258,4.660815 0.779349,7.527008 z"
       id="path2-96"
       sodipodi:nodetypes="ccccc" /><path
       style="fill:#000000;fill-opacity:0.2;stroke:#1a1a1a;stroke-width:0;stroke-dasharray:none;stroke-linejoin:round;stroke-linecap:round"
       d="m 12.947757,39.483025 c 3.120099,-2.635804 4.356906,-3.309937 8.837471,-4.67305 l 0.06183,2.254868 c -3.26644,0.644118 -4.5067,1.204821 -6.924674,3.045692 z"
       id="path2-1"
       sodipodi:nodetypes="ccccc" /></g></svg>
