<?xml version="1.0" encoding="UTF-8"?>
<!-- Created with Inkscape (http://www.inkscape.org/) -->
<svg width="256" height="256" version="1.1" viewBox="0 0 67.733 67.733" xml:space="preserve" xmlns="http://www.w3.org/2000/svg"><path d="m33.897 6.0921a11.635 11.639 0 0 0-11.635 11.639 11.635 11.639 0 0 0 0.13384 1.7585 11.639 11.635 18 0 1 6.2787 8.6418 11.635 11.639 0 0 0 5.2224 1.2387 11.635 11.639 0 0 0 11.635-11.639 11.635 11.639 0 0 0-11.635-11.639z" fill="var(--avatar-main)"/><path d="m22.349 16.312a11.635 11.639 0 0 0-0.086816 1.4195 11.635 11.639 0 0 0 0.13384 1.7585 11.639 11.635 18 0 1 6.2781 8.6413 11.635 11.639 0 0 0 2.9182 1.0082c-0.32861-5.8372-4.0608-10.764-9.2433-12.828z" fill="var(--avatar-shadow)"/><path d="m33.897 6.0921a11.635 11.639 0 0 0-11.635 11.639 11.635 11.639 0 0 0 0.13384 1.7585 11.639 11.635 18 0 1 6.2787 8.6418 11.635 11.639 0 0 0 5.2224 1.2387 11.635 11.639 0 0 0 11.635-11.639 11.635 11.639 0 0 0-11.635-11.639z" fill="none" stroke="#1a1a1a" stroke-width="2"/><g transform="rotate(-72 33.798 35.32)"><path d="m33.897 6.0921a11.635 11.639 0 0 0-11.635 11.639 11.635 11.639 0 0 0 0.13384 1.7585 11.639 11.635 18 0 1 6.2787 8.6418 11.635 11.639 0 0 0 5.2224 1.2387 11.635 11.639 0 0 0 11.635-11.639 11.635 11.639 0 0 0-11.635-11.639z" fill="var(--avatar-main)"/><path d="m22.349 16.312a11.635 11.639 0 0 0-0.08682 1.4195 11.635 11.639 0 0 0 0.13384 1.7585 11.639 11.635 18 0 1 6.2781 8.6413 11.635 11.639 0 0 0 2.9182 1.0082c-0.3286-5.8372-4.0608-10.764-9.2433-12.828z" fill="var(--avatar-shadow)"/><path d="m33.897 6.0921a11.635 11.639 0 0 0-11.635 11.639 11.635 11.639 0 0 0 0.13384 1.7585 11.639 11.635 18 0 1 6.2787 8.6418 11.635 11.639 0 0 0 5.2224 1.2387 11.635 11.639 0 0 0 11.635-11.639 11.635 11.639 0 0 0-11.635-11.639z" fill="none" stroke="#1a1a1a" stroke-width="2"/></g><g transform="rotate(216 33.798 35.32)"><path d="m33.897 6.0921a11.635 11.639 0 0 0-11.635 11.639 11.635 11.639 0 0 0 0.13384 1.7585 11.639 11.635 18 0 1 6.2787 8.6418 11.635 11.639 0 0 0 5.2224 1.2387 11.635 11.639 0 0 0 11.635-11.639 11.635 11.639 0 0 0-11.635-11.639z" fill="var(--avatar-main)"/><path d="m22.349 16.312a11.635 11.639 0 0 0-0.08682 1.4195 11.635 11.639 0 0 0 0.13384 1.7585 11.639 11.635 18 0 1 6.2781 8.6413 11.635 11.639 0 0 0 2.9182 1.0082c-0.3286-5.8372-4.0608-10.764-9.2433-12.828z" fill="var(--avatar-shadow)"/><path d="m33.897 6.0921a11.635 11.639 0 0 0-11.635 11.639 11.635 11.639 0 0 0 0.13384 1.7585 11.639 11.635 18 0 1 6.2787 8.6418 11.635 11.639 0 0 0 5.2224 1.2387 11.635 11.639 0 0 0 11.635-11.639 11.635 11.639 0 0 0-11.635-11.639z" fill="none" stroke="#1a1a1a" stroke-width="2"/></g><g transform="rotate(144 33.798 35.32)"><path d="m33.897 6.0921a11.635 11.639 0 0 0-11.635 11.639 11.635 11.639 0 0 0 0.13384 1.7585 11.639 11.635 18 0 1 6.2787 8.6418 11.635 11.639 0 0 0 5.2224 1.2387 11.635 11.639 0 0 0 11.635-11.639 11.635 11.639 0 0 0-11.635-11.639z" fill="var(--avatar-main)"/><path d="m22.349 16.312a11.635 11.639 0 0 0-0.08682 1.4195 11.635 11.639 0 0 0 0.13384 1.7585 11.639 11.635 18 0 1 6.2781 8.6413 11.635 11.639 0 0 0 2.9182 1.0082c-0.3286-5.8372-4.0608-10.764-9.2433-12.828z" fill="var(--avatar-shadow)"/><path d="m33.897 6.0921a11.635 11.639 0 0 0-11.635 11.639 11.635 11.639 0 0 0 0.13384 1.7585 11.639 11.635 18 0 1 6.2787 8.6418 11.635 11.639 0 0 0 5.2224 1.2387 11.635 11.639 0 0 0 11.635-11.639 11.635 11.639 0 0 0-11.635-11.639z" fill="none" stroke="#1a1a1a" stroke-width="2"/></g><g transform="rotate(72 33.798 35.32)"><path d="m33.897 6.0921a11.635 11.639 0 0 0-11.635 11.639 11.635 11.639 0 0 0 0.13384 1.7585 11.639 11.635 18 0 1 6.2787 8.6418 11.635 11.639 0 0 0 5.2224 1.2387 11.635 11.639 0 0 0 11.635-11.639 11.635 11.639 0 0 0-11.635-11.639z" fill="var(--avatar-main)"/><path d="m22.349 16.312a11.635 11.639 0 0 0-0.08682 1.4195 11.635 11.639 0 0 0 0.13384 1.7585 11.639 11.635 18 0 1 6.2781 8.6413 11.635 11.639 0 0 0 2.9182 1.0082c-0.3286-5.8372-4.0608-10.764-9.2433-12.828z" fill="var(--avatar-shadow)"/><path d="m33.897 6.0921a11.635 11.639 0 0 0-11.635 11.639 11.635 11.639 0 0 0 0.13384 1.7585 11.639 11.635 18 0 1 6.2787 8.6418 11.635 11.639 0 0 0 5.2224 1.2387 11.635 11.639 0 0 0 11.635-11.639 11.635 11.639 0 0 0-11.635-11.639z" fill="none" stroke="#1a1a1a" stroke-width="2"/></g><ellipse cx="33.798" cy="35.32" rx="12.325" ry="12.33" stroke-width="0"/></svg>
