<?xml version="1.0" encoding="UTF-8" standalone="no"?>
<!-- Created with Inkscape (http://www.inkscape.org/) -->

<svg
   width="256"
   height="256"
   viewBox="0 0 67.733332 67.733333"
   version="1.1"
   id="svg1"
   xml:space="preserve"
   sodipodi:docname="frog.svg"
   inkscape:version="1.4.3 (0d15f75042, 2025-12-25)"
   xmlns:inkscape="http://www.inkscape.org/namespaces/inkscape"
   xmlns:sodipodi="http://sodipodi.sourceforge.net/DTD/sodipodi-0.dtd"
   xmlns="http://www.w3.org/2000/svg"
   xmlns:svg="http://www.w3.org/2000/svg"><sodipodi:namedview
     id="namedview1"
     pagecolor="#ffffff"
     bordercolor="#000000"
     borderopacity="0.25"
     inkscape:showpageshadow="2"
     inkscape:pageopacity="0.0"
     inkscape:pagecheckerboard="0"
     inkscape:deskcolor="#d1d1d1"
     inkscape:document-units="mm"
     showguides="false"
     inkscape:zoom="1.0336318"
     inkscape:cx="302.81575"
     inkscape:cy="-47.40566"
     inkscape:window-width="1651"
     inkscape:window-height="1541"
     inkscape:window-x="0"
     inkscape:window-y="0"
     inkscape:window-maximized="1"
     inkscape:current-layer="layer1"><sodipodi:guide
       position="36.757003,59.403556"
       orientation="1,0"
       id="guide13"
       inkscape:locked="false" /></sodipodi:namedview><defs
     id="defs1" /><g
     inkscape:label="Layer 1"
     inkscape:groupmode="layer"
     id="layer1"><ellipse
       style="fill:currentColor;fill-opacity:1;stroke:none;stroke-width:2.10742;stroke-linecap:round;stroke-linejoin:round;stroke-miterlimit:10"
       id="path23"
       cx="33.866665"
       cy="38.506081"
       rx="31.072153"
       ry="20.631243" /><circle
       style="fill:currentColor;fill-opacity:1;stroke-width:3.56795;stroke-linecap:round;stroke-linejoin:round;stroke-miterlimit:10"
       id="path4"
       cx="19.178303"
       cy="21.906796"
       r="11.825053" /><circle
       style="fill:#1a1a1a;fill-opacity:1;stroke-width:2.81887;stroke-linecap:round;stroke-linejoin:round;stroke-miterlimit:10"
       id="circle5"
       cx="19.178303"
       cy="21.906796"
       r="9.3424263" /><circle
       style="fill:#ffffff;fill-opacity:1;stroke-width:1.17305;stroke-linecap:round;stroke-linejoin:round;stroke-miterlimit:10"
       id="circle6"
       cx="16.913248"
       cy="19.787445"
       r="3.8877804" /><circle
       style="fill:#ffffff;fill-opacity:1;stroke-width:0.45487;stroke-linecap:round;stroke-linejoin:round;stroke-miterlimit:10"
       id="circle7"
       cx="22.99173"
       cy="25.562"
       r="1.5075499" /><circle
       style="fill:currentColor;fill-opacity:1;stroke-width:3.56795;stroke-linecap:round;stroke-linejoin:round;stroke-miterlimit:10"
       id="circle10"
       cx="48.555031"
       cy="21.906796"
       r="11.825053" /><circle
       style="fill:#1a1a1a;fill-opacity:1;stroke-width:2.81887;stroke-linecap:round;stroke-linejoin:round;stroke-miterlimit:10"
       id="circle11"
       cx="48.555031"
       cy="21.906796"
       r="9.3424263" /><circle
       style="fill:#ffffff;fill-opacity:1;stroke-width:1.17305;stroke-linecap:round;stroke-linejoin:round;stroke-miterlimit:10"
       id="circle12"
       cx="46.289974"
       cy="19.787445"
       r="3.8877804" /><circle
       style="fill:#ffffff;fill-opacity:1;stroke-width:0.45487;stroke-linecap:round;stroke-linejoin:round;stroke-miterlimit:10"
       id="circle13"
       cx="52.368454"
       cy="25.562"
       r="1.5075499" /><path
       id="path24"
       style="fill:#fffad9;fill-opacity:0.55737811;stroke:none;stroke-width:1.98438;stroke-linecap:round;stroke-linejoin:round;stroke-miterlimit:10"
       d="m 2.7946615,38.506177 c -4.66e-5,11.394304 13.9113535,20.631245 31.0720055,20.631299 17.160651,-5.4e-5 31.072052,-9.236995 31.072005,-20.631299 -14.579164,12.61262 -49.235391,12.779679 -62.1440105,0 z"
       sodipodi:nodetypes="cccc" /><path
       style="fill:none;fill-opacity:0.217648;stroke:#1a1a1a;stroke-width:2.24835;stroke-linecap:round;stroke-linejoin:round;stroke-miterlimit:10"
       id="path19"
       sodipodi:type="arc"
       sodipodi:cx="33.866665"
       sodipodi:cy="33.32069"
       sodipodi:rx="3.0706658"
       sodipodi:ry="3.0706658"
       sodipodi:start="0.52359878"
       sodipodi:end="2.6179939"
       sodipodi:arc-type="arc"
       d="M 36.52594,34.856023 A 3.0706658,3.0706658 0 0 1 33.866665,36.391356 3.0706658,3.0706658 0 0 1 31.20739,34.856023"
       sodipodi:open="true" /><path
       id="ellipse25"
       style="fill:none;fill-opacity:1;stroke:#1a1a1a;stroke-width:2;stroke-linecap:round;stroke-linejoin:round;stroke-miterlimit:10;stroke-opacity:1;stroke-dasharray:none;paint-order:normal"
       d="M 19.178158 10.081555 A 11.825053 11.825053 0 0 0 7.3530396 21.906673 A 11.825053 11.825053 0 0 0 8.3731323 26.711031 A 31.072153 20.631243 0 0 0 2.7946615 38.506177 A 31.072153 20.631243 0 0 0 33.866667 59.137476 A 31.072153 20.631243 0 0 0 64.938672 38.506177 A 31.072153 20.631243 0 0 0 59.360201 26.711031 A 11.825053 11.825053 0 0 0 60.380294 21.906673 A 11.825053 11.825053 0 0 0 48.555176 10.081555 A 11.825053 11.825053 0 0 0 37.390999 18.008203 A 31.072153 20.631243 0 0 0 33.866667 17.874878 A 31.072153 20.631243 0 0 0 30.342334 18.008203 A 11.825053 11.825053 0 0 0 19.178158 10.081555 z " /></g></svg>
