<?xml version="1.0" encoding="UTF-8"?>
<!-- Created with Inkscape (http://www.inkscape.org/) -->
<svg id="svg1" width="256" height="256" version="1.1" viewBox="0 0 67.733 67.733" xml:space="preserve" xmlns="http://www.w3.org/2000/svg"><g id="layer1"><ellipse id="path23" cx="33.867" cy="38.506" rx="31.072" ry="20.631" fill="currentColor"/><circle id="path4" cx="19.178" cy="21.907" r="11.825" fill="currentColor" stroke-linecap="round" stroke-linejoin="round" stroke-miterlimit="10" stroke-width="3.568"/><circle id="circle5" cx="19.178" cy="21.907" r="9.3424" fill="#1a1a1a" stroke-linecap="round" stroke-linejoin="round" stroke-miterlimit="10" stroke-width="2.8189"/><circle id="circle6" cx="16.913" cy="19.787" r="3.8878" fill="#fff" stroke-linecap="round" stroke-linejoin="round" stroke-miterlimit="10" stroke-width="1.173"/><circle id="circle7" cx="22.992" cy="25.562" r="1.5075" fill="#fff" stroke-linecap="round" stroke-linejoin="round" stroke-miterlimit="10" stroke-width=".45487"/><circle id="circle10" cx="48.555" cy="21.907" r="11.825" fill="currentColor" stroke-linecap="round" stroke-linejoin="round" stroke-miterlimit="10" stroke-width="3.568"/><circle id="circle11" cx="48.555" cy="21.907" r="9.3424" fill="#1a1a1a" stroke-linecap="round" stroke-linejoin="round" stroke-miterlimit="10" stroke-width="2.8189"/><circle id="circle12" cx="46.29" cy="19.787" r="3.8878" fill="#fff" stroke-linecap="round" stroke-linejoin="round" stroke-miterlimit="10" stroke-width="1.173"/><circle id="circle13" cx="52.368" cy="25.562" r="1.5075" fill="#fff" stroke-linecap="round" stroke-linejoin="round" stroke-miterlimit="10" stroke-width=".45487"/><path id="path24" d="m2.7947 38.506c-4.66e-5 11.394 13.911 20.631 31.072 20.631 17.161-5.4e-5 31.072-9.237 31.072-20.631-14.579 12.613-49.235 12.78-62.144 0z" fill="#fffad9" fill-opacity=".55738"/><path id="path19" d="m36.526 34.856a3.0707 3.0707 0 0 1-2.6593 1.5353 3.0707 3.0707 0 0 1-2.6593-1.5353" fill="none" stroke="#1a1a1a" stroke-linecap="round" stroke-linejoin="round" stroke-miterlimit="10" stroke-width="2.2484"/><path id="ellipse25" d="m19.178 10.082a11.825 11.825 0 0 0-11.825 11.825 11.825 11.825 0 0 0 1.0201 4.8044 31.072 20.631 0 0 0-5.5785 11.795 31.072 20.631 0 0 0 31.072 20.631 31.072 20.631 0 0 0 31.072-20.631 31.072 20.631 0 0 0-5.5785-11.795 11.825 11.825 0 0 0 1.0201-4.8044 11.825 11.825 0 0 0-11.825-11.825 11.825 11.825 0 0 0-11.164 7.9266 31.072 20.631 0 0 0-3.5243-0.13332 31.072 20.631 0 0 0-3.5243 0.13332 11.825 11.825 0 0 0-11.164-7.9266z" fill="none" stroke="#1a1a1a" stroke-linecap="round" stroke-linejoin="round" stroke-miterlimit="10" stroke-width="2" style="paint-order:normal"/></g></svg>
