<?xml version="1.0" encoding="UTF-8" standalone="no"?>
<!-- Created with Inkscape (http://www.inkscape.org/) -->

<svg
   width="256"
   height="256"
   viewBox="0 0 67.733332 67.733333"
   version="1.1"
   id="svg1"
   xml:space="preserve"
   inkscape:version="1.4.3 (0d15f75042, 2025-12-25)"
   sodipodi:docname="ghost.svg"
   xmlns:inkscape="http://www.inkscape.org/namespaces/inkscape"
   xmlns:sodipodi="http://sodipodi.sourceforge.net/DTD/sodipodi-0.dtd"
   xmlns="http://www.w3.org/2000/svg"
   xmlns:svg="http://www.w3.org/2000/svg"><sodipodi:namedview
     id="namedview1"
     pagecolor="#ffffff"
     bordercolor="#000000"
     borderopacity="0.25"
     inkscape:showpageshadow="2"
     inkscape:pageopacity="0.0"
     inkscape:pagecheckerboard="0"
     inkscape:deskcolor="#d1d1d1"
     inkscape:document-units="mm"
     showguides="true"
     inkscape:zoom="4.6689828"
     inkscape:cx="136.21811"
     inkscape:cy="151.10358"
     inkscape:window-width="2544"
     inkscape:window-height="1541"
     inkscape:window-x="0"
     inkscape:window-y="0"
     inkscape:window-maximized="1"
     inkscape:current-layer="layer1"
     showgrid="false" /><defs
     id="defs1" /><g
     inkscape:label="Layer 1"
     inkscape:groupmode="layer"
     id="layer1"><path
       id="path1"
       style="fill:currentColor;fill-opacity:1;stroke:#1a1a1a;stroke-width:1.99999;stroke-linecap:round;stroke-linejoin:round;stroke-miterlimit:10"
       d="m 33.866668,5.1798587 c -18.014514,0 -21.199269,16.5624063 -21.199269,25.8298373 0,11.787418 -6.2678766,21.444484 -0.739071,22.144086 5.528807,0.699602 4.316742,-4.627053 8.074669,-4.627053 3.757927,0 1.33708,7.338269 6.395226,7.65627 5.048173,0.317374 2.306265,-6.952758 7.468445,-6.952758 5.16218,0 2.42027,7.270132 7.468445,6.952758 5.058145,-0.318001 2.637297,-7.65627 6.395224,-7.65627 3.757926,0 2.545861,5.326655 8.074668,4.627053 5.528807,-0.699602 -0.73907,-10.356668 -0.73907,-22.144086 0,-9.267431 -3.184754,-25.8298373 -21.199267,-25.8298373 z" /><g
       id="g7"
       transform="matrix(1.8219663,0,0,1.8226192,-25.684169,-21.273327)"
       style="stroke-width:0.548759"><circle
         style="fill:#1a1a1a;stroke:none;stroke-width:1.09752;stroke-linecap:round;stroke-linejoin:round;stroke-miterlimit:10"
         id="circle5"
         cx="28.267347"
         cy="25.942007"
         r="3.4442995" /><circle
         style="fill:#ffffff;fill-opacity:1;stroke:none;stroke-width:1.09752;stroke-linecap:round;stroke-linejoin:round;stroke-miterlimit:10"
         id="circle6"
         cx="27.408236"
         cy="25.212543"
         r="1.3805408" /><circle
         style="fill:#ffffff;fill-opacity:1;stroke:none;stroke-width:1.09752;stroke-linecap:round;stroke-linejoin:round;stroke-miterlimit:10"
         id="circle7"
         cx="29.537535"
         cy="27.307114"
         r="0.4901334" /></g><path
       style="fill:none;fill-opacity:1;stroke:#1a1a1a;stroke-width:1.99999;stroke-linecap:round;stroke-linejoin:round;stroke-miterlimit:10"
       id="path10"
       sodipodi:type="arc"
       sodipodi:cx="33.866669"
       sodipodi:cy="35.969311"
       sodipodi:rx="3.8560331"
       sodipodi:ry="3.857415"
       sodipodi:start="0.52359878"
       sodipodi:end="2.6179939"
       sodipodi:arc-type="arc"
       d="m 37.206091,37.898018 a 3.8560331,3.857415 0 0 1 -3.339422,1.928708 3.8560331,3.857415 0 0 1 -3.339423,-1.928708"
       sodipodi:open="true" /><g
       id="g14"
       transform="matrix(1.8219663,0,0,1.8226192,-9.5867954,-21.273327)"
       style="stroke-width:0.548759"><circle
         style="fill:#1a1a1a;stroke:none;stroke-width:1.09752;stroke-linecap:round;stroke-linejoin:round;stroke-miterlimit:10"
         id="circle12"
         cx="28.267347"
         cy="25.942007"
         r="3.4442995" /><circle
         style="fill:#ffffff;fill-opacity:1;stroke:none;stroke-width:1.09752;stroke-linecap:round;stroke-linejoin:round;stroke-miterlimit:10"
         id="circle13"
         cx="27.408236"
         cy="25.212543"
         r="1.3805408" /><circle
         style="fill:#ffffff;fill-opacity:1;stroke:none;stroke-width:1.09752;stroke-linecap:round;stroke-linejoin:round;stroke-miterlimit:10"
         id="circle14"
         cx="29.537535"
         cy="27.307114"
         r="0.4901334" /></g></g></svg>
