<?xml version="1.0" encoding="UTF-8" standalone="no"?>
<!-- Created with Inkscape (http://www.inkscape.org/) -->

<svg
   width="256"
   height="256"
   viewBox="0 0 67.733332 67.733333"
   version="1.1"
   id="svg1"
   xml:space="preserve"
   inkscape:version="1.4.3 (0d15f75042, 2025-12-25)"
   sodipodi:docname="ghost.svg"
   xmlns:inkscape="http://www.inkscape.org/namespaces/inkscape"
   xmlns:sodipodi="http://sodipodi.sourceforge.net/DTD/sodipodi-0.dtd"
   xmlns="http://www.w3.org/2000/svg"
   xmlns:svg="http://www.w3.org/2000/svg"><sodipodi:namedview
     id="namedview1"
     pagecolor="#ffffff"
     bordercolor="#000000"
     borderopacity="0.25"
     inkscape:showpageshadow="2"
     inkscape:pageopacity="0.0"
     inkscape:pagecheckerboard="0"
     inkscape:deskcolor="#d1d1d1"
     inkscape:document-units="mm"
     showguides="true"
     inkscape:zoom="4.6689828"
     inkscape:cx="136.43229"
     inkscape:cy="98.52253"
     inkscape:window-width="1651"
     inkscape:window-height="1541"
     inkscape:window-x="0"
     inkscape:window-y="0"
     inkscape:window-maximized="1"
     inkscape:current-layer="layer1" /><defs
     id="defs1" /><g
     inkscape:label="Layer 1"
     inkscape:groupmode="layer"
     id="layer1"><path
       id="path1"
       style="fill:currentColor;fill-opacity:1;stroke:#1a1a1a;stroke-width:2;stroke-linecap:round;stroke-linejoin:round;stroke-miterlimit:10"
       d="m 33.866645,7.9599082 c -18.767252,0 -18.34235,14.7572518 -18.883487,23.0145768 -0.931839,14.21912 -12.9162565,15.383859 -8.3657972,20.637216 3.8561582,4.45181 8.6206472,-3.733931 12.0663862,-1.289198 2.464968,1.748882 0.808942,8.929031 5.810541,9.428615 5.342904,0.533676 3.980577,-7.385276 9.372357,-7.385276 5.39178,0 4.030071,7.918952 9.372975,7.385276 5.001599,-0.499584 3.344957,-7.679733 5.809924,-9.428615 3.44574,-2.444733 8.210228,5.741008 12.066386,1.289198 C 65.66639,46.358344 53.682588,45.193605 52.750749,30.974485 52.209612,22.71716 52.633892,7.9599082 33.866645,7.9599082 Z"
       sodipodi:nodetypes="sssssssssss" /><g
       id="g7"
       transform="matrix(1.6229913,0,0,1.6239701,-19.180687,-17.990373)"
       style="stroke-width:0.61596"><circle
         style="fill:#1a1a1a;stroke:none;stroke-width:1.23192;stroke-linecap:round;stroke-linejoin:round;stroke-miterlimit:10"
         id="circle5"
         cx="28.267347"
         cy="25.942007"
         r="3.4442995" /><circle
         style="fill:#ffffff;fill-opacity:1;stroke:none;stroke-width:1.23192;stroke-linecap:round;stroke-linejoin:round;stroke-miterlimit:10"
         id="circle6"
         cx="27.408236"
         cy="25.212543"
         r="1.3805408" /><circle
         style="fill:#ffffff;fill-opacity:1;stroke:none;stroke-width:1.23192;stroke-linecap:round;stroke-linejoin:round;stroke-miterlimit:10"
         id="circle7"
         cx="29.537535"
         cy="27.307114"
         r="0.4901334" /></g><path
       style="fill:none;fill-opacity:1;stroke:#1a1a1a;stroke-width:2;stroke-linecap:round;stroke-linejoin:round;stroke-miterlimit:10"
       id="path10"
       sodipodi:type="arc"
       sodipodi:cx="33.866669"
       sodipodi:cy="33.013329"
       sodipodi:rx="3.4349198"
       sodipodi:ry="3.4369915"
       sodipodi:start="0.52359878"
       sodipodi:end="2.6179939"
       sodipodi:arc-type="arc"
       d="M 36.841397,34.731824 A 3.4349198,3.4369915 0 0 1 33.866669,36.45032 3.4349198,3.4369915 0 0 1 30.891941,34.731824"
       sodipodi:open="true" /><g
       id="g14"
       transform="matrix(1.6229913,0,0,1.6239701,-4.8412899,-17.990373)"
       style="stroke-width:0.61596"><circle
         style="fill:#1a1a1a;stroke:none;stroke-width:1.23192;stroke-linecap:round;stroke-linejoin:round;stroke-miterlimit:10"
         id="circle12"
         cx="28.267347"
         cy="25.942007"
         r="3.4442995" /><circle
         style="fill:#ffffff;fill-opacity:1;stroke:none;stroke-width:1.23192;stroke-linecap:round;stroke-linejoin:round;stroke-miterlimit:10"
         id="circle13"
         cx="27.408236"
         cy="25.212543"
         r="1.3805408" /><circle
         style="fill:#ffffff;fill-opacity:1;stroke:none;stroke-width:1.23192;stroke-linecap:round;stroke-linejoin:round;stroke-miterlimit:10"
         id="circle14"
         cx="29.537535"
         cy="27.307114"
         r="0.4901334" /></g></g></svg>
