<?xml version="1.0" encoding="UTF-8"?>
<!-- Created with Inkscape (http://www.inkscape.org/) -->
<svg id="svg1" width="256" height="256" version="1.1" viewBox="0 0 67.733 67.733" xml:space="preserve" xmlns="http://www.w3.org/2000/svg"><g id="layer1"><path id="path1" d="m33.867 5.1799c-18.015 0-21.199 16.562-21.199 25.83 0 11.787-6.2679 21.444-0.73907 22.144 5.5288 0.6996 4.3167-4.6271 8.0747-4.6271s1.3371 7.3383 6.3952 7.6563c5.0482 0.31737 2.3063-6.9528 7.4684-6.9528s2.4203 7.2701 7.4684 6.9528c5.0581-0.318 2.6373-7.6563 6.3952-7.6563 3.7579 0 2.5459 5.3267 8.0747 4.6271s-0.73907-10.357-0.73907-22.144c0-9.2674-3.1848-25.83-21.199-25.83z" fill="var(--avatar-main)" stroke="#1a1a1a" stroke-linecap="round" stroke-linejoin="round" stroke-miterlimit="10" stroke-width="2"/><g id="g7" transform="matrix(1.822 0 0 1.8226 -25.684 -21.273)" stroke-width=".54876"><circle id="circle5" cx="28.267" cy="25.942" r="3.4443" fill="#1a1a1a"/><circle id="circle6" cx="27.408" cy="25.213" r="1.3805" fill="#fff"/><circle id="circle7" cx="29.538" cy="27.307" r=".49013" fill="#fff"/></g><path id="path10" d="m37.206 37.898a3.856 3.8574 0 0 1-3.3394 1.9287 3.856 3.8574 0 0 1-3.3394-1.9287" fill="none" stroke="#1a1a1a" stroke-linecap="round" stroke-linejoin="round" stroke-miterlimit="10" stroke-width="2"/><g id="g14" transform="matrix(1.822 0 0 1.8226 -9.5868 -21.273)" stroke-width=".54876"><circle id="circle12" cx="28.267" cy="25.942" r="3.4443" fill="#1a1a1a"/><circle id="circle13" cx="27.408" cy="25.213" r="1.3805" fill="#fff"/><circle id="circle14" cx="29.538" cy="27.307" r=".49013" fill="#fff"/></g></g></svg>
