<?xml version="1.0" encoding="UTF-8" standalone="no"?>
<!-- Created with Inkscape (http://www.inkscape.org/) -->

<svg
   width="256"
   height="256"
   viewBox="0 0 67.733332 67.733333"
   version="1.1"
   id="svg1"
   inkscape:version="1.4.3 (0d15f75042, 2025-12-25)"
   sodipodi:docname="headphones.svg"
   xmlns:inkscape="http://www.inkscape.org/namespaces/inkscape"
   xmlns:sodipodi="http://sodipodi.sourceforge.net/DTD/sodipodi-0.dtd"
   xmlns="http://www.w3.org/2000/svg"
   xmlns:svg="http://www.w3.org/2000/svg">
  <sodipodi:namedview
     id="namedview1"
     pagecolor="#ffffff"
     bordercolor="#000000"
     borderopacity="0.25"
     inkscape:showpageshadow="2"
     inkscape:pageopacity="0.0"
     inkscape:pagecheckerboard="0"
     inkscape:deskcolor="#d1d1d1"
     inkscape:document-units="mm"
     inkscape:zoom="4.0459633"
     inkscape:cx="48.319766"
     inkscape:cy="119.6254"
     inkscape:window-width="2544"
     inkscape:window-height="1541"
     inkscape:window-x="0"
     inkscape:window-y="0"
     inkscape:window-maximized="1"
     inkscape:current-layer="layer1" />
  <defs
     id="defs1" />
  <g
     inkscape:label="Layer 1"
     inkscape:groupmode="layer"
     id="layer1">
    <path
       id="path1"
       style="fill:currentColor;stroke-width:2;stroke-linecap:round;stroke-linejoin:round;stroke-miterlimit:10;stroke:#1a1a1a;stroke-dasharray:none"
       d="M 55.570831,38.144441 A 21.704166,21.704166 0 0 1 33.866665,59.848606 21.704166,21.704166 0 0 1 12.1625,38.144441 21.704166,21.704166 0 0 1 33.866665,16.440276 21.704166,21.704166 0 0 1 55.570831,38.144441 Z" />
    <path
       id="circle1"
       style="fill:none;stroke:#1a1a1a;stroke-width:3.16059;stroke-linecap:round;stroke-linejoin:round;stroke-miterlimit:10;stroke-dasharray:none"
       d="m 61.271461,36.564151 c 0,-9.79079 -5.223325,-18.837852 -13.702396,-23.733247 -8.479073,-4.8953945 -18.925723,-4.8953945 -27.404796,0 C 11.685197,17.726299 6.4618716,26.773361 6.4618716,36.564151"
       sodipodi:nodetypes="cscc" />
    <path
       id="rect8"
       style="fill:#1a1a1a;stroke-width:1.81807;stroke-linecap:round;stroke-linejoin:round;stroke-miterlimit:10"
       d="m 61.117903,33.163942 c 2.231276,0 4.027573,1.796297 4.027573,4.027572 v 1.905854 c 0,2.231275 -1.796297,4.027574 -4.027573,4.027574 -2.231275,0 -4.027573,-1.796299 -4.027573,-4.027574 v -1.905854 c 0,-2.231275 1.796298,-4.027572 4.027573,-4.027572 z" />
    <path
       id="rect12"
       style="fill:#1a1a1a;stroke-width:1.81807;stroke-linecap:round;stroke-linejoin:round;stroke-miterlimit:10"
       d="m 6.6154263,33.163942 c -2.2312757,0 -4.0275732,1.796297 -4.0275732,4.027572 v 1.905854 c 0,2.231275 1.7962975,4.027574 4.0275732,4.027574 2.2312751,0 4.0275737,-1.796299 4.0275737,-4.027574 v -1.905854 c 0,-2.231275 -1.7962986,-4.027572 -4.0275737,-4.027572 z" />
    <g
       id="g7"
       transform="translate(-0.23216879)">
      <g
         id="g3">
        <circle
           style="fill:#1a1a1a;fill-opacity:1;stroke:none;stroke-width:2;stroke-linecap:round;stroke-linejoin:round;stroke-miterlimit:10"
           id="path2"
           cx="26.731483"
           cy="34.811096"
           r="4.8993397" />
        <circle
           style="fill:#ffffff;stroke:none;stroke-width:2;stroke-linecap:round;stroke-linejoin:round;stroke-miterlimit:10"
           id="circle2"
           cx="25.827555"
           cy="34.100868"
           r="2.1552713" />
        <circle
           style="fill:#ffffff;stroke:none;stroke-width:2;stroke-linecap:round;stroke-linejoin:round;stroke-miterlimit:10"
           id="circle3"
           cx="28.557568"
           cy="36.797531"
           r="0.73481238" />
      </g>
      <g
         id="g6"
         transform="translate(14.734704)">
        <circle
           style="fill:#1a1a1a;fill-opacity:1;stroke:none;stroke-width:2;stroke-linecap:round;stroke-linejoin:round;stroke-miterlimit:10"
           id="circle4"
           cx="26.731483"
           cy="34.811096"
           r="4.8993397" />
        <circle
           style="fill:#ffffff;stroke:none;stroke-width:2;stroke-linecap:round;stroke-linejoin:round;stroke-miterlimit:10"
           id="circle5"
           cx="25.827555"
           cy="34.100868"
           r="2.1552713" />
        <circle
           style="fill:#ffffff;stroke:none;stroke-width:2;stroke-linecap:round;stroke-linejoin:round;stroke-miterlimit:10"
           id="circle6"
           cx="28.557568"
           cy="36.797531"
           r="0.73481238" />
      </g>
    </g>
    <path
       style="fill:none;fill-opacity:1;stroke:#1a1a1a;stroke-width:2;stroke-linecap:round;stroke-linejoin:round;stroke-miterlimit:10"
       id="path7"
       sodipodi:type="arc"
       sodipodi:cx="34.054813"
       sodipodi:cy="42.084152"
       sodipodi:rx="2.6545293"
       sodipodi:ry="2.2318435"
       sodipodi:start="0.52359878"
       sodipodi:end="2.6179939"
       sodipodi:arc-type="arc"
       d="m 36.353703,43.200074 a 2.6545293,2.2318435 0 0 1 -2.29889,1.115922 2.6545293,2.2318435 0 0 1 -2.298889,-1.115922"
       sodipodi:open="true" />
    <path
       id="rect9"
       style="fill:#1a1a1a;stroke:#1a1a1a;stroke-width:2.77;stroke-linecap:round;stroke-linejoin:round;stroke-miterlimit:10"
       d="m 56.395822,29.653997 c 1.848747,0 3.337088,1.488341 3.337088,3.337088 v 10.306719 c 0,1.848747 -1.488341,3.337088 -3.337088,3.337088 -1.848746,0 -3.337087,-1.488341 -3.337087,-3.337088 V 32.991085 c 0,-1.848747 1.488341,-3.337088 3.337087,-3.337088 z" />
    <path
       id="rect10"
       style="fill:#1a1a1a;stroke:#1a1a1a;stroke-width:2.77;stroke-linecap:round;stroke-linejoin:round;stroke-miterlimit:10"
       d="m 11.323484,29.653994 c 1.848746,0 3.337087,1.488341 3.337087,3.337087 V 43.2978 c 0,1.848747 -1.488341,3.337088 -3.337087,3.337088 -1.8487467,0 -3.3370877,-1.488341 -3.3370877,-3.337088 V 32.991081 c 0,-1.848746 1.488341,-3.337087 3.3370877,-3.337087 z" />
  </g>
</svg>
