<?xml version="1.0" encoding="UTF-8"?>
<!-- Created with Inkscape (http://www.inkscape.org/) -->
<svg id="svg1" width="256" height="256" version="1.1" viewBox="0 0 67.733 67.733" xmlns="http://www.w3.org/2000/svg">
 <g id="layer1">
  <path id="path1" d="m55.571 38.144a21.704 21.704 0 0 1-21.704 21.704 21.704 21.704 0 0 1-21.704-21.704 21.704 21.704 0 0 1 21.704-21.704 21.704 21.704 0 0 1 21.704 21.704z" fill="currentColor" stroke="#1a1a1a" stroke-linecap="round" stroke-linejoin="round" stroke-miterlimit="10" stroke-width="2"/>
  <path id="circle1" d="m61.271 36.564c0-9.7908-5.2233-18.838-13.702-23.733-8.4791-4.8954-18.926-4.8954-27.405 0-8.4791 4.8954-13.702 13.942-13.702 23.733" fill="none" stroke="#1a1a1a" stroke-linecap="round" stroke-linejoin="round" stroke-miterlimit="10" stroke-width="3.1606"/>
  <path id="rect8" d="m61.118 33.164c2.2313 0 4.0276 1.7963 4.0276 4.0276v1.9059c0 2.2313-1.7963 4.0276-4.0276 4.0276-2.2313 0-4.0276-1.7963-4.0276-4.0276v-1.9059c0-2.2313 1.7963-4.0276 4.0276-4.0276z" fill="#1a1a1a" stroke-linecap="round" stroke-linejoin="round" stroke-miterlimit="10" stroke-width="1.8181"/>
  <path id="rect12" d="m6.6154 33.164c-2.2313 0-4.0276 1.7963-4.0276 4.0276v1.9059c0 2.2313 1.7963 4.0276 4.0276 4.0276 2.2313 0 4.0276-1.7963 4.0276-4.0276v-1.9059c0-2.2313-1.7963-4.0276-4.0276-4.0276z" fill="#1a1a1a" stroke-linecap="round" stroke-linejoin="round" stroke-miterlimit="10" stroke-width="1.8181"/>
  <g id="g7" transform="translate(-.23217)">
   <g id="g3">
    <circle id="path2" cx="26.731" cy="34.811" r="4.8993" fill="#1a1a1a"/>
    <circle id="circle2" cx="25.828" cy="34.101" r="2.1553" fill="#fff"/>
    <circle id="circle3" cx="28.558" cy="36.798" r=".73481" fill="#fff"/>
   </g>
   <g id="g6" transform="translate(14.735)">
    <circle id="circle4" cx="26.731" cy="34.811" r="4.8993" fill="#1a1a1a"/>
    <circle id="circle5" cx="25.828" cy="34.101" r="2.1553" fill="#fff"/>
    <circle id="circle6" cx="28.558" cy="36.798" r=".73481" fill="#fff"/>
   </g>
  </g>
  <path id="path7" d="m36.354 43.2a2.6545 2.2318 0 0 1-2.2989 1.1159 2.6545 2.2318 0 0 1-2.2989-1.1159" fill="none" stroke="#1a1a1a" stroke-linecap="round" stroke-linejoin="round" stroke-miterlimit="10" stroke-width="2"/>
  <path id="rect9" d="m56.396 29.654c1.8487 0 3.3371 1.4883 3.3371 3.3371v10.307c0 1.8487-1.4883 3.3371-3.3371 3.3371-1.8487 0-3.3371-1.4883-3.3371-3.3371v-10.307c0-1.8487 1.4883-3.3371 3.3371-3.3371z" fill="#1a1a1a" stroke="#1a1a1a" stroke-linecap="round" stroke-linejoin="round" stroke-miterlimit="10" stroke-width="2.77"/>
  <path id="rect10" d="m11.323 29.654c1.8487 0 3.3371 1.4883 3.3371 3.3371v10.307c0 1.8487-1.4883 3.3371-3.3371 3.3371-1.8487 0-3.3371-1.4883-3.3371-3.3371v-10.307c0-1.8487 1.4883-3.3371 3.3371-3.3371z" fill="#1a1a1a" stroke="#1a1a1a" stroke-linecap="round" stroke-linejoin="round" stroke-miterlimit="10" stroke-width="2.77"/>
 </g>
</svg>
