<?xml version="1.0" encoding="UTF-8"?>
<!-- Created with Inkscape (http://www.inkscape.org/) -->
<svg id="svg1" width="256" height="256" version="1.1" viewBox="0 0 67.733 67.733" xml:space="preserve" xmlns="http://www.w3.org/2000/svg"><g id="layer1"><path id="path1" d="m7.4236 39.125c0.030336-17.113 11.951-28.468 25.478-28.331 13.528 0.13686 25.929 4.8435 27.288 20.625 0.97795 11.36-4.2094 16.413-7.1827 18.845-3.3829 2.7676-8.0108 3.1717-21.632 5.2841-22.905 3.5521-23.982 1.0637-23.951-16.424z" fill="currentColor" stroke-linecap="round" stroke-linejoin="round" stroke-miterlimit="10" stroke-width="4.6377"/><path id="path2" d="m58.175 43.589s-7.9128 4.9796-25.273 7.7169c-17.36 2.7373-19.32 1.0947-25.043-2.186 0.078628 0.52068 0.17075 1.0117 0.27899 1.4747 0.10824 0.46289 0.23264 0.89728 0.375 1.3044 0.56941 1.6286 1.4294 2.8183 2.7253 3.6317 1.42e-4 8.9e-5 4.62e-4 -8.9e-5 6.04e-4 0 0.16183 0.10156 0.33035 0.1975 0.50604 0.28744 0.87928 0.4501 1.936 0.75616 3.2047 0.93358 0.50748 0.07097 1.0491 0.12142 1.6268 0.15218 3.4661 0.18441 8.2365-0.33754 14.798-1.3551 0.0681-0.01056 0.13585-0.02092 0.2035-0.0314 13.464-2.085 18.062-2.4987 21.428-5.2525 1.4533-1.1889 3.4353-3.0042 4.968-5.8757 0.06789-0.25844 0.1346-0.52498 0.19988-0.80013z" fill-opacity=".097788" stroke-linecap="round" stroke-linejoin="round" stroke-miterlimit="10" stroke-width="4.6377"/><path id="path3" d="m11.152 23.933c-2.3415 4.2538-3.718 9.3923-3.7283 15.192-0.00153 0.86121-2.84e-4 1.6857 0.00604 2.4753 1.4721 0.42518 3.3899 0.81597 5.8793 1.0833 6.7864 0.72889 28.785-2.901 32.347-5.0423 2.6492-1.5924 3.452-5.802 2.1425-8.6444-1.2794-2.7772-4.2428-1.6421-11.907-1.779-11.396-0.2035-19.541-0.4602-24.739-3.2851z" fill="#fff"/><path id="path4" d="m27.176 14.532c6.013-1.8582 17.725 0.03489 17.447 1.7483-0.26255 1.6163-6.5842-0.74844-13.825 2.5165-5.9104 2.6651-8.7929 1.8403-9.0956-0.12085-0.25805-1.6723 3.2841-3.4673 5.4737-4.1439z" fill="#fff" fill-opacity=".29204" stroke-linecap="round" stroke-linejoin="round" stroke-miterlimit="10" stroke-width="4.6377"/><path id="path5" d="m19.29 26.321c-1.1391 5.6164-0.95821 11.482-0.0151 16.3 2.5641-0.18475 5.5213-0.51987 8.5152-0.94445-1.0327-2.779-1.2781-8.8855 0.43358-14.65-3.339-0.12708-6.3133-0.32944-8.9337-0.70592z" fill="#b9b9b9" fill-opacity=".23277" stroke-linecap="round" stroke-linejoin="round" stroke-miterlimit="10" stroke-width="4.6377"/><path id="path6" d="m11.152 23.933c-2.3415 4.2538-3.718 9.3923-3.7283 15.192-0.00153 0.86121-2.84e-4 1.6857 0.00604 2.4753 0.79015 0.22822 1.7089 0.44667 2.7754 0.64131-0.01611-0.1396-0.04491-0.27236-0.08696-0.39614-0.97349-2.8657-0.25992-10.641 3.2416-16.925-0.78746-0.28868-1.5232-0.61593-2.2078-0.98793z" fill="#b9b9b9" fill-opacity=".23277" stroke-linecap="round" stroke-linejoin="round" stroke-miterlimit="10" stroke-width="4.6377"/><path id="path7" d="m47.721 28.838c0.0264 0.05146 0.05222 0.10439 0.0773 0.15882 1.3095 2.8424 0.50662 7.052-2.1425 8.6444-3.5624 2.1413-25.561 5.7712-32.347 5.0423-2.4894-0.26737-4.4072-0.65817-5.8793-1.0833 0.00631 0.78089 0.052955 2.6056 0.07171 3.3185 2.5534 0.43957 6.0584 1.0102 9.46 0.97199 7.2064-0.08105 15.544-1.97 23.432-3.5309 8.2017-1.6229 9.1958-4.8798 8.8015-7.0259-0.32966-1.7943-0.54007-4.8441-1.474-6.4958z" fill-opacity=".097788" stroke-linecap="round" stroke-linejoin="round" stroke-miterlimit="10" stroke-width="4.6377"/><path id="path8" d="m7.4236 39.125c0.030336-17.113 11.951-28.468 25.478-28.331 13.528 0.13686 25.929 4.8435 27.288 20.625 0.97795 11.36-4.2094 16.413-7.1827 18.845-3.3829 2.7676-8.0108 3.1717-21.632 5.2841-22.905 3.5521-23.982 1.0637-23.951-16.424z" fill="none" stroke="#1a1a1a" stroke-linecap="round" stroke-linejoin="round" stroke-miterlimit="10" stroke-width="2"/><path id="path9" d="m11.152 23.933c-2.3415 4.2538-3.718 9.3923-3.7283 15.192-0.00153 0.86121-2.84e-4 1.6857 0.00604 2.4753 1.4721 0.42518 3.3899 0.81597 5.8793 1.0833 6.7864 0.72889 28.785-2.901 32.347-5.0423 2.6492-1.5924 3.452-5.802 2.1425-8.6444-1.2794-2.7772-4.2428-1.6421-11.907-1.779-11.396-0.2035-19.541-0.4602-24.739-3.2851z" fill="none" stroke="#1a1a1a" stroke-linecap="round" stroke-linejoin="round" stroke-miterlimit="10" stroke-width="2"/></g></svg>
