<?xml version="1.0" encoding="UTF-8" standalone="no"?>
<!-- Created with Inkscape (http://www.inkscape.org/) -->

<svg
   width="256"
   height="256"
   viewBox="0 0 67.733334 67.733334"
   version="1.1"
   id="svg1"
   xml:space="preserve"
   inkscape:version="1.4.3 (0d15f75042, 2025-12-25)"
   sodipodi:docname="helmet.svg"
   xmlns:inkscape="http://www.inkscape.org/namespaces/inkscape"
   xmlns:sodipodi="http://sodipodi.sourceforge.net/DTD/sodipodi-0.dtd"
   xmlns="http://www.w3.org/2000/svg"
   xmlns:svg="http://www.w3.org/2000/svg"><sodipodi:namedview
     id="namedview1"
     pagecolor="#ffffff"
     bordercolor="#000000"
     borderopacity="0.25"
     inkscape:showpageshadow="2"
     inkscape:pageopacity="0.0"
     inkscape:pagecheckerboard="0"
     inkscape:deskcolor="#d1d1d1"
     inkscape:document-units="mm"
     inkscape:zoom="1.38727"
     inkscape:cx="109.92813"
     inkscape:cy="206.88114"
     inkscape:window-width="990"
     inkscape:window-height="1541"
     inkscape:window-x="0"
     inkscape:window-y="0"
     inkscape:window-maximized="1"
     inkscape:current-layer="layer1" /><defs
     id="defs1" /><g
     inkscape:label="Layer 1"
     inkscape:groupmode="layer"
     id="layer1"><path
       style="fill:currentColor;fill-opacity:1;stroke-width:4.63773;stroke-linecap:round;stroke-linejoin:round;stroke-miterlimit:10"
       d="M 7.4236092,39.125017 C 7.4539451,22.012216 19.374367,10.657469 32.901996,10.794333 c 13.527628,0.136863 25.928933,4.84352 27.28756,20.624903 0.977953,11.359599 -4.209427,16.412727 -7.182719,18.845238 C 49.623912,53.032115 44.99608,53.43619 31.374671,55.548601 8.4696392,59.100717 7.3926061,56.612299 7.4236092,39.125017 Z"
       id="path1"
       sodipodi:nodetypes="ssssss" /><path
       id="path2"
       style="fill:#000000;fill-opacity:0.0977884;stroke-width:4.63773;stroke-linecap:round;stroke-linejoin:round;stroke-miterlimit:10"
       d="m 58.174606,43.588878 c 0,0 -7.912812,4.979607 -25.272609,7.71687 -17.359798,2.737265 -19.319592,1.0947 -25.0425364,-2.186014 0.078628,0.520675 0.1707538,1.011747 0.2789883,1.474653 0.1082416,0.462893 0.2326432,0.897284 0.3750044,1.304362 0.5694145,1.628622 1.4293955,2.818323 2.7252707,3.631681 1.42e-4,8.9e-5 4.62e-4,-8.9e-5 6.04e-4,0 0.161833,0.101556 0.33035,0.197503 0.506044,0.287443 0.879285,0.450101 1.93603,0.756161 3.204744,0.933584 0.507485,0.07097 1.049142,0.121423 1.626829,0.152176 3.466055,0.184413 8.236459,-0.337544 14.797862,-1.355087 0.0681,-0.01056 0.135853,-0.02092 0.203504,-0.0314 13.464026,-2.084955 18.062354,-2.498667 21.428366,-5.25247 1.453259,-1.188942 3.435342,-3.004227 4.968048,-5.875666 0.06789,-0.258441 0.134597,-0.524979 0.199881,-0.80013 z" /><path
       id="path3"
       style="fill:#ffffff;fill-opacity:1;stroke-width:4.63773;stroke-linecap:round;stroke-linejoin:round;stroke-miterlimit:10"
       d="m 11.151766,23.932874 c -2.3415155,4.253842 -3.7180172,9.392317 -3.7283005,15.19219 -0.00153,0.861211 -2.84e-4,1.68574 0.00604,2.475267 1.4720573,0.425179 3.3899005,0.815972 5.8792895,1.083345 6.786409,0.728893 28.784599,-2.900977 32.34696,-5.042324 2.649151,-1.592413 3.452016,-5.802024 2.142535,-8.644416 -1.27944,-2.777185 -4.242794,-1.64214 -11.907131,-1.779003 -11.395738,-0.203495 -19.54126,-0.460196 -24.739393,-3.285059 z" /><path
       style="fill:#ffffff;fill-opacity:0.292044;stroke-width:4.63773;stroke-linecap:round;stroke-linejoin:round;stroke-miterlimit:10"
       d="m 27.176053,14.531826 c 6.012983,-1.858161 17.725087,0.03489 17.446759,1.748285 -0.262552,1.616272 -6.584203,-0.748439 -13.824889,2.516502 -5.910369,2.665079 -8.79294,1.840263 -9.095568,-0.120851 -0.258052,-1.672257 3.284149,-3.467311 5.473698,-4.143936 z"
       id="path4"
       sodipodi:nodetypes="sssss" /><path
       id="path5"
       style="fill:#b9b9b9;fill-opacity:0.232771;stroke-width:4.63773;stroke-linecap:round;stroke-linejoin:round;stroke-miterlimit:10"
       d="m 19.289533,26.32058 c -1.139131,5.616366 -0.958208,11.482366 -0.0151,16.300293 2.564075,-0.184749 5.521283,-0.519874 8.515187,-0.944454 -1.032733,-2.779003 -1.2781,-8.885534 0.433579,-14.649914 -3.339044,-0.127076 -6.313265,-0.32944 -8.93367,-0.705925 z" /><path
       id="path6"
       style="fill:#b9b9b9;fill-opacity:0.232771;stroke-width:4.63773;stroke-linecap:round;stroke-linejoin:round;stroke-miterlimit:10"
       d="m 11.151766,23.932874 c -2.3415155,4.253842 -3.7180172,9.392317 -3.7283005,15.19219 -0.00153,0.861211 -2.84e-4,1.68574 0.00604,2.475267 0.7901465,0.228221 1.7089213,0.446674 2.7753925,0.641311 -0.01611,-0.139597 -0.04491,-0.272355 -0.08696,-0.396139 C 9.1444522,38.979814 9.8580136,31.204615 13.35952,24.920807 12.572056,24.632132 11.836309,24.30488 11.151766,23.932874 Z" /><path
       id="path7"
       style="fill:#000000;fill-opacity:0.0977884;stroke-width:4.63773;stroke-linecap:round;stroke-linejoin:round;stroke-miterlimit:10"
       d="m 47.720993,28.838118 c 0.0264,0.05146 0.05222,0.104388 0.0773,0.158818 1.309481,2.842392 0.506616,7.052003 -2.142535,8.644416 -3.562361,2.141347 -25.560551,5.771217 -32.346961,5.042324 -2.489354,-0.267369 -4.4072396,-0.658173 -5.8792887,-1.083345 0.00631,0.78089 0.017482,1.527514 0.036237,2.240362 2.5534367,0.439573 5.8239937,1.278714 9.2255877,1.240455 7.20635,-0.08105 15.633662,-1.790049 23.522343,-3.350985 8.201693,-1.622872 8.745944,-4.250089 8.981375,-6.396203 0.19894,-1.813463 -0.540069,-4.844134 -1.474049,-6.495842 z"
       sodipodi:nodetypes="csssccssscc" /></g></svg>
