<?xml version="1.0" encoding="UTF-8" standalone="no"?>
<!-- Created with Inkscape (http://www.inkscape.org/) -->

<svg
   width="256"
   height="256"
   viewBox="0 0 67.733332 67.733333"
   version="1.1"
   id="svg1"
   xml:space="preserve"
   inkscape:version="1.4.3 (0d15f75042, 2025-12-25)"
   sodipodi:docname="lightbulb.svg"
   xmlns:inkscape="http://www.inkscape.org/namespaces/inkscape"
   xmlns:sodipodi="http://sodipodi.sourceforge.net/DTD/sodipodi-0.dtd"
   xmlns="http://www.w3.org/2000/svg"
   xmlns:svg="http://www.w3.org/2000/svg"><sodipodi:namedview
     id="namedview1"
     pagecolor="#ffffff"
     bordercolor="#000000"
     borderopacity="0.25"
     inkscape:showpageshadow="2"
     inkscape:pageopacity="0.0"
     inkscape:pagecheckerboard="0"
     inkscape:deskcolor="#d1d1d1"
     inkscape:document-units="mm"
     showguides="true"
     inkscape:zoom="2.3993465"
     inkscape:cx="100.23563"
     inkscape:cy="146.28983"
     inkscape:window-width="2544"
     inkscape:window-height="1541"
     inkscape:window-x="0"
     inkscape:window-y="0"
     inkscape:window-maximized="1"
     inkscape:current-layer="layer1"
     showgrid="false"><sodipodi:guide
       position="33.866665,63.156257"
       orientation="1,0"
       id="guide27"
       inkscape:locked="false" /></sodipodi:namedview><defs
     id="defs1"><inkscape:path-effect
       effect="fillet_chamfer"
       id="path-effect10"
       is_visible="true"
       lpeversion="1"
       nodesatellites_param="F,0,0,1,0,3.0132632,0,1 @ F,0,0,1,0,0,0,1 @ F,0,0,1,0,0,0,1 @ F,0,0,1,0,0,0,1 @ F,0,0,1,0,0,0,1 @ F,0,0,1,0,0,0,1"
       radius="0"
       unit="px"
       method="auto"
       mode="F"
       chamfer_steps="1"
       flexible="false"
       use_knot_distance="true"
       apply_no_radius="true"
       apply_with_radius="true"
       only_selected="false"
       hide_knots="false" /></defs><g
     inkscape:label="Layer 1"
     inkscape:groupmode="layer"
     id="layer1"><rect
       style="fill:#1a1a1a;fill-opacity:1;stroke:#1a1a1a;stroke-width:2;stroke-linecap:round;stroke-linejoin:round;stroke-miterlimit:10;stroke-dasharray:none;stroke-opacity:1"
       id="rect25"
       width="3.2195487"
       height="4.2146583"
       x="32.256893"
       y="58.941601"
       ry="1.457118" /><rect
       style="fill:#cbcbcb;fill-opacity:1;stroke:#1a1a1a;stroke-width:2;stroke-linecap:round;stroke-linejoin:round;stroke-miterlimit:10;stroke-dasharray:none;stroke-opacity:1"
       id="rect18"
       width="14.374539"
       height="15.870857"
       x="26.679398"
       y="45.707741"
       ry="2.4653766" /><rect
       style="fill:#cbcbcb;fill-opacity:1;stroke:#1a1a1a;stroke-width:2;stroke-linecap:round;stroke-linejoin:round;stroke-miterlimit:10;stroke-dasharray:none;stroke-opacity:1"
       id="rect19"
       width="17.277884"
       height="3.2705815"
       x="25.227724"
       y="49.067448"
       ry="1.6352907" /><rect
       style="fill:#cbcbcb;fill-opacity:1;stroke:#1a1a1a;stroke-width:2;stroke-linecap:round;stroke-linejoin:round;stroke-miterlimit:10;stroke-dasharray:none;stroke-opacity:1"
       id="rect22"
       width="17.277884"
       height="3.2705815"
       x="25.227724"
       y="52.338024"
       ry="1.6352907" /><rect
       style="fill:#cbcbcb;fill-opacity:1;stroke:#1a1a1a;stroke-width:2;stroke-linecap:round;stroke-linejoin:round;stroke-miterlimit:10;stroke-dasharray:none;stroke-opacity:1"
       id="rect23"
       width="17.277884"
       height="3.2705815"
       x="25.227724"
       y="55.608604"
       ry="1.6352907" /><path
       id="path17"
       style="fill:currentColor;fill-opacity:1;stroke:#1a1a1a;stroke-width:2;stroke-linecap:round;stroke-linejoin:round;stroke-miterlimit:10;stroke-dasharray:none;stroke-opacity:1"
       d="M 33.866666,4.5770757 A 19.831152,19.831152 0 0 0 14.035377,24.408365 19.831152,19.831152 0 0 0 18.04599,36.365643 c 2.491798,3.071244 4.989966,6.349959 4.989966,9.619544 v 0.73559 c 0,1.300146 1.046667,2.346813 2.346813,2.346813 h 16.967795 c 1.300146,0 2.346814,-1.046667 2.346814,-2.346813 v -0.73559 c 0,-0.0015 -2e-6,-0.0032 0,-0.0048 0.0021,-2.943779 2.028134,-5.89438 4.250552,-8.69468 0.244827,-0.308489 0.492264,-0.615464 0.739413,-0.920085 l -0.08269,0.03059 A 19.831152,19.831152 0 0 0 53.697957,24.408365 19.831152,19.831152 0 0 0 33.866666,4.5770757 Z" /><path
       id="path28"
       style="fill:none;stroke:#ffffff;stroke-width:2;stroke-linecap:round;stroke-linejoin:round;stroke-miterlimit:10;stroke-opacity:0.78361642"
       d="M 36.788292,49.067448 V 26.098703 c 0,-1.317724 0.793778,-2.505695 2.011196,-3.009966 1.217418,-0.504271 2.618726,-0.225533 3.550497,0.706238 0.931771,0.931771 1.210509,2.333079 0.706238,3.550497 -0.504271,1.217418 -1.692243,2.011196 -3.009967,2.011196 h -6.179591 m -2.921627,19.71078 V 26.098703 c 0,-1.317724 -0.793778,-2.505695 -2.011196,-3.009966 -1.217418,-0.504271 -2.618726,-0.225533 -3.550497,0.706238 -0.931771,0.931771 -1.210509,2.333079 -0.706238,3.550497 0.504271,1.217418 1.692243,2.011196 3.009967,2.011196 h 6.179591" /><path
       style="fill:none;fill-opacity:1;stroke:#ffffff;stroke-width:2;stroke-linecap:round;stroke-linejoin:round;stroke-miterlimit:10;stroke-dasharray:none;stroke-opacity:0.45120442"
       id="path29"
       sodipodi:type="arc"
       sodipodi:cx="33.866665"
       sodipodi:cy="24.500561"
       sodipodi:rx="16.005392"
       sodipodi:ry="16.005392"
       sodipodi:start="3.403392"
       sodipodi:end="4.5641342"
       sodipodi:arc-type="arc"
       d="M 18.406643,20.358061 A 16.005392,16.005392 0 0 1 31.502472,8.6707418"
       sodipodi:open="true" /><path
       id="path1"
       style="fill:none;fill-opacity:1;stroke:#1a1a1a;stroke-width:2;stroke-linecap:round;stroke-linejoin:round;stroke-miterlimit:10;stroke-dasharray:none;stroke-opacity:1"
       d="M 33.866666,4.5770757 A 19.831152,19.831152 0 0 0 14.035377,24.408365 19.831152,19.831152 0 0 0 18.04599,36.365643 c 2.491798,3.071244 4.989966,6.349959 4.989966,9.619544 v 0.73559 c 0,1.300146 1.046667,2.346813 2.346813,2.346813 h 16.967795 c 1.300146,0 2.346814,-1.046667 2.346814,-2.346813 v -0.73559 c 0,-0.0015 -2e-6,-0.0032 0,-0.0048 0.0021,-2.943779 2.028134,-5.89438 4.250552,-8.69468 0.244827,-0.308489 0.492264,-0.615464 0.739413,-0.920085 l -0.08269,0.03059 A 19.831152,19.831152 0 0 0 53.697957,24.408365 19.831152,19.831152 0 0 0 33.866666,4.5770757 Z" /></g></svg>
