<?xml version="1.0" encoding="UTF-8"?>
<!-- Created with Inkscape (http://www.inkscape.org/) -->
<svg id="svg1" width="256" height="256" version="1.1" viewBox="0 0 67.733 67.733" xml:space="preserve" xmlns="http://www.w3.org/2000/svg"><g id="layer1" stroke-linecap="round" stroke-linejoin="round" stroke-miterlimit="10" stroke-width="2"><rect id="rect25" x="32.257" y="58.942" width="3.2195" height="4.2147" ry="1.4571" fill="#1a1a1a" stroke="#1a1a1a"/><rect id="rect18" x="26.679" y="45.708" width="14.375" height="15.871" ry="2.4654" fill="#cbcbcb" stroke="#1a1a1a"/><rect id="rect19" x="25.228" y="49.067" width="17.278" height="3.2706" ry="1.6353" fill="#cbcbcb" stroke="#1a1a1a"/><rect id="rect22" x="25.228" y="52.338" width="17.278" height="3.2706" ry="1.6353" fill="#cbcbcb" stroke="#1a1a1a"/><rect id="rect23" x="25.228" y="55.609" width="17.278" height="3.2706" ry="1.6353" fill="#cbcbcb" stroke="#1a1a1a"/><path id="path17" d="m33.867 4.5771a19.831 19.831 0 0 0-19.831 19.831 19.831 19.831 0 0 0 4.0106 11.957c2.4918 3.0712 4.99 6.35 4.99 9.6195v0.73559c0 1.3001 1.0467 2.3468 2.3468 2.3468h16.968c1.3001 0 2.3468-1.0467 2.3468-2.3468v-0.73559c0-0.0015-2e-6 -0.0032 0-0.0048 0.0021-2.9438 2.0281-5.8944 4.2506-8.6947 0.24483-0.30849 0.49226-0.61546 0.73941-0.92008l-0.08269 0.03059a19.831 19.831 0 0 0 4.0933-11.988 19.831 19.831 0 0 0-19.831-19.831z" fill="var(--avatar-main)" stroke="#1a1a1a"/><path id="path28" d="m36.788 49.067v-22.969c0-1.3177 0.79378-2.5057 2.0112-3.01s2.6187-0.22553 3.5505 0.70624 1.2105 2.3331 0.70624 3.5505-1.6922 2.0112-3.01 2.0112h-6.1796m-2.9216 19.711v-22.969c0-1.3177-0.79378-2.5057-2.0112-3.01s-2.6187-0.22553-3.5505 0.70624-1.2105 2.3331-0.70624 3.5505 1.6922 2.0112 3.01 2.0112h6.1796" fill="none" stroke="var(--avatar-highlight)"/><path id="path29" d="m18.407 20.358a16.005 16.005 0 0 1 13.096-11.687" fill="none" stroke="var(--avatar-highlight)"/><path id="path1" d="m33.867 4.5771a19.831 19.831 0 0 0-19.831 19.831 19.831 19.831 0 0 0 4.0106 11.957c2.4918 3.0712 4.99 6.35 4.99 9.6195v0.73559c0 1.3001 1.0467 2.3468 2.3468 2.3468h16.968c1.3001 0 2.3468-1.0467 2.3468-2.3468v-0.73559c0-0.0015-2e-6 -0.0032 0-0.0048 0.0021-2.9438 2.0281-5.8944 4.2506-8.6947 0.24483-0.30849 0.49226-0.61546 0.73941-0.92008l-0.08269 0.03059a19.831 19.831 0 0 0 4.0933-11.988 19.831 19.831 0 0 0-19.831-19.831z" fill="none" stroke="#1a1a1a"/></g></svg>
