<?xml version="1.0" encoding="UTF-8"?>
<!-- Created with Inkscape (http://www.inkscape.org/) -->
<svg id="svg1" width="256" height="256" version="1.1" viewBox="0 0 67.733 67.733" xml:space="preserve" xmlns="http://www.w3.org/2000/svg"><g id="layer3"><g id="g1" transform="matrix(.94232 0 0 .94229 1.0399 3.9801)"><path id="path1-8-7" d="m32.823 32.589c-0.8107 2.157-2.5303 3.9914-3.9108 5.513-4.3944 5.2678-12.528 1.6793-12.528 1.6793s-2.0002-0.52924-5.1837-1.4818c-4.2715-1.2781-4.864-1.6894-8.6541-0.67451 0 0 3.4326-7.431 10.161-10.269 5.4434-2.2958 8.7133-1.181 12.821 0.04394 0 0 5.195 1.9418 7.078 3.3088 1.8402 1.336 1.1191 1.9083 0.21689 1.8798z" fill="currentColor" stroke="#1a1a1a" stroke-linejoin="round" stroke-width="2.1225"/><path id="path1-8-8" d="m33.446 29.99c-2.3013-0.11163-4.5739-1.1873-6.4448-2.0359-6.3594-2.5715-5.4335-11.414-5.4335-11.414s-0.10853-2.0665-0.17634-5.3891c-0.09097-4.4582 0.04074-1.9297-2.0071-8.4463 0 0 8.124 0.99358 12.885 6.5311 3.8515 4.48 3.7913 7.9346 3.8828 12.221 0 0-0.23898 4.6406-0.98291 7.752-0.21024 0.87928-1.7229 0.78195-1.7229 0.78195z" fill="currentColor" stroke="#1a1a1a" stroke-linejoin="round" stroke-width="2.1225"/><path id="path1-8" d="m35.269 33.844c1.7956 1.4439 3.0011 3.6506 4.0152 5.4374 3.6313 5.8203-2.3174 12.428-2.3174 12.428s-1.1274 1.7352-3.0263 4.4624c-2.548 3.6592-2.3941 1.6863-3.3434 8.0118 0 0-5.9863-5.582-6.5805-12.861-0.48069-5.8888 1.5994-8.6474 4.0457-12.168 0 0 2.8721-3.582 5.3533-5.6915 1.3362-1.136 1.5964-0.71545 2.0093-0.16527z" fill="currentColor" stroke="#1a1a1a" stroke-linejoin="round" stroke-width="2.1225"/><path id="path1-1" d="m37.723 32.198c1.9442-1.2465 4.427-1.6917 6.4493-2.0883 6.6918-1.6028 11.09 6.1322 11.09 6.1322s1.2932 1.6188 3.2853 4.2836c2.673 3.5755 0.80522 1.5796 6.5622 5.7078 0 0-7.213 3.9125-14.328 2.1723-5.7564-1.4079-7.721-4.2545-10.294-7.6896 0 0-3.6382-5.8918-3.716-6.8803-0.05957-0.75643 0.93682-2.1348-0.10648-1.9315z" fill="currentColor" stroke="#1a1a1a" stroke-linejoin="round" stroke-width="2.1225"/><path id="path1" d="m36.131 29.639c-0.59981-2.2249-0.2733-4.7182-0.03969-6.7595 0.49611-6.8425 9.1955-8.674 9.1955-8.674s1.9333-0.73729 5.0745-1.8212c4.2147-1.4543 2.5501-0.34752 7.4221-4.5018 0 0 1.5469 8.0382-2.2624 14.269-3.0818 5.0407-6.3878 6.0433-10.439 7.4453 0 0-4.4226 1.5002-7.6787 1.4426-2.4501-0.04338-1.0023-1.166-1.2727-1.4002z" fill="currentColor" stroke="#1a1a1a" stroke-linejoin="round" stroke-width="2.1225"/><ellipse id="path2" cx="34.561" cy="31.717" rx="2.4569" ry="1.9467" fill="#1a1a1a" stroke-width="0"/><path id="path1-4" d="m37.029 28.607c-0.44738-3.0651 0.05415-5.7162 2.7571-7.8771 0 0 2.2189-1.2071 5.3601-2.291 4.2147-1.4543 9.9845-3.0448 9.9312-4.4003-1.6767 9.3305-4.9425 13.551-13.8 15.442-1.3686 0.2736-1.5511 0.31542-3.0584 0.4389-0.33492 0.02743 1.1368-1.2822 4.0216-3.7855 2.8848-2.5033 3.7189-2.8053 5.5575-5.4897 0.48539-0.70868-0.12727-0.04242-0.12727-0.04242s-0.57528 0.86451-6.1347 4.104c-2.7836 1.622-4.5064 3.9-4.5064 3.9z" fill-opacity=".2" stroke-width="2.1225"/><path id="path1-4-9" d="m32.637 28.804c-3.117-0.39026-6.1562-2.9283-6.5593-5.0168 0 0-0.4719-2.4818-0.5449-5.8044-0.09795-4.4581 0.14924-10.439-1.1576-10.802 7.9021 5.0552 11.681 8.9879 10.317 18.185-0.13576 1.1563-0.21022 1.8148-0.42175 2.8153-0.06951 0.32881-0.79487-1.5707-2.2976-5.0824-1.5028-3.5117-1.5356-4.3983-3.5302-6.9689-0.52656-0.67864-0.07929 0.10826-0.07929 0.10826s0.64749 0.81182 2.0346 7.0956c0.69453 3.1462 2.2557 5.47 2.2557 5.47z" fill-opacity=".2" stroke-width="2.1225"/><path id="path1-4-9-3" d="m31.599 32.675c-0.78857 1.5658-2.7846 5.2691-6.9378 5.0152 0 0-3.5708-0.57874-5.6906-1.263-4.243-1.3697-9.8876-3.3463-10.634-2.2138 0 0 8.4099-7.6862 15.18-6.2126 2.3339 0.50796 6.2359 2.305 7.6803 3.1145 0.29314 0.1643-1.5782 0.40028-5.3812 0.75273-3.803 0.35244-4.6568 0.11161-7.7152 1.221-0.80742 0.29289 0.07869 0.10866 0.07869 0.10866s0.97128-0.36712 7.3767 0.24138c3.2071 0.30467 6.043-0.76405 6.043-0.76405z" fill-opacity=".2" stroke-width="2.1225"/><path id="path1-4-9-8" d="m38.871 32.8c1.4096-0.75194 5.7938-2.4437 8.455 0.18839 0 0 1.8209 1.7509 3.8029 4.4184 2.6594 3.5791 8.5499 8.1025 7.1941 8.1393-12.615 0.34316-14.893-2.2789-18.077-7.395-0.61407-0.9867-1.8781-3.1773-2.3642-4.3584-0.1279-0.31077 1.777 1.1745 5.0345 3.1687 3.2575 1.9942 3.7973 2.6982 6.9113 3.6403 0.8221 0.24871 2e-3 -0.13415 2e-3 -0.13415s-0.99779-0.28733-5.7649-4.6092c-2.3869-2.1639-5.1941-3.0554-5.1941-3.0554z" fill-opacity=".2" stroke-width="2.1225"/><path id="path1-4-9-8-4" d="m35.264 35.335c0.41612 0.42211 3.9109 3.8568 2.3042 7.8608 0 0-1.0807 2.2834-2.979 5.0111-2.5471 3.6599-6.2699 8.3466-5.4278 9.41 0 0-4.4128-10.447-1.0802-16.523 0.7971-1.4532 3.6602-4.5924 5.3089-6.138 0.24517-0.22984-0.13582 1.5991-0.9903 5.3221-0.85449 3.723-1.3502 4.4587-1.2529 7.7111 0.02567 0.85861 0.12776-0.04088 0.12776-0.04088s-0.04492-1.0375 2.5359-6.9322c1.2922-2.9514 1.4471-5.6803 1.4471-5.6803z" fill-opacity=".2" stroke-width="2.1225"/></g></g></svg>
