<?xml version="1.0" encoding="UTF-8" standalone="no"?>
<!-- Created with Inkscape (http://www.inkscape.org/) -->

<svg
   width="256"
   height="256"
   viewBox="0 0 67.733332 67.733333"
   version="1.1"
   id="svg1"
   xml:space="preserve"
   inkscape:version="1.4.3 (0d15f75042, 2025-12-25)"
   sodipodi:docname="lily.svg"
   xmlns:inkscape="http://www.inkscape.org/namespaces/inkscape"
   xmlns:sodipodi="http://sodipodi.sourceforge.net/DTD/sodipodi-0.dtd"
   xmlns="http://www.w3.org/2000/svg"
   xmlns:svg="http://www.w3.org/2000/svg"><sodipodi:namedview
     id="namedview1"
     pagecolor="#ffffff"
     bordercolor="#000000"
     borderopacity="0.25"
     inkscape:showpageshadow="2"
     inkscape:pageopacity="0.0"
     inkscape:pagecheckerboard="0"
     inkscape:deskcolor="#d1d1d1"
     inkscape:document-units="mm"
     inkscape:zoom="2.1286867"
     inkscape:cx="155.49494"
     inkscape:cy="146.09947"
     inkscape:window-width="1651"
     inkscape:window-height="1541"
     inkscape:window-x="0"
     inkscape:window-y="0"
     inkscape:window-maximized="1"
     inkscape:current-layer="layer3"
     showguides="true" /><defs
     id="defs1" /><g
     inkscape:label="Layer 1"
     inkscape:groupmode="layer"
     id="layer1" /><g
     inkscape:groupmode="layer"
     id="layer4"
     inkscape:label="Layer 3" /><g
     inkscape:groupmode="layer"
     id="layer3"
     inkscape:label="Layer 2"><g
       id="g1"
       transform="matrix(0.94231663,0,0,0.94228512,1.0398978,3.9800952)"
       style="stroke-width:1.06123"><path
         style="fill:currentColor;stroke:#1a1a1a;stroke-width:2.12247;stroke-linejoin:round;stroke-dasharray:none"
         d="m 32.822776,32.588979 c -0.810704,2.15697 -2.530295,3.991424 -3.910757,5.513038 -4.394402,5.267823 -12.528224,1.679338 -12.528224,1.679338 0,0 -2.000236,-0.52924 -5.183731,-1.481779 -4.2714546,-1.278098 -4.8639519,-1.689412 -8.6541261,-0.67451 0,0 3.432615,-7.430974 10.1609061,-10.268648 5.443361,-2.29576 8.713288,-1.180956 12.821069,0.04394 0,0 5.195032,1.941792 7.077959,3.308819 1.840204,1.33601 1.119075,1.908292 0.216886,1.879794 z"
         id="path1-8-7"
         sodipodi:nodetypes="cccssssscc" /><path
         style="fill:currentColor;stroke:#1a1a1a;stroke-width:2.12247;stroke-linejoin:round;stroke-dasharray:none"
         d="m 33.445959,29.989858 c -2.301307,-0.111627 -4.573851,-1.187347 -6.444787,-2.035939 -6.359439,-2.571481 -5.433518,-11.414374 -5.433518,-11.414374 0,0 -0.108529,-2.066481 -0.176343,-5.389147 -0.09097,-4.4581993 0.04074,-1.9297173 -2.00707,-8.446292 0,0 8.12405,0.993585 12.884751,6.5311217 3.851516,4.4800083 3.791327,7.9346373 3.882816,12.2207183 0,0 -0.238981,4.640631 -0.982911,7.751962 -0.210238,0.879278 -1.722938,0.78195 -1.722938,0.78195 z"
         id="path1-8-8"
         sodipodi:nodetypes="cccsssssc" /><path
         style="fill:currentColor;stroke:#1a1a1a;stroke-width:2.12247;stroke-linejoin:round;stroke-dasharray:none"
         d="m 35.269223,33.844486 c 1.795619,1.443878 3.001061,3.650579 4.01525,5.437376 3.631314,5.820298 -2.31741,12.42768 -2.31741,12.42768 0,0 -1.127371,1.735171 -3.026336,4.462371 -2.54797,3.65922 -2.394114,1.686305 -3.343359,8.011751 0,0 -5.986343,-5.582044 -6.580496,-12.860885 -0.480688,-5.888771 1.599406,-8.647422 4.045747,-12.167741 0,0 2.872135,-3.581981 5.353324,-5.691529 1.336176,-1.13604 1.596399,-0.715449 2.009345,-0.16527 z"
         id="path1-8"
         sodipodi:nodetypes="cccssssscc" /><path
         style="fill:currentColor;stroke:#1a1a1a;stroke-width:2.12247;stroke-linejoin:round;stroke-dasharray:none"
         d="m 37.722719,32.197545 c 1.944226,-1.246517 4.426951,-1.691671 6.449337,-2.08828 6.691814,-1.602826 11.090249,6.13218 11.090249,6.13218 0,0 1.293179,1.618774 3.285322,4.283575 2.67296,3.575519 0.805221,1.579624 6.562242,5.707792 0,0 -7.212983,3.912483 -14.328217,2.172257 -5.756406,-1.407895 -7.720962,-4.254484 -10.294021,-7.689611 0,0 -3.638163,-5.891808 -3.716,-6.880267 -0.05957,-0.756429 0.936825,-2.134827 -0.106483,-1.931489 z"
         id="path1-1"
         sodipodi:nodetypes="cccssssscc" /><path
         style="fill:currentColor;stroke:#1a1a1a;stroke-width:2.12247;stroke-linejoin:round;stroke-dasharray:none"
         d="m 36.131487,29.639497 c -0.599813,-2.224874 -0.273302,-4.718152 -0.03969,-6.759453 0.49611,-6.842494 9.195489,-8.674036 9.195489,-8.674036 0,0 1.933267,-0.737293 5.074474,-1.821199 4.214726,-1.454338 2.550121,-0.347515 7.422135,-4.5018027 0,0 1.546852,8.0381557 -2.262384,14.2687577 -3.081777,5.040721 -6.387834,6.043283 -10.4386,7.4453 0,0 -4.422621,1.500239 -7.678682,1.442595 -2.450054,-0.04338 -1.002313,-1.166016 -1.272711,-1.40016 z"
         id="path1"
         sodipodi:nodetypes="cccssssscc" /><ellipse
         style="fill:#1a1a1a;fill-opacity:1;stroke:#1a1a1a;stroke-width:0;stroke-dasharray:none"
         id="path2"
         cx="34.561134"
         cy="31.717121"
         rx="2.4569287"
         ry="1.9466625" /><path
         style="fill:#000000;fill-opacity:0.2;stroke-width:2.12246;stroke-dasharray:none"
         d="m 37.028507,28.607209 c -0.447379,-3.065095 0.05415,-5.716236 2.757102,-7.877072 0,0 2.218911,-1.207134 5.360108,-2.291041 4.214736,-1.454338 9.984501,-3.044832 9.931203,-4.400268 -1.676737,9.330524 -4.942462,13.550978 -13.799628,15.44196 -1.368628,0.273599 -1.55106,0.315425 -3.058432,0.438898 -0.334916,0.02743 1.136822,-1.282192 4.02164,-3.785531 2.884808,-2.503338 3.718892,-2.80533 5.557501,-5.489705 0.485387,-0.708677 -0.127271,-0.04242 -0.127271,-0.04242 0,0 -0.575277,0.864511 -6.134713,4.10405 -2.783584,1.62202 -4.506374,3.900012 -4.506374,3.900012 z"
         id="path1-4"
         sodipodi:nodetypes="ccsssssscscc" /><path
         style="fill:#000000;fill-opacity:0.2;stroke-width:2.12246;stroke-dasharray:none"
         d="m 32.637364,28.803716 c -3.117042,-0.390262 -6.156173,-2.928263 -6.559344,-5.016785 0,0 -0.471904,-2.481803 -0.544899,-5.804355 -0.09795,-4.458057 0.149235,-10.4386721 -1.15758,-10.8017369 7.902121,5.0552309 11.680614,8.9879419 10.316639,18.1850959 -0.135758,1.156314 -0.210222,1.81476 -0.421749,2.815262 -0.06951,0.328806 -0.79487,-1.570677 -2.297618,-5.082402 -1.502757,-3.511725 -1.535636,-4.398293 -3.530169,-6.968903 -0.52656,-0.678641 -0.07929,0.108257 -0.07929,0.108257 0,0 0.647493,0.811823 2.034628,7.095585 0.694532,3.146246 2.255667,5.469983 2.255667,5.469983 z"
         id="path1-4-9"
         sodipodi:nodetypes="ccsssssscscc" /><path
         style="fill:#000000;fill-opacity:0.2;stroke-width:2.12246;stroke-dasharray:none"
         d="m 31.599248,32.675156 c -0.788567,1.565827 -2.784583,5.269092 -6.937751,5.015154 0,0 -3.570838,-0.578736 -5.69065,-1.263029 -4.242989,-1.369672 -9.8875672,-3.346282 -10.6341932,-2.21383 0,0 8.4099342,-7.686159 15.1803742,-6.212615 2.333888,0.507957 6.235909,2.305018 7.680281,3.114549 0.293145,0.1643 -1.578171,0.400284 -5.381185,0.752732 -3.803018,0.352437 -4.656766,0.111606 -7.71518,1.22104 -0.80742,0.292891 0.07869,0.108664 0.07869,0.108664 0,0 0.971276,-0.367121 7.376658,0.241385 3.207135,0.304672 6.042952,-0.764049 6.042952,-0.764049 z"
         id="path1-4-9-3"
         sodipodi:nodetypes="ccsssssscscc" /><path
         style="fill:#000000;fill-opacity:0.2;stroke-width:2.12246;stroke-dasharray:none"
         d="m 38.870652,32.800375 c 1.40956,-0.751939 5.793817,-2.443665 8.455022,0.188392 0,0 1.820855,1.750912 3.802858,4.418359 2.659363,3.579064 8.549882,8.102464 7.194085,8.139345 -12.614972,0.343161 -14.892598,-2.278883 -18.076574,-7.395011 -0.614066,-0.986702 -1.878106,-3.177299 -2.36421,-4.358436 -0.127899,-0.310768 1.777026,1.174451 5.034524,3.168681 3.257499,1.99423 3.79729,2.698238 6.911314,3.640309 0.822098,0.248711 0.002,-0.134151 0.002,-0.134151 0,0 -0.99779,-0.287332 -5.764936,-4.609202 -2.386872,-2.163932 -5.194079,-3.055423 -5.194079,-3.055423 z"
         id="path1-4-9-8"
         sodipodi:nodetypes="ccsssssscscc" /><path
         style="fill:#000000;fill-opacity:0.2;stroke-width:2.12246;stroke-dasharray:none"
         d="m 35.264231,35.335085 c 0.416118,0.422108 3.910869,3.856817 2.304176,7.860811 0,0 -1.080699,2.283389 -2.979003,5.011053 -2.547051,3.659862 -6.269893,8.346602 -5.42785,9.410008 0,0 -4.412768,-10.44695 -1.080156,-16.522587 0.797096,-1.453174 3.660195,-4.592429 5.308901,-6.138033 0.245169,-0.229838 -0.13582,1.599065 -0.990304,5.322077 -0.854492,3.723002 -1.350188,4.458727 -1.252904,7.711089 0.02567,0.858609 0.127755,-0.04088 0.127755,-0.04088 0,0 -0.04492,-1.037504 2.535943,-6.93221 1.292231,-2.951442 1.447079,-5.680304 1.447079,-5.680304 z"
         id="path1-4-9-8-4"
         sodipodi:nodetypes="ccsssssscscc" /></g></g></svg>
