<?xml version="1.0" encoding="UTF-8"?>
<!-- Created with Inkscape (http://www.inkscape.org/) -->
<svg id="svg1" width="256" height="256" version="1.1" viewBox="0 0 67.733 67.733" xml:space="preserve" xmlns="http://www.w3.org/2000/svg"><g id="layer1"><g id="g38" transform="translate(.69293 -.73191)"><g id="path33" transform="matrix(.695 -.695 .695 .695 -16.317 31.436)" fill="currentColor"><path id="path36" d="m33.867 8.5117c-13.674 0-24.984 11.171-24.984 24.832v22.707h15v-22.707c0-5.483 4.3462-9.832 9.9844-9.832 5.6382 0 9.9844 4.349 9.9844 9.832v22.707h15v-22.707c0-13.661-11.31-24.832-24.984-24.832z" fill="currentColor" stop-color="#000000"/></g><rect id="rect36" transform="rotate(-45)" x="-25.036" y="53.757" width="14.743" height="12.025" fill="#e6e6e6"/><rect id="rect37" transform="rotate(-45)" x="9.3346" y="53.757" width="14.743" height="12.025" fill="#e6e6e6"/><g id="g37" transform="matrix(.695 -.695 .695 .695 -16.317 31.436)" fill="none" stroke="#1a1a1a" stroke-linecap="round" stroke-linejoin="round" stroke-width="2.0348"><path id="path37" d="m33.867 8.5117c-13.674 0-24.984 11.171-24.984 24.832v22.707h15v-22.707c0-5.483 4.3462-9.832 9.9844-9.832 5.6382 0 9.9844 4.349 9.9844 9.832v22.707h15v-22.707c0-13.661-11.31-24.832-24.984-24.832z" fill="none" stop-color="#000000" stroke="#1a1a1a" stroke-linecap="round" stroke-linejoin="round" stroke-miterlimit="10" stroke-width="2.0348"/></g></g></g></svg>
