<?xml version="1.0" encoding="UTF-8"?>
<!-- Created with Inkscape (http://www.inkscape.org/) -->
<svg id="svg1" width="256" height="256" version="1.1" viewBox="0 0 67.733 67.733" xml:space="preserve" xmlns="http://www.w3.org/2000/svg"><g id="layer1"><path id="path51" transform="matrix(-1.0289 0 0 1.0288 68.711 -.97564)" d="m47.886 39.463c2.4183 0.63818 5.4216-0.5276 7.7103-2.5609 1.3379-1.1886 1.9666-0.98189 1.311 0.68438-1.829 4.6488-6.2795 8.1217-11.584 5.8777-7.569-3.202 2.5625-4.0012 2.5625-4.0012z" fill="currentColor"/><path id="path38" transform="matrix(1.0289 0 0 1.0288 -.97739 -.97564)" d="m47.886 39.463c2.4183 0.63818 5.4216-0.5276 7.7103-2.5609 1.3379-1.1886 1.9666-0.98189 1.311 0.68438-1.829 4.6488-6.2795 8.1217-11.584 5.8777-7.569-3.202 2.5625-4.0012 2.5625-4.0012z" fill="currentColor"/><path id="path58" transform="matrix(-1.0289 0 0 1.0288 68.711 -.97564)" d="m47.886 39.463c2.4183 0.63818 5.4216-0.5276 7.7103-2.5609 1.3379-1.1886 1.9666-0.98189 1.311 0.68438-1.829 4.6488-6.2795 8.1217-11.584 5.8777-7.569-3.202 2.5625-4.0012 2.5625-4.0012z" fill="#3b3b3b" fill-opacity=".36124" stroke="#1a1a1a" stroke-linecap="round" stroke-linejoin="round" stroke-miterlimit="10" stroke-width="1.944"/><path id="path59" transform="matrix(1.0289 0 0 1.0288 -.97739 -.97564)" d="m47.886 39.463c2.4183 0.63818 5.4216-0.5276 7.7103-2.5609 1.3379-1.1886 1.9666-0.98189 1.311 0.68438-1.829 4.6488-6.2795 8.1217-11.584 5.8777-7.569-3.202 2.5625-4.0012 2.5625-4.0012z" fill="#3b3b3b" fill-opacity=".36124" stroke="#1a1a1a" stroke-linecap="round" stroke-linejoin="round" stroke-miterlimit="10" stroke-width="1.944"/><path id="path37" d="m33.867 6.8649c-9.7965 0.10374-17.676 8.2054-17.676 19.992 0 5.4483 1.8608 10.952 4.7479 15.295-1.9731 2.9433-4.6398 3.9536-7.5084 3.9942-5.1099 0.07234-6.4789 1.6984-1.8369 3.6874 4.1212 1.7659 9.2202 2.4894 13.412 0.37852-0.45374 2.3438-1.1218 4.4513-2.0555 6.3328-1.7783 3.5838-1.1098 5.4456 2.5366 3.7746 3.3333-1.5275 6.3281-3.8076 8.3803-6.4078 2.0522 2.6002 5.047 4.8803 8.3803 6.4078 3.6464 1.671 4.315-0.19086 2.5366-3.7746-0.93366-1.8816-1.6017-3.9891-2.0555-6.3328 4.1919 2.1109 9.2909 1.3874 13.412-0.37852 4.642-1.989 3.273-3.6151-1.8369-3.6874-2.8685-0.04062-5.5353-1.0509-7.5084-3.9942 2.8871-4.3434 4.7479-9.8469 4.7479-15.295 0-11.786-7.8796-20.095-17.676-19.992z" fill="currentColor" stroke="#1a1a1a" stroke-linecap="round" stroke-linejoin="round" stroke-miterlimit="10" stroke-width="2"/><g id="g68" transform="matrix(1.0289 0 0 1.0288 -.022414 -.97564)" stroke-width=".81674"><g id="g64" transform="matrix(1.1903 0 0 1.1898 7.5639 .1663)"><circle id="circle62" cx="28.267" cy="25.942" r="3.4443" fill="#1a1a1a"/><circle id="circle63" cx="27.408" cy="25.213" r="1.3805" fill="#fff"/><circle id="circle64" cx="29.538" cy="27.307" r=".49013" fill="#fff"/></g><g id="g67" transform="matrix(1.1903 0 0 1.1898 -8.982 .1663)"><circle id="circle65" cx="28.267" cy="25.942" r="3.4443" fill="#1a1a1a"/><circle id="circle66" cx="27.408" cy="25.213" r="1.3805" fill="#fff"/><circle id="circle67" cx="29.538" cy="27.307" r=".49013" fill="#fff"/></g></g><path id="path68" d="m35.961 35.526a2.3281 2.328 0 0 1-2.0162 1.164 2.3281 2.328 0 0 1-2.0162-1.164" fill="none" stroke="#1a1a1a" stroke-linecap="round" stroke-linejoin="round" stroke-miterlimit="10" stroke-width="2"/><path id="path69" d="m19.623 21.751c1.3699-5.3262 5.6097-9.582 9.565-11.119 2.5289-0.98265 4.4937-1.3581 0.60152 1.3289-3.5789 2.4707-5.9292 6.2989-7.2347 10.476-0.79052 2.5295-3.6622 2.1538-2.9318-0.68616z" fill="#fff" fill-opacity=".42487"/></g></svg>
