<?xml version="1.0" encoding="UTF-8"?>
<!-- Created with Inkscape (http://www.inkscape.org/) -->
<svg id="svg1" width="256" height="256" version="1.1" viewBox="0 0 67.733 67.733" xml:space="preserve" xmlns="http://www.w3.org/2000/svg"><g id="layer1"><path id="path51" transform="matrix(-1 0 0 1 67.733 0)" d="m47.886 39.463c2.4183 0.63818 5.4216-0.5276 7.7103-2.5609 1.3379-1.1886 1.9666-0.98189 1.311 0.68438-1.829 4.6488-6.2795 8.1217-11.584 5.8777-7.569-3.202 2.5625-4.0012 2.5625-4.0012z" fill="none" stroke="#1a1a1a" stroke-linecap="round" stroke-linejoin="round" stroke-miterlimit="10" stroke-width="2"/><path id="path38" d="m47.886 39.463c2.4183 0.63818 5.4216-0.5276 7.7103-2.5609 1.3379-1.1886 1.9666-0.98189 1.311 0.68438-1.829 4.6488-6.2795 8.1217-11.584 5.8777-7.569-3.202 2.5625-4.0012 2.5625-4.0012z" fill="none" stroke="#1a1a1a" stroke-linecap="round" stroke-linejoin="round" stroke-miterlimit="10" stroke-width="2"/><ellipse id="path28" cx="56.36" cy="-45.967" rx="10.492" ry="10.435" fill="#f00" stroke="#1a1a1a" stroke-linecap="round" stroke-linejoin="round" stroke-miterlimit="10" stroke-width="2"/><ellipse id="circle28" cx="26.461" cy="-45.967" rx="10.492" ry="10.435" fill="#f00" stroke="#1a1a1a" stroke-linecap="round" stroke-linejoin="round" stroke-miterlimit="10" stroke-width="2"/><ellipse id="ellipse36" cx="56.36" cy="-45.967" rx="6.4439" ry="6.4065" fill="#fff" fill-opacity=".62157"/><ellipse id="ellipse37" cx="26.461" cy="-45.967" rx="6.4439" ry="6.4065" fill="#fff" fill-opacity=".62157"/><path id="path27" d="m66.852-27.901c0 14.051-11.391 20.865-25.442 20.865s-25.442-6.8138-25.442-20.865c1e-6 -14.051 11.391-25.442 25.442-25.442s25.442 11.391 25.442 25.442z" fill="#f00" stroke="#1a1a1a" stroke-linecap="round" stroke-linejoin="round" stroke-miterlimit="10" stroke-width="2"/><g id="g35" transform="translate(7.5441 -60.728)"><path id="path30" d="m36.567 37.218c0-1.3678-1.174-1.9049-2.6221-1.9049-1.4482 0-2.6221 0.53704-2.6221 1.9049 0 1.3678 1.6369 2.7713 2.6221 2.8134 0.98519 0.04209 2.6221-1.4455 2.6221-2.8134z" fill="#1a1a1a"/><path id="path31" d="m33.944 39.383c0 3.4892-3.6098 3.5549-4.2223 1.3374" fill="none" stroke="#1a1a1a" stroke-linecap="round" stroke-linejoin="round" stroke-miterlimit="10" stroke-width="2"/><path id="path32" d="m33.944 39.383c0 3.4892 3.6098 3.5549 4.2223 1.3374" fill="none" stroke="#1a1a1a" stroke-linecap="round" stroke-linejoin="round" stroke-miterlimit="10" stroke-width="2"/></g><g id="g14" transform="matrix(1.1903 0 0 1.1898 18.241 -59.528)" stroke-width=".84028"><circle id="circle12" cx="28.267" cy="25.942" r="3.4443" fill="#1a1a1a"/><circle id="circle13" cx="27.408" cy="25.213" r="1.3805" fill="#fff"/><circle id="circle14" cx="29.538" cy="27.307" r=".49013" fill="#fff"/></g><g id="g34" transform="matrix(1.1903 0 0 1.1898 -2.7145 -59.528)" stroke-width=".84028"><circle id="circle32" cx="28.267" cy="25.942" r="3.4443" fill="#1a1a1a"/><circle id="circle33" cx="27.408" cy="25.213" r="1.3805" fill="#fff"/><circle id="circle34" cx="29.538" cy="27.307" r=".49013" fill="#fff"/></g><path id="path37" d="m51.047 27.054c0-11.457-7.6588-19.533-17.181-19.432-9.5217 0.10084-17.181 7.9758-17.181 19.432s8.4639 23.164 17.181 23.164 17.181-11.708 17.181-23.164z" fill="#f00" stroke="#1a1a1a" stroke-linecap="round" stroke-linejoin="round" stroke-miterlimit="10" stroke-width="2"/><path id="path39" d="m46.433 41.921c1.9177 2.8609 4.5096 3.8428 7.2977 3.8822 4.9666 0.07032 6.2972 1.6508 1.7854 3.5842-4.7885 2.052-10.935 2.6564-15.31-1.1635-6.1906-5.4054 6.227-6.303 6.227-6.303z" fill="none" stroke="#1a1a1a" stroke-linecap="round" stroke-linejoin="round" stroke-miterlimit="10" stroke-width="2"/><path id="path40" d="m41.975 46.242c0.37111 3.7326 1.1498 6.945 2.5017 9.6697 1.7284 3.4835 1.079 5.293-2.4652 3.6687-4.6068-2.1113-8.5486-5.7012-10.137-9.5624-3.1259-7.6008 10.1-3.7761 10.1-3.7761z" fill="none" stroke="#1a1a1a" stroke-linecap="round" stroke-linejoin="round" stroke-miterlimit="10" stroke-width="2"/><path id="path52" transform="matrix(-1 0 0 1 67.733 0)" d="m46.433 41.921c1.9177 2.8609 4.5096 3.8428 7.2977 3.8822 4.9666 0.07032 6.2972 1.6508 1.7854 3.5842-4.7885 2.052-10.935 2.6564-15.31-1.1635-6.1906-5.4054 6.227-6.303 6.227-6.303z" fill="none" stroke="#1a1a1a" stroke-linecap="round" stroke-linejoin="round" stroke-miterlimit="10" stroke-width="2"/><path id="path53" transform="matrix(-1 0 0 1 67.733 0)" d="m41.975 46.242c0.37111 3.7326 1.1498 6.945 2.5017 9.6697 1.7284 3.4835 1.079 5.293-2.4652 3.6687-4.6068-2.1113-8.5486-5.7012-10.137-9.5624-3.1259-7.6008 10.1-3.7761 10.1-3.7761z" fill="none" stroke="#1a1a1a" stroke-linecap="round" stroke-linejoin="round" stroke-miterlimit="10" stroke-width="2"/></g></svg>
