<?xml version="1.0" encoding="UTF-8" standalone="no"?>
<!-- Created with Inkscape (http://www.inkscape.org/) -->

<svg
   width="256"
   height="256"
   viewBox="0 0 67.733332 67.733333"
   version="1.1"
   id="svg1"
   xml:space="preserve"
   inkscape:version="1.4.3 (0d15f75042, 2025-12-25)"
   sodipodi:docname="penguin.svg"
   xmlns:inkscape="http://www.inkscape.org/namespaces/inkscape"
   xmlns:sodipodi="http://sodipodi.sourceforge.net/DTD/sodipodi-0.dtd"
   xmlns="http://www.w3.org/2000/svg"
   xmlns:svg="http://www.w3.org/2000/svg"><sodipodi:namedview
     id="namedview1"
     pagecolor="#ffffff"
     bordercolor="#000000"
     borderopacity="0.25"
     inkscape:showpageshadow="2"
     inkscape:pageopacity="0.0"
     inkscape:pagecheckerboard="0"
     inkscape:deskcolor="#d1d1d1"
     inkscape:document-units="mm"
     showguides="true"
     inkscape:zoom="1.7634423"
     inkscape:cx="47.634107"
     inkscape:cy="97.536504"
     inkscape:window-width="1651"
     inkscape:window-height="1541"
     inkscape:window-x="0"
     inkscape:window-y="0"
     inkscape:window-maximized="1"
     inkscape:current-layer="layer1" /><defs
     id="defs1" /><g
     inkscape:label="Layer 1"
     inkscape:groupmode="layer"
     id="layer1"><path
       style="fill:#ff9765;fill-opacity:1;stroke:#1a1a1a;stroke-width:2.00001;stroke-linecap:round;stroke-linejoin:round;stroke-miterlimit:10;stroke-dasharray:none"
       d="m 41.556782,61.447553 c 1.856999,2.073407 8.369483,2.367763 10.489163,1.602023 1.915179,-0.691863 0.833705,-4.141491 -3.319852,-5.234608"
       id="path34"
       sodipodi:nodetypes="csc" /><path
       style="fill:#ff9765;fill-opacity:1;stroke:#1a1a1a;stroke-width:2.00001;stroke-linecap:round;stroke-linejoin:round;stroke-miterlimit:10;stroke-dasharray:none"
       d="m 26.176583,61.447553 c -1.856997,2.073407 -8.369484,2.367763 -10.48916,1.602023 -1.915181,-0.691863 -1.567838,-3.78133 2.58572,-4.874447"
       id="path35"
       sodipodi:nodetypes="csc" /><path
       id="path36"
       style="fill:currentColor;fill-opacity:1;stroke:#1a1a1a;stroke-width:2.00001;stroke-linecap:round;stroke-linejoin:round;stroke-miterlimit:10;stroke-dasharray:none"
       d="m 33.866408,6.0559611 c -15.197088,0 -19.452559,12.3067689 -19.452559,16.9426349 0,4.635863 0.8847,7.009391 0.8847,7.009391 -3.978268,7.2169 -5.5368298,12.730791 -2.541963,20.308838 2.994867,7.578047 12.378406,11.921237 21.109822,11.921237 8.731416,0 18.115472,-4.34319 21.110339,-11.921237 2.994867,-7.578047 1.436305,-13.091938 -2.541963,-20.308838 0,0 0.8847,-2.373528 0.8847,-7.009391 0,-4.635866 -4.255988,-16.9426349 -19.453076,-16.9426349 z" /><path
       id="path37"
       style="fill:#ffffff;fill-opacity:1;stroke:none;stroke-width:2.00001;stroke-linecap:round;stroke-linejoin:round;stroke-miterlimit:10;stroke-dasharray:none"
       d="m 26.974454,18.265526 c -3.742819,0 -7.681745,2.385911 -7.681745,7.157641 0,4.771733 3.255445,5.516464 3.096175,7.967405 -0.215661,3.318777 -4.930624,3.029195 -4.930624,9.854417 0,8.25674 5.796712,14.823618 16.408336,14.823618 10.611623,0 16.408335,-6.566878 16.408335,-14.823618 0,-6.825222 -4.71496,-6.53564 -4.930622,-9.854417 -0.15927,-2.450941 3.096173,-3.195672 3.096173,-7.967405 0,-4.77173 -3.938923,-7.157641 -7.681743,-7.157641 -3.105745,0 -5.430716,1.490257 -6.892143,4.15228 -1.461428,-2.662023 -3.786397,-4.15228 -6.892142,-4.15228 z"
       sodipodi:nodetypes="ssssssssscs" /><g
       id="g39"
       transform="matrix(0.87306719,0,0,0.87169491,15.686844,3.9369016)"
       style="stroke-width:1.14629"><circle
         style="fill:#1a1a1a;stroke:none;stroke-width:2.29256;stroke-linecap:round;stroke-linejoin:round;stroke-miterlimit:10"
         id="circle37"
         cx="28.267347"
         cy="25.942007"
         r="3.4442995" /><circle
         style="fill:#ffffff;fill-opacity:1;stroke:none;stroke-width:2.29256;stroke-linecap:round;stroke-linejoin:round;stroke-miterlimit:10"
         id="circle38"
         cx="27.408236"
         cy="25.212543"
         r="1.3805408" /><circle
         style="fill:#ffffff;fill-opacity:1;stroke:none;stroke-width:2.29256;stroke-linecap:round;stroke-linejoin:round;stroke-miterlimit:10"
         id="circle39"
         cx="29.537535"
         cy="27.307114"
         r="0.4901334" /></g><g
       id="g41"
       transform="matrix(1.4421614,0,0,1.4402495,-14.985037,-12.688586)"
       style="stroke-width:0.693864"><ellipse
         style="fill:#1a1a1a;stroke:none;stroke-width:1.38772;stroke-linecap:round;stroke-linejoin:round;stroke-miterlimit:10"
         id="ellipse39"
         cx="29.40189"
         cy="27.209913"
         rx="2.0851374"
         ry="2.0846236" /><ellipse
         style="fill:#ffffff;fill-opacity:1;stroke:none;stroke-width:1.38772;stroke-linecap:round;stroke-linejoin:round;stroke-miterlimit:10"
         id="ellipse40"
         cx="28.881794"
         cy="26.768414"
         rx="0.8357628"
         ry="0.83555686" /><ellipse
         style="fill:#ffffff;fill-opacity:1;stroke:none;stroke-width:1.38772;stroke-linecap:round;stroke-linejoin:round;stroke-miterlimit:10"
         id="ellipse41"
         cx="30.170847"
         cy="28.036129"
         rx="0.29672086"
         ry="0.29664776" /></g><path
       id="path41"
       style="fill:#ff5807;fill-opacity:0.62;stroke-width:2.00001;stroke-linecap:round;stroke-linejoin:round;stroke-miterlimit:10"
       d="m 37.050181,32.148242 c -2e-6,1.203492 -1.425303,1.827568 -3.183497,1.827568 -1.758195,0 -3.183495,-0.624076 -3.183496,-1.827568 0,-1.203494 1.4253,-1.82757 3.183496,-1.82757 1.758196,0 3.183497,0.624076 3.183497,1.82757 z"
       sodipodi:nodetypes="sssss" /><ellipse
       style="fill:#ffffff;fill-opacity:1;stroke:none;stroke-width:1.99999;stroke-linecap:round;stroke-linejoin:round;stroke-miterlimit:10"
       id="ellipse42"
       cx="32.322338"
       cy="31.735195"
       rx="0.42791939"
       ry="0.42724678" /><path
       id="path42"
       style="fill:#8e9dc1;fill-opacity:0.165859;stroke:none;stroke-width:2.00001;stroke-linecap:round;stroke-linejoin:round;stroke-miterlimit:10;stroke-dasharray:none"
       d="m 49.734621,39.409768 c -3.33802,12.399947 -17.557182,16.320845 -27.411318,14.92186 2.751257,2.330205 6.631532,3.736979 11.543293,3.736979 10.611623,0 16.408335,-6.566878 16.408335,-14.823618 0,-1.435764 -0.208792,-2.701003 -0.54031,-3.835221 z" /><path
       id="path43"
       style="fill:none;fill-opacity:0.62;stroke:#1a1a1a;stroke-width:2.00001;stroke-linecap:round;stroke-linejoin:round;stroke-miterlimit:10;stroke-dasharray:none"
       d="m 26.974454,18.265526 c -3.742819,0 -7.681745,2.385911 -7.681745,7.157641 0,4.771733 3.255445,5.516464 3.096175,7.967405 -0.215661,3.318777 -4.930624,3.029195 -4.930624,9.854417 0,8.25674 5.796712,14.823618 16.408336,14.823618 10.611623,0 16.408335,-6.566878 16.408335,-14.823618 0,-6.825222 -4.71496,-6.53564 -4.930622,-9.854417 -0.15927,-2.450941 3.096173,-3.195672 3.096173,-7.967405 0,-4.77173 -3.938923,-7.157641 -7.681743,-7.157641 -3.105745,0 -5.430716,1.490257 -6.892143,4.15228 -1.461428,-2.662023 -3.786397,-4.15228 -6.892142,-4.15228 z"
       sodipodi:nodetypes="ssssssssscs" /><g
       id="g46"
       transform="translate(74.111419)"><path
         style="fill:currentColor;fill-opacity:1;stroke:#1a1a1a;stroke-width:2;stroke-linecap:round;stroke-linejoin:round;stroke-miterlimit:10;stroke-dasharray:none"
         d="m -57.46904,36.086391 c 8.236353,4.187975 12.00553,17.868696 -1.116793,9.84174"
         id="path45" /><path
         style="fill:currentColor;fill-opacity:1;stroke:#1a1a1a;stroke-width:2;stroke-linecap:round;stroke-linejoin:round;stroke-miterlimit:10;stroke-dasharray:none"
         d="m -23.020464,36.086391 c -8.236353,4.187975 -12.00553,17.868696 1.116793,9.84174"
         id="path46" /></g></g></svg>
