<?xml version="1.0" encoding="UTF-8"?>
<!-- Created with Inkscape (http://www.inkscape.org/) -->
<svg id="svg1" width="256" height="256" version="1.1" viewBox="0 0 67.733 67.733" xml:space="preserve" xmlns="http://www.w3.org/2000/svg"><g id="layer1"><path id="path34" d="m41.557 61.448c1.857 2.0734 8.3695 2.3678 10.489 1.602 1.9152-0.69186 0.8337-4.1415-3.3199-5.2346" fill="#ff9765" stroke="#1a1a1a" stroke-linecap="round" stroke-linejoin="round" stroke-miterlimit="10" stroke-width="2"/><path id="path35" d="m26.177 61.448c-1.857 2.0734-8.3695 2.3678-10.489 1.602-1.9152-0.69186-1.5678-3.7813 2.5857-4.8744" fill="#ff9765" stroke="#1a1a1a" stroke-linecap="round" stroke-linejoin="round" stroke-miterlimit="10" stroke-width="2"/><path id="path36" d="m33.866 6.056c-15.197 0-19.453 12.307-19.453 16.943 0 4.6359 0.8847 7.0094 0.8847 7.0094-3.9783 7.2169-5.5368 12.731-2.542 20.309 2.9949 7.578 12.378 11.921 21.11 11.921s18.115-4.3432 21.11-11.921 1.4363-13.092-2.542-20.309c0 0 0.8847-2.3735 0.8847-7.0094 0-4.6359-4.256-16.943-19.453-16.943z" fill="var(--avatar-main)" stroke="#1a1a1a" stroke-linecap="round" stroke-linejoin="round" stroke-miterlimit="10" stroke-width="2"/><path id="path37" d="m26.974 18.266c-3.7428 0-7.6817 2.3859-7.6817 7.1576 0 4.7717 3.2554 5.5165 3.0962 7.9674-0.21566 3.3188-4.9306 3.0292-4.9306 9.8544 0 8.2567 5.7967 14.824 16.408 14.824 10.612 0 16.408-6.5669 16.408-14.824 0-6.8252-4.715-6.5356-4.9306-9.8544-0.15927-2.4509 3.0962-3.1957 3.0962-7.9674 0-4.7717-3.9389-7.1576-7.6817-7.1576-3.1057 0-5.4307 1.4903-6.8921 4.1523-1.4614-2.662-3.7864-4.1523-6.8921-4.1523z" fill="#fff"/><g id="g39" transform="matrix(.87307 0 0 .87169 15.687 3.9369)" stroke-width="1.1463"><circle id="circle37" cx="28.267" cy="25.942" r="3.4443" fill="#1a1a1a"/><circle id="circle38" cx="27.408" cy="25.213" r="1.3805" fill="#fff"/><circle id="circle39" cx="29.538" cy="27.307" r=".49013" fill="#fff"/></g><g id="g41" transform="matrix(1.4422 0 0 1.4402 -14.985 -12.689)" stroke-width=".69386"><ellipse id="ellipse39" cx="29.402" cy="27.21" rx="2.0851" ry="2.0846" fill="#1a1a1a"/><ellipse id="ellipse40" cx="28.882" cy="26.768" rx=".83576" ry=".83556" fill="#fff"/><ellipse id="ellipse41" cx="30.171" cy="28.036" rx=".29672" ry=".29665" fill="#fff"/></g><path id="path41" d="m37.05 32.148c-2e-6 1.2035-1.4253 1.8276-3.1835 1.8276-1.7582 0-3.1835-0.62408-3.1835-1.8276 0-1.2035 1.4253-1.8276 3.1835-1.8276s3.1835 0.62408 3.1835 1.8276z" fill="#ff9765" stroke-linecap="round" stroke-linejoin="round" stroke-miterlimit="10" stroke-width="2"/><ellipse id="ellipse42" cx="32.322" cy="31.735" rx=".42792" ry=".42725" fill="#fff"/><path id="path42" d="m49.735 39.41c-3.338 12.4-17.557 16.321-27.411 14.922 2.7513 2.3302 6.6315 3.737 11.543 3.737 10.612 0 16.408-6.5669 16.408-14.824 0-1.4358-0.20879-2.701-0.54031-3.8352z" fill="#8e9dc1" fill-opacity=".16586"/><path id="path43" d="m26.974 18.266c-3.7428 0-7.6817 2.3859-7.6817 7.1576 0 4.7717 3.2554 5.5165 3.0962 7.9674-0.21566 3.3188-4.9306 3.0292-4.9306 9.8544 0 8.2567 5.7967 14.824 16.408 14.824 10.612 0 16.408-6.5669 16.408-14.824 0-6.8252-4.715-6.5356-4.9306-9.8544-0.15927-2.4509 3.0962-3.1957 3.0962-7.9674 0-4.7717-3.9389-7.1576-7.6817-7.1576-3.1057 0-5.4307 1.4903-6.8921 4.1523-1.4614-2.662-3.7864-4.1523-6.8921-4.1523z" fill="none" stroke="#1a1a1a" stroke-linecap="round" stroke-linejoin="round" stroke-miterlimit="10" stroke-width="2"/><g id="g46" transform="translate(74.111)" fill="var(--avatar-main)" stroke="#1a1a1a" stroke-linecap="round" stroke-linejoin="round" stroke-miterlimit="10" stroke-width="2"><path id="path45" d="m-57.469 36.086c8.2364 4.188 12.006 17.869-1.1168 9.8417"/><path id="path46" d="m-23.02 36.086c-8.2364 4.188-12.006 17.869 1.1168 9.8417"/></g></g></svg>
