<?xml version="1.0" encoding="UTF-8"?>
<!-- Created with Inkscape (http://www.inkscape.org/) -->
<svg id="svg1" width="256" height="256" version="1.1" viewBox="0 0 67.733 67.733" xml:space="preserve" xmlns="http://www.w3.org/2000/svg"><g id="layer1"><g id="g1" transform="translate(3.0924 .71314)"><path id="path13" d="m19.301 5.2116-7.167 4.1382 0.35657 47.608 7.1665 4.1377 41.052-24.113v-8.2755zm7.8889 21.528 10.931 6.3107-10.931 6.3112z" fill="#333" stroke="#1a1a1a" stroke-linejoin="round" stroke-miterlimit="10" stroke-width="4"/><path id="path6" d="m45.653 28.702-7.5326 4.3489-18.464-10.66 1e-6 38.705-7.1669-4.1378-0.3562-47.608z" fill="currentColor"/><path id="path7" d="m27.189 48.06-1e-6 -8.6979 18.464-10.66-33.519-19.352 7.1669-4.1378 41.408 23.496z" fill="currentColor"/><path id="path9" d="m19.657 22.391 7.5326 4.3489 1e-6 21.32 33.519-19.352v8.2756l-41.052 24.113z" fill="currentColor"/><path id="path11" d="m27.189 48.06-1e-6 -8.6979 18.464-10.66-33.519-19.352 7.1669-4.1378 41.408 23.496z" fill-opacity=".15"/><path id="path12" d="m19.657 22.391 7.5326 4.3489 1e-6 21.32 33.519-19.352v8.2756l-41.052 24.113z" fill-opacity=".3"/></g></g></svg>
