<?xml version="1.0" encoding="UTF-8"?>
<!-- Created with Inkscape (http://www.inkscape.org/) -->
<svg id="svg1" width="256" height="256" version="1.1" viewBox="0 0 67.733 67.733" xml:space="preserve" xmlns="http://www.w3.org/2000/svg"><g id="layer1"><path id="path1" transform="rotate(240)" d="m-19.78-2.1196a51.625 51.625 0 0 1-25.812 44.708l-25.812-44.708z" fill="currentColor" stroke="#1a1a1a" stroke-linecap="round" stroke-linejoin="round" stroke-miterlimit="10" stroke-width="2"/><circle id="circle2" cx="40.563" cy="28.461" r="6.9143" fill="#e50000" fill-opacity=".42964" stroke="#1a1a1a" stroke-linecap="round" stroke-linejoin="round" stroke-miterlimit="10" stroke-width="2"/><path id="circle3" d="m21.422 34.748a6.9143 6.9143 0 0 0-3.3179 0.8476l6.9124 11.973a6.9143 6.9143 0 0 0 3.3195-5.9056 6.9143 6.9143 0 0 0-6.9139-6.9147z" fill="#e50000" fill-opacity=".42964" stroke="#1a1a1a" stroke-linecap="round" stroke-linejoin="round" stroke-miterlimit="10" stroke-width="2"/><path id="circle4" d="m41.232 46.383a6.9143 6.9143 0 0 0-6.9147 6.9139 6.9143 6.9143 0 0 0 2.182 5.0415l6.732-11.66a6.9143 6.9143 0 0 0-1.9993-0.2954z" fill="#e50000" fill-opacity=".42964" stroke="#1a1a1a" stroke-linecap="round" stroke-linejoin="round" stroke-miterlimit="10" stroke-width="2"/><path id="path4" transform="matrix(1.1003 0 0 1.1106 -3.3955 -1.5069)" d="m29.299 6.8891c-6.6815 0.54388-13.287 2.2833-19.484 5.218-2.2816 1.0806-3.0245 3.8957-1.7618 6.0825l1.928e-4 3.33e-4c1.2628 2.1868 4.0527 2.9132 6.3506 1.8685 12.363-5.6206 26.562-5.6206 38.924 0 2.2979 1.0447 5.0878 0.31831 6.3506-1.8685l1.92e-4 -3.33e-4c1.2628-2.1868 0.51982-5.0019-1.7618-6.0825-6.1965-2.9348-12.802-4.6741-19.484-5.218-2.5162-0.20482-6.6184-0.20482-9.1346 1e-7z" fill="currentColor" stop-color="#000000"/><path id="path5" transform="matrix(1.1003 0 0 1.1106 -3.3955 -1.5069)" d="m29.299 6.8891c-6.6815 0.54388-13.287 2.2833-19.484 5.218-2.2816 1.0806-3.0245 3.8957-1.7618 6.0825l1.928e-4 3.33e-4c1.2628 2.1868 4.0527 2.9132 6.3506 1.8685 12.363-5.6206 26.562-5.6206 38.924 0 2.2979 1.0447 5.0878 0.31831 6.3506-1.8685l1.92e-4 -3.35e-4c1.2628-2.1868 0.51982-5.0019-1.7618-6.0825-6.1965-2.9348-12.802-4.6741-19.484-5.218-2.5162-0.20482-6.6184-0.20482-9.1346 1e-7z" fill="#f9f9f9" fill-opacity=".41171" stop-color="#000000" stroke="#1a1a1a" stroke-linejoin="round" stroke-miterlimit="10" stroke-width="1.8093"/></g></svg>
