<?xml version="1.0" encoding="UTF-8" standalone="no"?>
<!-- Created with Inkscape (http://www.inkscape.org/) -->

<svg
   width="256"
   height="256"
   viewBox="0 0 67.733332 67.733333"
   version="1.1"
   id="svg1"
   xml:space="preserve"
   inkscape:version="1.4.3 (0d15f75042, 2025-12-25)"
   sodipodi:docname="pizza.svg"
   xmlns:inkscape="http://www.inkscape.org/namespaces/inkscape"
   xmlns:sodipodi="http://sodipodi.sourceforge.net/DTD/sodipodi-0.dtd"
   xmlns="http://www.w3.org/2000/svg"
   xmlns:svg="http://www.w3.org/2000/svg"><sodipodi:namedview
     id="namedview1"
     pagecolor="#ffffff"
     bordercolor="#000000"
     borderopacity="0.25"
     inkscape:showpageshadow="2"
     inkscape:pageopacity="0.0"
     inkscape:pagecheckerboard="0"
     inkscape:deskcolor="#d1d1d1"
     inkscape:document-units="mm"
     showguides="true"
     inkscape:zoom="2.1974542"
     inkscape:cx="-87.601371"
     inkscape:cy="207.51286"
     inkscape:window-width="2544"
     inkscape:window-height="1541"
     inkscape:window-x="0"
     inkscape:window-y="0"
     inkscape:window-maximized="1"
     inkscape:current-layer="layer1"
     showgrid="false"><sodipodi:guide
       position="33.866665,63.156257"
       orientation="1,0"
       id="guide27"
       inkscape:locked="false" /></sodipodi:namedview><defs
     id="defs1"><inkscape:path-effect
       effect="fillet_chamfer"
       id="path-effect6"
       is_visible="true"
       lpeversion="1"
       nodesatellites_param="F,0,1,1,0,4.5723227,0,1 @ F,0,1,1,0,4.5723227,0,1 @ F,0,1,1,0,4.5723227,0,1 @ F,0,1,1,0,4.5723227,0,1 @ F,0,0,1,0,4.5723227,0,1"
       radius="0"
       unit="px"
       method="auto"
       mode="F"
       chamfer_steps="1"
       flexible="false"
       use_knot_distance="true"
       apply_no_radius="true"
       apply_with_radius="true"
       only_selected="false"
       hide_knots="false" /><inkscape:path-effect
       effect="fillet_chamfer"
       id="path-effect5"
       is_visible="true"
       lpeversion="1"
       nodesatellites_param="F,0,1,1,0,4.5723226,0,1 @ F,0,1,1,0,4.5723226,0,1 @ F,0,1,1,0,4.5723226,0,1 @ F,0,1,1,0,4.5723226,0,1 @ F,0,1,1,0,4.5723226,0,1"
       radius="10"
       unit="px"
       method="auto"
       mode="F"
       chamfer_steps="1"
       flexible="false"
       use_knot_distance="true"
       apply_no_radius="true"
       apply_with_radius="true"
       only_selected="false"
       hide_knots="false" /><inkscape:path-effect
       effect="fillet_chamfer"
       id="path-effect10"
       is_visible="true"
       lpeversion="1"
       nodesatellites_param="F,0,0,1,0,3.0132632,0,1 @ F,0,0,1,0,0,0,1 @ F,0,0,1,0,0,0,1 @ F,0,0,1,0,0,0,1 @ F,0,0,1,0,0,0,1 @ F,0,0,1,0,0,0,1"
       radius="0"
       unit="px"
       method="auto"
       mode="F"
       chamfer_steps="1"
       flexible="false"
       use_knot_distance="true"
       apply_no_radius="true"
       apply_with_radius="true"
       only_selected="false"
       hide_knots="false" /></defs><g
     inkscape:label="Layer 1"
     inkscape:groupmode="layer"
     id="layer1"><path
       style="fill:currentColor;stroke:#1a1a1a;stroke-width:2;stroke-linecap:round;stroke-linejoin:round;stroke-miterlimit:10;stroke-opacity:1"
       id="path1"
       sodipodi:type="arc"
       sodipodi:cx="-71.404907"
       sodipodi:cy="-2.1196356"
       sodipodi:rx="51.624878"
       sodipodi:ry="51.624878"
       sodipodi:start="0"
       sodipodi:end="1.0471976"
       sodipodi:arc-type="slice"
       d="M -19.780029,-2.1196356 A 51.624878,51.624878 0 0 1 -45.592468,42.58882 L -71.404907,-2.1196356 Z"
       transform="rotate(-120)" /><circle
       style="fill:#e50000;fill-opacity:0.42963886;stroke:#1a1a1a;stroke-width:2;stroke-linecap:round;stroke-linejoin:round;stroke-miterlimit:10;stroke-opacity:1"
       id="circle2"
       cx="40.562958"
       cy="28.461451"
       r="6.9143319" /><path
       id="circle3"
       style="fill:#e50000;fill-opacity:0.42963886;stroke:#1a1a1a;stroke-width:2;stroke-linecap:round;stroke-linejoin:round;stroke-miterlimit:10;stroke-opacity:1"
       d="m 21.422193,34.74848 a 6.9143318,6.9143318 0 0 0 -3.317931,0.8476 l 6.912357,11.972756 a 6.9143318,6.9143318 0 0 0 3.319508,-5.905635 6.9143318,6.9143318 0 0 0 -6.913934,-6.914721 z" /><path
       id="circle4"
       style="fill:#e50000;fill-opacity:0.42963886;stroke:#1a1a1a;stroke-width:2;stroke-linecap:round;stroke-linejoin:round;stroke-miterlimit:10;stroke-opacity:1"
       d="m 41.232106,46.38251 a 6.9143318,6.9143318 0 0 0 -6.914721,6.913934 6.9143318,6.9143318 0 0 0 2.182021,5.041492 L 43.231373,46.677911 A 6.9143318,6.9143318 0 0 0 41.232106,46.38251 Z" /><path
       style="baseline-shift:baseline;display:inline;overflow:visible;opacity:1;fill:currentColor;stroke:none;stroke-width:1.8093;stroke-linejoin:round;stroke-miterlimit:10;stroke-dasharray:none;stroke-opacity:1;enable-background:accumulate;stop-color:#000000;stop-opacity:1"
       d="M 29.299367,6.8890632 C 22.617836,7.4329413 16.012002,9.1723198 9.8154854,12.107091 c -2.2815721,1.080589 -3.0245196,3.89568 -1.7617546,6.0825 l 1.928e-4,3.33e-4 c 1.262765,2.18682 4.0526714,2.913224 6.3505724,1.868512 12.362731,-5.62056 26.561608,-5.62056 38.924338,0 2.2979,1.044712 5.087806,0.318308 6.350572,-1.868512 l 1.92e-4,-3.33e-4 C 60.942364,16.002771 60.199416,13.18768 57.917844,12.10709 51.721329,9.1723194 45.115495,7.4329411 38.433962,6.8890631 c -2.516207,-0.2048197 -6.618387,-0.2048197 -9.134595,10e-8 z"
       id="path4"
       inkscape:path-effect="#path-effect6"
       inkscape:original-d="m 33.866665,6.7034915 c -9.704148,0 -19.408692,2.5089463 -28.0993726,7.5265115 l 4.5730696,7.919509 c 14.564232,-8.408661 32.488375,-8.408661 47.052605,0 l 4.57307,-7.919509 C 53.27536,9.2124378 43.570814,6.7034915 33.866665,6.7034915 Z"
       transform="matrix(1.1002602,0,0,1.1105579,-3.3954785,-1.506917)" /><path
       style="baseline-shift:baseline;display:inline;overflow:visible;opacity:1;fill:#f9f9f9;fill-opacity:0.411712;stroke:#1a1a1a;stroke-width:1.8093;stroke-linejoin:round;stroke-miterlimit:10;stroke-dasharray:none;stroke-opacity:1;enable-background:accumulate;stop-color:#000000;stop-opacity:1"
       d="M 29.299367,6.8890632 C 22.617836,7.4329413 16.012002,9.1723198 9.8154853,12.107091 c -2.2815721,1.080589 -3.0245196,3.89568 -1.7617545,6.0825 l 1.928e-4,3.33e-4 c 1.2627651,2.18682 4.0526714,2.913224 6.3505724,1.868512 12.362731,-5.62056 26.561608,-5.62056 38.924338,0 2.2979,1.044712 5.087806,0.318308 6.350572,-1.868511 l 1.92e-4,-3.35e-4 c 1.262766,-2.186819 0.519818,-5.00191 -1.761754,-6.0825 C 51.721329,9.1723194 45.115495,7.4329411 38.433962,6.8890631 c -2.516207,-0.2048197 -6.618387,-0.2048197 -9.134595,10e-8 z"
       id="path5"
       inkscape:path-effect="#path-effect5"
       inkscape:original-d="m 33.866665,6.7034915 c -9.704148,0 -19.408692,2.5089463 -28.0993726,7.5265115 l 4.5730696,7.919509 c 14.564232,-8.408661 32.488375,-8.408661 47.052605,0 l 4.57307,-7.919509 C 53.27536,9.2124378 43.570814,6.7034915 33.866665,6.7034915 Z"
       transform="matrix(1.1002602,0,0,1.1105579,-3.3954785,-1.506917)" /></g></svg>
