<?xml version="1.0" encoding="UTF-8" standalone="no"?>
<!-- Created with Inkscape (http://www.inkscape.org/) -->

<svg
   width="256"
   height="256"
   viewBox="0 0 67.733332 67.733333"
   version="1.1"
   id="svg1"
   xml:space="preserve"
   inkscape:version="1.4.3 (0d15f75042, 2025-12-25)"
   sodipodi:docname="plant.svg"
   xmlns:inkscape="http://www.inkscape.org/namespaces/inkscape"
   xmlns:sodipodi="http://sodipodi.sourceforge.net/DTD/sodipodi-0.dtd"
   xmlns="http://www.w3.org/2000/svg"
   xmlns:svg="http://www.w3.org/2000/svg"><sodipodi:namedview
     id="namedview1"
     pagecolor="#ffffff"
     bordercolor="#000000"
     borderopacity="0.25"
     inkscape:showpageshadow="2"
     inkscape:pageopacity="0.0"
     inkscape:pagecheckerboard="0"
     inkscape:deskcolor="#d1d1d1"
     inkscape:document-units="mm"
     inkscape:zoom="34.421166"
     inkscape:cx="247.27518"
     inkscape:cy="67.734487"
     inkscape:window-width="2560"
     inkscape:window-height="1600"
     inkscape:window-x="0"
     inkscape:window-y="0"
     inkscape:window-maximized="1"
     inkscape:current-layer="layer1" /><defs
     id="defs1" /><g
     inkscape:label="Layer 1"
     inkscape:groupmode="layer"
     id="layer1"><path
       style="fill:currentColor;fill-opacity:1;stroke:#1a1a1a;stroke-width:2;stroke-linejoin:round;stroke-dasharray:none"
       d="m 33.873388,16.275122 c 0,0 -7.155308,7.610661 -7.155308,16.958156 0,9.347494 7.155308,16.958154 7.155308,16.958154 0,0 7.542079,-7.558922 7.542079,-16.958154 0,-9.399231 -7.542079,-16.958156 -7.542079,-16.958156 z"
       id="path1"
       sodipodi:nodetypes="czczc" /><path
       style="fill:#000000;fill-opacity:0.4;stroke:#1a1a1a;stroke-width:0;stroke-linejoin:round;stroke-dasharray:none"
       d="m 33.898503,18.069953 c 0,0 -6.043861,6.907811 -5.997852,15.399567 0.04602,8.491756 5.997852,14.918201 5.997852,14.918201 0,0 6.260357,-6.042404 6.329228,-14.820699 0.06887,-8.778295 -6.329228,-15.497069 -6.329228,-15.497069 z"
       id="path2"
       sodipodi:nodetypes="czczc" /><path
       style="fill:currentColor;fill-opacity:1;stroke:#1a1a1a;stroke-width:2;stroke-linejoin:round;stroke-dasharray:none"
       d="m 51.607632,21.065851 c 0,0 -9.982898,2.995312 -14.633172,11.090481 -4.650274,8.095168 -2.239813,18.281904 -2.239813,18.281904 0,0 10.292111,-2.756143 14.968124,-10.896116 4.676013,-8.139975 1.904861,-18.476269 1.904861,-18.476269 z"
       id="path1-9"
       sodipodi:nodetypes="czczc" /><path
       style="fill:#000000;fill-opacity:0.2;stroke:#1a1a1a;stroke-width:0;stroke-linejoin:round;stroke-dasharray:none"
       d="m 50.742008,22.6384 c 0,0 -8.670695,2.945155 -12.855405,10.322353 -4.184706,7.377199 -2.227347,15.933604 -2.227347,15.933604 0,0 8.427658,-2.086896 12.854405,-9.654514 C 52.940412,31.672227 50.742008,22.6384 50.742008,22.6384 Z"
       id="path2-7"
       sodipodi:nodetypes="czczc" /><path
       style="fill:currentColor;fill-opacity:1;stroke:#1a1a1a;stroke-width:2;stroke-linejoin:round;stroke-dasharray:none"
       d="m 16.15913,21.04122 c 0,0 -2.410461,10.186738 2.239813,18.281907 4.650274,8.095167 14.63317,11.090479 14.63317,11.090479 0,0 2.771155,-10.336294 -1.904859,-18.476267 C 26.451242,23.797365 16.15913,21.04122 16.15913,21.04122 Z"
       id="path1-94"
       sodipodi:nodetypes="czczc" /><path
       style="fill:currentColor;fill-opacity:1;stroke:#1a1a1a;stroke-width:2;stroke-linejoin:round;stroke-dasharray:none"
       d="m 64.571418,34.115547 c 0,0 -10.135577,-2.422628 -18.190087,2.251119 -8.054512,4.673748 -11.03478,14.707036 -11.03478,14.707036 0,0 10.284381,2.785141 18.383474,-1.914476 8.099091,-4.699616 10.841393,-15.043679 10.841393,-15.043679 z"
       id="path1-8"
       sodipodi:nodetypes="czczc" /><path
       style="fill:#000000;fill-opacity:0.2;stroke:#1a1a1a;stroke-width:0;stroke-linejoin:round;stroke-dasharray:none"
       d="m 17.075115,22.587535 c 0,0 -1.797576,9.019521 2.466823,16.350478 4.264401,7.330956 12.615928,9.905478 12.615928,9.905478 0,0 2.415602,-8.378855 -1.89186,-16.01569 C 25.95855,25.190961 17.075115,22.587535 17.075115,22.587535 Z"
       id="path2-1"
       sodipodi:nodetypes="czczc" /><path
       style="fill:currentColor;fill-opacity:1;stroke:#1a1a1a;stroke-width:2;stroke-linejoin:round;stroke-dasharray:none"
       d="m 3.1839399,34.070937 c 0,0 2.9802682,10.033289 11.0347801,14.707036 8.054512,4.673747 18.190088,2.251118 18.190088,2.251118 0,0 -2.742302,-10.344063 -10.841394,-15.043678 C 13.468322,31.285796 3.1839399,34.070937 3.1839399,34.070937 Z"
       id="path1-7"
       sodipodi:nodetypes="czczc" /></g></svg>
