<?xml version="1.0" encoding="UTF-8"?>
<!-- Created with Inkscape (http://www.inkscape.org/) -->
<svg width="256" height="256" version="1.1" viewBox="0 0 67.733 67.733" xml:space="preserve" xmlns="http://www.w3.org/2000/svg"><g stroke="#1a1a1a" stroke-linejoin="round" stroke-width="2"><path d="m33.873 16.275s-7.1553 7.6107-7.1553 16.958c0 9.3475 7.1553 16.958 7.1553 16.958s7.5421-7.5589 7.5421-16.958c0-9.3992-7.5421-16.958-7.5421-16.958z" fill="var(--avatar-shadow-deep)"/><path d="m51.608 21.066s-9.9829 2.9953-14.633 11.09c-4.6503 8.0952-2.2398 18.282-2.2398 18.282s10.292-2.7561 14.968-10.896c4.676-8.14 1.9049-18.476 1.9049-18.476z" fill="var(--avatar-shadow)"/><path d="m16.159 21.041s-2.4105 10.187 2.2398 18.282c4.6503 8.0952 14.633 11.09 14.633 11.09s2.7712-10.336-1.9049-18.476c-4.676-8.14-14.968-10.896-14.968-10.896z" fill="var(--avatar-shadow)"/><path d="m64.571 34.116s-10.136-2.4226-18.19 2.2511c-8.0545 4.6737-11.035 14.707-11.035 14.707s10.284 2.7851 18.383-1.9145c8.0991-4.6996 10.841-15.044 10.841-15.044z" fill="var(--avatar-main)"/><path d="m3.1839 34.071s2.9803 10.033 11.035 14.707c8.0545 4.6737 18.19 2.2511 18.19 2.2511s-2.7423-10.344-10.841-15.044c-8.0991-4.6996-18.383-1.9145-18.383-1.9145z" fill="var(--avatar-main)"/></g></svg>
