<?xml version="1.0" encoding="UTF-8" standalone="no"?>
<!-- Created with Inkscape (http://www.inkscape.org/) -->

<svg
   width="256"
   height="256"
   viewBox="0 0 67.733332 67.733333"
   version="1.1"
   id="svg1"
   xml:space="preserve"
   inkscape:version="1.4.3 (0d15f75042, 2025-12-25)"
   sodipodi:docname="planet.svg"
   xmlns:inkscape="http://www.inkscape.org/namespaces/inkscape"
   xmlns:sodipodi="http://sodipodi.sourceforge.net/DTD/sodipodi-0.dtd"
   xmlns="http://www.w3.org/2000/svg"
   xmlns:svg="http://www.w3.org/2000/svg"><sodipodi:namedview
     id="namedview1"
     pagecolor="#ffffff"
     bordercolor="#000000"
     borderopacity="0.25"
     inkscape:showpageshadow="2"
     inkscape:pageopacity="0.0"
     inkscape:pagecheckerboard="0"
     inkscape:deskcolor="#d1d1d1"
     inkscape:document-units="mm"
     showguides="true"
     inkscape:zoom="1.2708196"
     inkscape:cx="153.05084"
     inkscape:cy="52.328435"
     inkscape:window-width="990"
     inkscape:window-height="766"
     inkscape:window-x="0"
     inkscape:window-y="0"
     inkscape:window-maximized="1"
     inkscape:current-layer="layer1"><sodipodi:guide
       position="33.866664,53.339584"
       orientation="1,0"
       id="guide18"
       inkscape:locked="false" /></sodipodi:namedview><defs
     id="defs1"><inkscape:path-effect
       effect="fillet_chamfer"
       id="path-effect10"
       is_visible="true"
       lpeversion="1"
       nodesatellites_param="F,0,0,1,0,3.0132632,0,1 @ F,0,0,1,0,0,0,1 @ F,0,0,1,0,0,0,1 @ F,0,0,1,0,0,0,1 @ F,0,0,1,0,0,0,1 @ F,0,0,1,0,0,0,1"
       radius="0"
       unit="px"
       method="auto"
       mode="F"
       chamfer_steps="1"
       flexible="false"
       use_knot_distance="true"
       apply_no_radius="true"
       apply_with_radius="true"
       only_selected="false"
       hide_knots="false" /></defs><g
     inkscape:label="Layer 1"
     inkscape:groupmode="layer"
     id="layer1"><circle
       style="fill:currentColor;fill-opacity:1;stroke:#1a1a1a;stroke-width:2;stroke-linecap:round;stroke-linejoin:round;stroke-miterlimit:10"
       id="path17"
       cx="0.10074161"
       cy="47.936855"
       r="19.472916"
       transform="rotate(-45)" /><path
       id="path19"
       style="fill:#ffffff;fill-opacity:0.24301781;stroke:none;stroke-width:2;stroke-linecap:round;stroke-linejoin:round;stroke-miterlimit:10"
       d="m 25.627286,51.421441 a 19.472916,19.472916 0 0 0 3.65e-4,3.66e-4 19.472916,19.472916 0 0 0 8.431778,1.876366 l 3.66e-4,-3.64e-4 c 4.332041,-2.184119 8.620638,-5.442324 11.2794,-8.101087 2.658763,-2.658762 5.916967,-6.94736 8.101086,-11.2794 l 3.66e-4,-3.65e-4 a 19.472916,19.472916 0 0 0 -1.876368,-8.431778 l -3.66e-4,-3.65e-4 c -1.338051,7.007153 -5.743613,12.693665 -9.493288,16.443338 -3.749674,3.749674 -9.436186,8.155238 -16.443339,9.493289 z" /><path
       id="path20"
       style="fill:#000000;fill-opacity:0.09892059;stroke:none;stroke-width:2;stroke-linecap:round;stroke-linejoin:round;stroke-miterlimit:10"
       d="m 15.726203,40.639726 a 19.472916,19.472916 0 0 0 4.471857,6.954437 l 3.65e-4,3.65e-4 c 6.466387,-1.541467 12.557616,-5.178576 17.458808,-10.079768 4.901191,-4.901191 8.5383,-10.99242 10.079768,-17.458807 a 19.472916,19.472916 0 0 1 -3.65e-4,-3.65e-4 19.472916,19.472916 0 0 0 -6.954438,-4.471858 c -1.525831,5.57498 -5.935694,12.77247 -9.10961,15.946385 -3.173916,3.173916 -10.371406,7.58378 -15.946385,9.109611 z" /><path
       id="path21"
       style="fill:#ffffff;fill-opacity:0.207314;stroke:none;stroke-width:2;stroke-linecap:round;stroke-linejoin:round;stroke-miterlimit:10"
       d="m 15.471147,27.737186 a 19.472916,19.472916 0 0 0 -0.821435,3.636535 c 3.499746,-0.38098 7.60658,-3.215112 10.628975,-6.237507 3.022394,-3.022395 5.856525,-7.129228 6.237506,-10.628975 a 19.472916,19.472916 0 0 0 -3.636536,0.821437 c -0.592955,1.617888 -2.548505,4.906115 -5.02545,7.383058 -2.476944,2.476944 -5.765171,4.432495 -7.38306,5.025452 z" /><path
       id="path26"
       style="fill:#000000;fill-opacity:0.287138;stroke:none;stroke-width:2;stroke-linecap:round;stroke-linejoin:round;stroke-miterlimit:10"
       d="m 27.2185,52.091275 a 19.472916,19.472916 0 0 0 4.356023,1.059316 c 3.670488,-3.014404 7.519886,-6.501854 11.36856,-10.350533 3.848375,-3.848369 7.335928,-7.697968 10.350169,-11.368195 A 19.472916,19.472916 0 0 0 52.233935,27.07657 c -2.818952,4.025731 -6.808012,8.73665 -11.542859,13.471481 -4.735198,4.735215 -9.446639,8.724234 -13.472576,11.543224 z" /><circle
       style="fill:none;fill-opacity:1;stroke:#1a1a1a;stroke-width:2;stroke-linecap:round;stroke-linejoin:round;stroke-miterlimit:10"
       id="circle26"
       cx="0.10074161"
       cy="47.936855"
       r="19.472916"
       transform="rotate(-45)" /><path
       id="ellipse17"
       style="fill:currentColor;fill-opacity:1;stroke:#1a1a1a;stroke-width:2;stroke-linecap:round;stroke-linejoin:round;stroke-miterlimit:10"
       d="M 15.698796,40.392344 A 9.37012,39.877045 45 0 0 5.8682371,62.119844 9.37012,39.877045 45 0 0 40.691211,40.548008 9.37012,39.877045 45 0 0 62.263047,5.7250337 9.37012,39.877045 45 0 0 40.535548,15.555593 a 19.472916,19.472916 0 0 1 3.666134,1.739705 6.185339,28.232687 45 0 1 9.827636,-3.336535 6.185339,28.232687 45 0 1 -15.590114,24.337238 6.185339,28.232687 45 0 1 -24.337239,15.590115 6.185339,28.232687 45 0 1 3.336536,-9.827638 19.472916,19.472916 0 0 1 -1.739705,-3.666134 z" /></g></svg>
