<?xml version="1.0" encoding="UTF-8"?>
<!-- Created with Inkscape (http://www.inkscape.org/) -->
<svg id="svg1" width="256" height="256" version="1.1" viewBox="0 0 67.733 67.733" xml:space="preserve" xmlns="http://www.w3.org/2000/svg"><g id="layer1"><circle id="path17" transform="rotate(-45)" cx=".10074" cy="47.937" r="19.473" fill="currentColor" stroke="#1a1a1a" stroke-linecap="round" stroke-linejoin="round" stroke-miterlimit="10" stroke-width="2"/><path id="path19" d="m25.627 51.421a19.473 19.473 0 0 0 3.65e-4 3.66e-4 19.473 19.473 0 0 0 8.4318 1.8764l3.66e-4 -3.64e-4c4.332-2.1841 8.6206-5.4423 11.279-8.1011 2.6588-2.6588 5.917-6.9474 8.1011-11.279l3.66e-4 -3.65e-4a19.473 19.473 0 0 0-1.8764-8.4318l-3.66e-4 -3.65e-4c-1.3381 7.0072-5.7436 12.694-9.4933 16.443-3.7497 3.7497-9.4362 8.1552-16.443 9.4933z" fill="#fff" fill-opacity=".24302"/><path id="path20" d="m15.726 40.64a19.473 19.473 0 0 0 4.4719 6.9544l3.65e-4 3.65e-4c6.4664-1.5415 12.558-5.1786 17.459-10.08 4.9012-4.9012 8.5383-10.992 10.08-17.459a19.473 19.473 0 0 1-3.65e-4 -3.65e-4 19.473 19.473 0 0 0-6.9544-4.4719c-1.5258 5.575-5.9357 12.772-9.1096 15.946-3.1739 3.1739-10.371 7.5838-15.946 9.1096z" fill-opacity=".098921"/><path id="path21" d="m15.471 27.737a19.473 19.473 0 0 0-0.82144 3.6365c3.4997-0.38098 7.6066-3.2151 10.629-6.2375 3.0224-3.0224 5.8565-7.1292 6.2375-10.629a19.473 19.473 0 0 0-3.6365 0.82144c-0.59296 1.6179-2.5485 4.9061-5.0254 7.3831-2.4769 2.4769-5.7652 4.4325-7.3831 5.0255z" fill="#fff" fill-opacity=".20731"/><path id="path26" d="m27.218 52.091a19.473 19.473 0 0 0 4.356 1.0593c3.6705-3.0144 7.5199-6.5019 11.369-10.351 3.8484-3.8484 7.3359-7.698 10.35-11.368a19.473 19.473 0 0 0-1.0593-4.3553c-2.819 4.0257-6.808 8.7366-11.543 13.471-4.7352 4.7352-9.4466 8.7242-13.473 11.543z" fill-opacity=".28714"/><circle id="circle26" transform="rotate(-45)" cx=".10074" cy="47.937" r="19.473" fill="none" stroke="#1a1a1a" stroke-linecap="round" stroke-linejoin="round" stroke-miterlimit="10" stroke-width="2"/><path id="ellipse17" d="m15.699 40.392a9.3701 39.877 45 0 0-9.8306 21.728 9.3701 39.877 45 0 0 34.823-21.572 9.3701 39.877 45 0 0 21.572-34.823 9.3701 39.877 45 0 0-21.727 9.8306 19.473 19.473 0 0 1 3.6661 1.7397 6.1853 28.233 45 0 1 9.8276-3.3365 6.1853 28.233 45 0 1-15.59 24.337 6.1853 28.233 45 0 1-24.337 15.59 6.1853 28.233 45 0 1 3.3365-9.8276 19.473 19.473 0 0 1-1.7397-3.6661z" fill="currentColor" stroke="#1a1a1a" stroke-linecap="round" stroke-linejoin="round" stroke-miterlimit="10" stroke-width="2"/></g></svg>
