<?xml version="1.0" encoding="UTF-8"?>
<!-- Created with Inkscape (http://www.inkscape.org/) -->
<svg id="svg1" width="256" height="256" version="1.1" viewBox="0 0 67.733 67.733" xml:space="preserve" xmlns="http://www.w3.org/2000/svg"><g id="layer1"><path id="rect16" d="m11.793 29.263c-3.0146 0-5.4415 2.4279-5.4415 5.4438v10.194c0 3.0158 2.4269 5.4438 5.4415 5.4438 3.0146 0 5.4415-2.4279 5.4415-5.4438v-10.194c0-3.0158-2.4269-5.4438-5.4415-5.4438z" fill="var(--avatar-main)" stroke="#1a1a1a" stroke-linecap="round" stroke-linejoin="round" stroke-miterlimit="10" stroke-width="2"/><path id="rect15" d="m55.941 29.263c-3.0146 0-5.4415 2.4279-5.4415 5.4438v10.194c0 3.0158 2.4269 5.4438 5.4415 5.4438 3.0146 0 5.4415-2.4279 5.4415-5.4438v-10.194c0-3.0158-2.4269-5.4438-5.4415-5.4438z" fill="var(--avatar-main)" stroke="#1a1a1a" stroke-linecap="round" stroke-linejoin="round" stroke-miterlimit="10" stroke-width="2"/><rect id="rect14" x="12.129" y="22.017" width="43.474" height="37.253" ry="10.993" fill="var(--avatar-main)" stroke="#1a1a1a" stroke-linecap="round" stroke-linejoin="round" stroke-miterlimit="10" stroke-width="2"/><g id="g18" transform="matrix(1.0762 0 0 1.0767 -2.6565 -3.482)"><path id="path10" d="m36.055 46.145a2.6147 2.6125 0 0 1-2.2644 1.3062 2.6147 2.6125 0 0 1-2.2644-1.3062" fill="none" stroke="#1a1a1a" stroke-linecap="round" stroke-linejoin="round" stroke-miterlimit="10" stroke-width="1.858"/><g id="g7" transform="matrix(1.2354 0 0 1.2344 -8.1555 6.2147)" stroke-width=".75226"><circle id="circle5" cx="28.267" cy="25.942" r="3.4443" fill="#1a1a1a"/><circle id="circle6" cx="27.408" cy="25.213" r="1.3805" fill="#fff"/><circle id="circle7" cx="29.538" cy="27.307" r=".49013" fill="#fff"/></g><g id="g14" transform="matrix(1.2354 0 0 1.2344 5.8925 6.2147)" stroke-width=".75226"><circle id="circle12" cx="28.267" cy="25.942" r="3.4443" fill="#1a1a1a"/><circle id="circle13" cx="27.408" cy="25.213" r="1.3805" fill="#fff"/><circle id="circle14" cx="29.538" cy="27.307" r=".49013" fill="#fff"/></g></g><path id="path16" d="m33.867 22.017 1e-6 -4.8293" fill="var(--avatar-main)" stroke="#1a1a1a" stroke-linecap="round" stroke-linejoin="round" stroke-miterlimit="10" stroke-width="2"/><ellipse id="path17" cx="33.867" cy="13.629" rx="3.5549" ry="3.5589" fill="var(--avatar-main)" stroke="#1a1a1a" stroke-linecap="round" stroke-linejoin="round" stroke-miterlimit="10" stroke-width="2"/></g></svg>
