<?xml version="1.0" encoding="UTF-8"?>
<!-- Created with Inkscape (http://www.inkscape.org/) -->
<svg width="256" height="256" version="1.1" viewBox="0 0 67.733 67.733" xml:space="preserve" xmlns="http://www.w3.org/2000/svg"><path d="m47.982 41.266c4.1199 1.3875 10.255 7.8994 5.0665 18.511-0.67138-5.2602-4.9381-8.5224-9.1551-8.2539" fill="var(--avatar-main)" stroke="#1a1a1a" stroke-linecap="round" stroke-linejoin="round" stroke-miterlimit="10" stroke-width="2"/><path d="m19.698 41.266c-4.1199 1.3875-10.255 7.8994-5.0665 18.511 0.67138-5.2602 4.9381-8.5224 9.1551-8.2539" fill="var(--avatar-main)" stroke="#1a1a1a" stroke-linecap="round" stroke-linejoin="round" stroke-miterlimit="10" stroke-width="2"/><path d="m33.84 5.8208c-15.732 10.439-19.003 35.766-8.784 47.3 2.2833 0.71528 6.7322 0.95756 8.784 0.95756s6.5007-0.24228 8.784-0.95756c10.219-11.534 6.9485-36.862-8.784-47.3z" fill="#d9d9d9"/><path d="m25.753 13.858c-0.06174 0.08941-0.10604 0.19007-0.16692 0.28009 0.06092-0.09008 0.13407-0.17097 0.19585-0.26045-0.01013-0.0062-0.01877-0.01344-0.02894-0.01964zm-1.974 3.3083c-0.12452 0.23168-0.27587 0.4467-0.39532 0.6811 0.11935-0.23419 0.27092-0.44962 0.39532-0.6811zm-0.42891 0.75809c-4.7977 9.4678-5.479 21.063-1.8381 29.522-2.1697-8.8407 0.99543-23.01 5.6141-28.101-1.6777-0.33689-3.0705-0.81109-3.776-1.4216z" fill="#fff"/><path d="m33.84 5.8208c-0.0071 0.00472-0.01464 0.00975-0.0217 0.014469-4.5392 3.0179-8.0393 7.2757-10.476 12.084 1.5638 1.364 6.5594 2.0479 10.498 2.0479 3.9382-2.1e-5 8.9337-0.68397 10.498-2.0479-2.4366-4.8078-5.9366-9.0656-10.476-12.084-0.0071-0.00472-0.01459-0.00975-0.0217-0.014469z" fill="var(--avatar-main)" stroke="#1a1a1a" stroke-linecap="round" stroke-linejoin="round" stroke-miterlimit="10" stroke-width="2"/><path d="m21.7 47.872c0.73317 1.1471 2.4972 4.2798 3.3559 5.2491 2.2832 0.71527 6.7321 0.95756 8.784 0.95756 2.0518-1e-5 6.5007-0.24229 8.784-0.95756 0.85876-0.96931 2.6228-4.102 3.3559-5.2491-2.8688 1.3459-8.9555 1.8035-12.14 1.8035-3.1844-7e-6 -9.2711-0.45759-12.14-1.8035z" fill="#ababab" stroke="#1a1a1a" stroke-linecap="round" stroke-linejoin="round" stroke-miterlimit="10" stroke-width="2"/><path d="m45.859 21.34c2.4132 17.905-2.4903 27.09-7.8998 32.545 1.7131-0.14866 3.4803-0.39218 4.6648-0.76326 6.5803-7.4274 7.567-20.574 3.2349-31.782z" fill-opacity=".098772"/><circle cx="33.84" cy="29.95" r="5.4563" fill="#ade2ff"/><path d="m27.881 16.339c-0.45972 1.2351-1.976 0.31303-1.159-1.0215 0.92098-1.5042 2.8866-4.0131 4.2922-5.2119 1.6093-1.3724 2.8198-1.9785 0.46318 0.45516-1.4791 1.5274-2.6023 3.1074-3.5964 5.7782z" fill="var(--avatar-highlight)"/><path d="m43.09 15.663c-2.853 2.376-5.0313 2.9867-13.37 4.0768 1.3798 0.15146 2.8081 0.22737 4.1191 0.22738 3.9382-2.1e-5 8.9337-0.68397 10.498-2.0479-0.3887-0.76698-0.80422-1.52-1.247-2.2562z" fill="var(--avatar-shadow)"/><path d="m36.438 25.57-6.8328 6.8328c0.22723 0.62396 0.56808 1.1926 0.99683 1.6823l7.5183-7.5183c-0.48969-0.42875-1.0584-0.76959-1.6823-0.99683z" fill="#fff" fill-opacity=".47672"/><path d="m34.729 25.124-5.7368 5.7368c0.02357 0.29698 0.07129 0.58714 0.14138 0.8683l6.4637-6.4637c-0.28116-0.07009-0.57132-0.11781-0.8683-0.14138z" fill="#fff" fill-opacity=".47672"/><g stroke="#1a1a1a" stroke-linecap="round" stroke-linejoin="round" stroke-miterlimit="10" stroke-width="2"><path d="m33.84 5.8208c-15.732 10.439-19.003 35.766-8.784 47.3 2.2833 0.71528 6.7322 0.95756 8.784 0.95756s6.5007-0.24228 8.784-0.95756c10.219-11.534 6.9485-36.862-8.784-47.3z" fill="none"/><path d="m31.906 43.084 1.9338 19.052 1.9338-19.052z" fill="var(--avatar-main)"/><circle cx="33.84" cy="29.95" r="5.4563" fill="none"/><path d="m23.342 17.919c1.5638 1.364 6.5594 2.0479 10.498 2.0479 3.9382-2.1e-5 8.9337-0.68397 10.498-2.0479" fill="none"/></g></svg>
