<?xml version="1.0" encoding="UTF-8" standalone="no"?>
<!-- Created with Inkscape (http://www.inkscape.org/) -->

<svg
   width="256"
   height="256"
   viewBox="0 0 67.733332 67.733333"
   version="1.1"
   id="svg1"
   xml:space="preserve"
   inkscape:version="1.4.3 (0d15f75042, 2025-12-25)"
   sodipodi:docname="rocket.svg"
   xmlns:inkscape="http://www.inkscape.org/namespaces/inkscape"
   xmlns:sodipodi="http://sodipodi.sourceforge.net/DTD/sodipodi-0.dtd"
   xmlns="http://www.w3.org/2000/svg"
   xmlns:svg="http://www.w3.org/2000/svg"><sodipodi:namedview
     id="namedview1"
     pagecolor="#ffffff"
     bordercolor="#000000"
     borderopacity="0.25"
     inkscape:showpageshadow="2"
     inkscape:pageopacity="0.0"
     inkscape:pagecheckerboard="0"
     inkscape:deskcolor="#d1d1d1"
     inkscape:document-units="mm"
     showguides="true"
     inkscape:zoom="3.4569178"
     inkscape:cx="142.46795"
     inkscape:cy="105.58538"
     inkscape:window-width="2544"
     inkscape:window-height="1541"
     inkscape:window-x="0"
     inkscape:window-y="0"
     inkscape:window-maximized="1"
     inkscape:current-layer="layer1"><sodipodi:guide
       position="33.839856,61.9125"
       orientation="1,0"
       id="guide1"
       inkscape:locked="false" /></sodipodi:namedview><defs
     id="defs1" /><g
     inkscape:label="Layer 1"
     inkscape:groupmode="layer"
     id="layer1"><path
       style="fill:currentColor;fill-opacity:1;stroke:#1a1a1a;stroke-width:2;stroke-linecap:round;stroke-linejoin:round;stroke-miterlimit:10;stroke-dasharray:none"
       d="m 47.981937,41.265541 c 4.119862,1.387523 10.25488,7.89935 5.066546,18.510882 -0.671382,-5.260198 -4.938139,-8.522449 -9.155112,-8.253896"
       id="path6"
       sodipodi:nodetypes="ccc" /><path
       style="fill:currentColor;fill-opacity:1;stroke:#1a1a1a;stroke-width:2;stroke-linecap:round;stroke-linejoin:round;stroke-miterlimit:10;stroke-dasharray:none"
       d="m 19.697773,41.265541 c -4.119862,1.387523 -10.25488,7.89935 -5.066546,18.510882 0.671382,-5.260198 4.938139,-8.522449 9.155112,-8.253896"
       id="path12"
       sodipodi:nodetypes="ccc" /><path
       id="path1"
       style="fill:#d9d9d9;fill-opacity:1;stroke:none;stroke-width:2.77;stroke-linecap:round;stroke-linejoin:round;stroke-miterlimit:10"
       d="M 33.839795 5.8208333 C 18.107369 16.25941 14.836875 41.586807 25.055835 53.121305 C 27.339105 53.83659 31.788025 54.07887 33.839795 54.07887 C 35.891565 54.07887 40.340485 53.83659 42.623755 53.121305 C 52.842715 41.586807 49.572221 16.25941 33.839795 5.8208333 z " /><path
       id="path26"
       style="fill:#ffffff;fill-opacity:0.41999999;stroke:none;stroke-width:0.529167;stroke-linecap:round;stroke-linejoin:round;stroke-miterlimit:10;stroke-dasharray:none"
       d="M 25.75295 13.858069 C 25.691214 13.94748 25.646909 14.048137 25.586035 14.138155 C 25.646958 14.048071 25.720102 13.967181 25.781889 13.877706 C 25.771757 13.871488 25.763115 13.864261 25.75295 13.858069 z M 23.77891 17.166394 C 23.654389 17.398071 23.503042 17.613096 23.383586 17.847489 C 23.502939 17.6133 23.654502 17.39787 23.77891 17.166394 z M 23.349996 17.924487 C 18.552334 27.392337 17.871001 38.987806 21.511865 47.446716 C 19.34221 38.60604 22.507295 24.436443 27.125993 19.346106 C 25.448329 19.009218 24.055494 18.53502 23.349996 17.924487 z " /><path
       id="path2"
       style="fill:currentColor;fill-opacity:1;stroke:#1a1a1a;stroke-width:2;stroke-linecap:round;stroke-linejoin:round;stroke-miterlimit:10;stroke-dasharray:none"
       d="M 33.839795 5.8208333 C 33.83269 5.8255493 33.825152 5.8305785 33.818091 5.8353027 C 29.278844 8.8531999 25.778801 13.110978 23.342244 17.918803 C 24.906086 19.282771 29.901632 19.966719 33.839795 19.96674 C 37.777957 19.966719 42.773504 19.282771 44.337345 17.918803 C 41.900788 13.110978 38.400746 8.8531999 33.861499 5.8353027 C 33.854396 5.83058 33.846907 5.8255526 33.839795 5.8208333 z " /><path
       id="path4"
       style="fill:#ababab;fill-opacity:1;stroke:#1a1a1a;stroke-width:2;stroke-linecap:round;stroke-linejoin:round;stroke-miterlimit:10;stroke-dasharray:none"
       d="m 21.699903,47.872205 c 0.733171,1.147103 2.497172,4.279787 3.355932,5.2491 2.283225,0.715271 6.732136,0.957555 8.78396,0.957565 2.051823,-1e-5 6.500734,-0.242294 8.78396,-0.957565 0.85876,-0.969313 2.622761,-4.101997 3.355932,-5.2491 -2.86882,1.345915 -8.955499,1.803501 -12.139892,1.803508 -3.184393,-7e-6 -9.271072,-0.457593 -12.139892,-1.803508 z"
       sodipodi:nodetypes="ccccccc" /><path
       id="path5"
       style="fill:#000000;fill-opacity:0.09877229;stroke:none;stroke-width:2.77;stroke-linecap:round;stroke-linejoin:round;stroke-miterlimit:10"
       d="M 45.8587 21.339783 C 48.271854 39.244445 43.368402 48.429506 37.958923 53.884566 C 39.672056 53.735907 41.43923 53.492384 42.623755 53.121305 C 49.204067 45.693877 50.190751 32.547435 45.8587 21.339783 z " /><circle
       style="fill:#ade2ff;fill-opacity:1;stroke:none;stroke-width:2;stroke-linecap:round;stroke-linejoin:round;stroke-miterlimit:10;stroke-dasharray:none"
       id="path18"
       cx="33.839855"
       cy="29.949776"
       r="5.4562874" /><path
       style="fill:#ffffff;fill-opacity:0.42116001;stroke:none;stroke-width:2.77;stroke-linecap:round;stroke-linejoin:round;stroke-miterlimit:10"
       d="m 27.121243,16.204653 c -0.459724,1.235098 -1.97605,0.313031 -1.158972,-1.021494 0.920983,-1.504231 2.886568,-4.013113 4.292242,-5.2118849 1.609271,-1.3724017 2.819776,-1.9784742 0.463179,0.4551589 -1.479085,1.527435 -2.602326,3.107402 -3.596449,5.77822 z"
       id="path19"
       sodipodi:nodetypes="sssss" /><path
       id="path20"
       style="fill:#000000;fill-opacity:0.1;stroke:none;stroke-width:2.77;stroke-linecap:round;stroke-linejoin:round;stroke-miterlimit:10"
       d="M 43.090393 15.66261 C 40.237418 18.038578 38.059082 18.649279 29.720667 19.739364 C 31.10046 19.890822 32.52875 19.966733 33.839795 19.96674 C 37.777957 19.966719 42.773504 19.282771 44.337345 17.918803 C 43.948645 17.151818 43.533125 16.398798 43.090393 15.66261 z " /><path
       id="rect22"
       style="fill:#ffffff;fill-opacity:0.476719;stroke:none;stroke-width:2.77;stroke-linecap:round;stroke-linejoin:round;stroke-miterlimit:10"
       d="m 36.438207,25.569624 -6.832835,6.832835 c 0.227233,0.623963 0.56808,1.192636 0.996827,1.682324 l 7.518332,-7.518332 C 37.630843,26.137704 37.06217,25.796857 36.438207,25.569624 Z" /><path
       id="rect23"
       style="fill:#ffffff;fill-opacity:0.476719;stroke:none;stroke-width:2.77;stroke-linecap:round;stroke-linejoin:round;stroke-miterlimit:10"
       d="m 34.72886,25.123674 -5.736754,5.736753 c 0.02357,0.296977 0.07129,0.587135 0.141384,0.868297 l 6.463666,-6.463667 c -0.281161,-0.07009 -0.571319,-0.117812 -0.868296,-0.141383 z" /><path
       id="path25"
       style="fill:none;fill-opacity:1;stroke:#1a1a1a;stroke-width:2;stroke-linecap:round;stroke-linejoin:round;stroke-miterlimit:10;stroke-dasharray:none"
       d="M 33.839795 5.8208333 C 18.107369 16.25941 14.836875 41.586807 25.055835 53.121305 C 27.339105 53.83659 31.788025 54.07887 33.839795 54.07887 C 35.891565 54.07887 40.340485 53.83659 42.623755 53.121305 C 52.842715 41.586807 49.572221 16.25941 33.839795 5.8208333 z " /><path
       id="rect6"
       style="fill:currentColor;fill-opacity:1;stroke:#1a1a1a;stroke-width:2;stroke-linecap:round;stroke-linejoin:round;stroke-miterlimit:10;stroke-dasharray:none"
       d="m 31.90595,43.083501 1.933846,19.051971 1.933845,-19.051971 z"
       sodipodi:nodetypes="cccc" /><circle
       style="fill:none;fill-opacity:1;stroke:#1a1a1a;stroke-width:2;stroke-linecap:round;stroke-linejoin:round;stroke-miterlimit:10;stroke-dasharray:none"
       id="circle27"
       cx="33.839855"
       cy="29.949776"
       r="5.4562874" /></g></svg>
