<?xml version="1.0" encoding="UTF-8" standalone="no"?>
<!-- Created with Inkscape (http://www.inkscape.org/) -->

<svg
   width="256"
   height="256"
   viewBox="0 0 67.733332 67.733333"
   version="1.1"
   id="svg1"
   inkscape:version="1.4.3 (0d15f75042, 2025-12-25)"
   sodipodi:docname="rose.svg"
   xmlns:inkscape="http://www.inkscape.org/namespaces/inkscape"
   xmlns:sodipodi="http://sodipodi.sourceforge.net/DTD/sodipodi-0.dtd"
   xmlns="http://www.w3.org/2000/svg"
   xmlns:svg="http://www.w3.org/2000/svg">
  <sodipodi:namedview
     id="namedview1"
     pagecolor="#ffffff"
     bordercolor="#000000"
     borderopacity="0.25"
     inkscape:showpageshadow="2"
     inkscape:pageopacity="0.0"
     inkscape:pagecheckerboard="0"
     inkscape:deskcolor="#d1d1d1"
     inkscape:document-units="mm"
     inkscape:zoom="3.2140777"
     inkscape:cx="71.093489"
     inkscape:cy="129.58616"
     inkscape:window-width="2560"
     inkscape:window-height="1600"
     inkscape:window-x="0"
     inkscape:window-y="0"
     inkscape:window-maximized="1"
     inkscape:current-layer="layer1" />
  <defs
     id="defs1" />
  <g
     inkscape:label="Layer 1"
     inkscape:groupmode="layer"
     id="layer1">
    <path
       style="fill:currentColor;fill-opacity:1;stroke:#1a1a1a;stroke-width:2;stroke-dasharray:none;stroke-linejoin:round"
       d="m 33.261294,59.198786 c 0,0 -0.31438,-12.879132 -8.405333,-21.042952 -8.090959,-8.16382 -20.9517781,-8.578527 -20.9517781,-8.578527 0,0 -0.069499,13.170822 8.0662411,21.379827 8.135742,8.209006 21.29087,8.241652 21.29087,8.241652 z"
       id="path1-8-3"
       sodipodi:nodetypes="czczc" />
    <path
       style="fill:currentColor;fill-opacity:1;stroke:#1a1a1a;stroke-width:2;stroke-dasharray:none;stroke-linejoin:round"
       d="m 16.026442,22.657773 -0.232731,31.17283 c 5.040881,3.508949 10.88412,5.059272 16.939074,5.241202 6.089082,0.224391 18.368666,-5.956906 18.368666,-5.956906 V 22.657773 Z"
       id="path2"
       sodipodi:nodetypes="ccsccc" />
    <path
       style="fill:currentColor;fill-opacity:1;stroke:#1a1a1a;stroke-width:2;stroke-dasharray:none;stroke-linejoin:round"
       d="m 31.916436,20.019606 c 4.315619,-0.140159 9.492072,-1.297995 9.280365,-4.344196 -0.211709,-3.046202 -18.931514,-0.995446 -18.628145,4.90202 0.303369,5.897465 16.987577,5.115975 22.596975,-0.694301 4.347081,-4.502754 6.432726,0.863003 5.883886,1.780688 -4.098621,6.853095 -23.829318,10.618406 -30.998947,5.748662 -5.07618,-3.447837 -5.625055,-9.016768 -0.602958,-12.980838 10.095317,-7.9684957 35.108676,-6.2814969 25.612482,5.463691 -4.018475,4.970177 -22.181644,6.711103 -22.486193,0.711826 -0.304551,-5.999279 18.58475,-8.049999 18.64227,-4.850234 0.05753,3.199764 -5.181846,3.987385 -9.303381,4.127952 z"
       id="path1"
       sodipodi:nodetypes="czzssssszzcc" />
    <path
       style="fill:#000000;fill-opacity:0.2;stroke:#1a1a1a;stroke-width:0;stroke-dasharray:none;stroke-linejoin:round"
       d="m 49.911875,27.930655 c 0,0 -7.348291,1.285347 -13.337314,10.364051 -5.989023,9.078705 -5.058262,19.4591 -5.058262,19.4591 13.19159,1.490222 18.406223,-10.389702 18.395576,-29.823151 z"
       id="path1-8-0"
       sodipodi:nodetypes="czcc" />
    <path
       style="fill:currentColor;fill-opacity:1;stroke:#1a1a1a;stroke-width:2;stroke-dasharray:none;stroke-linejoin:round"
       d="m 62.371436,27.441908 c 0,0 -12.794918,1.366318 -20.260366,10.107144 -7.465448,8.740829 -6.827155,21.607946 -6.827155,21.607946 0,0 13.116656,-1.007104 20.623426,-9.796312 7.506766,-8.789208 6.464095,-21.918778 6.464095,-21.918778 z"
       id="path1-8"
       sodipodi:nodetypes="czczc" />
    <path
       style="fill:#000000;fill-opacity:0.2;stroke:#1a1a1a;stroke-width:0;stroke-dasharray:none;stroke-linejoin:round"
       d="m 13.121559,50.400463 0.0037,-17.812291 c 0,0 0.615491,0.206297 0.898666,0.307515 0.283175,0.101222 0.800666,0.298513 0.800666,0.298513 l 3.38e-4,18.690871 c 0,0 -0.147673,-0.105942 -0.898908,-0.73999 -0.751234,-0.634049 -0.804491,-0.744618 -0.804491,-0.744618 z"
       id="path3"
       sodipodi:nodetypes="cczcczc" />
    <path
       style="fill:#000000;fill-opacity:0.2;stroke:#1a1a1a;stroke-width:0;stroke-dasharray:none;stroke-linejoin:round"
       d="m 17.507534,22.653115 c 8.06617,7.895694 24.866128,3.966733 32.296915,-1.984415 0,0 0.04734,0.135084 0.08029,0.258216 0.03296,0.123131 0.0449,0.260302 0.0449,0.260302 0,0 -1.42241,2.532521 -6.193989,4.448283 -3.422574,1.374143 -6.262591,1.984435 -9.037224,2.40773 -2.597441,0.396263 -6.761035,0.649954 -10.529528,-0.189694 C 20.400405,27.01389 18.028513,24.35585 17.50753,22.653115 Z"
       id="path4"
       sodipodi:nodetypes="sczcsszss" />
    <path
       style="fill:#000000;fill-opacity:0.2;stroke:#1a1a1a;stroke-width:0;stroke-dasharray:none;stroke-linejoin:round"
       d="m 23.776707,20.603825 c 3.324914,2.069185 18.34612,3.316472 22.159352,-5.899855 0,0 -0.07561,-0.565026 0.03442,0.226006 0.110025,0.791031 -0.494953,3.484972 -3.064174,5.282447 -2.254715,1.577441 -5.339313,2.209392 -7.283379,2.575723 -1.620698,0.305396 -4.450819,0.579033 -7.296806,0.276698 -2.845987,-0.302334 -4.373866,-1.1255 -4.53951,-2.385667 z"
       id="path4-9"
       sodipodi:nodetypes="cczsszsc" />
    <path
       style="fill:#000000;fill-opacity:0.2;stroke:#1a1a1a;stroke-width:0;stroke-dasharray:none;stroke-linejoin:round"
       d="M 41.774625,14.221371 C 37.963502,11.603923 23.602066,13.700311 21.614809,19.016397 21.742251,13.485848 38.169515,9.8222694 41.694067,14.105946 Z"
       id="path4-9-1"
       sodipodi:nodetypes="ccsc" />
    <path
       style="fill:#000000;fill-opacity:0.2;stroke:#1a1a1a;stroke-width:0;stroke-dasharray:none;stroke-linejoin:round"
       d="m 39.992147,15.94821 c 0.01317,-0.0057 -0.02164,0.355438 -0.234561,0.63706 -0.317256,0.41961 -0.985175,0.871497 -1.93754,1.213607 -1.939242,0.696619 -4.885952,0.886499 -7.148342,0.91653 -0.007,9.3e-5 0.01614,-0.17972 0.01614,-0.17972 6.004932,-0.70491 6.695709,-1.466565 9.304298,-2.587477 z"
       id="path4-8"
       sodipodi:nodetypes="sssssss" />
  </g>
</svg>
