<?xml version="1.0" encoding="UTF-8"?>
<!-- Created with Inkscape (http://www.inkscape.org/) -->
<svg width="256" height="256" version="1.1" viewBox="0 0 67.733 67.733" xmlns="http://www.w3.org/2000/svg">
 <path d="m24.856 38.156c-8.091-8.1638-20.952-8.5785-20.952-8.5785s-0.069499 13.171 8.0662 21.38c8.1357 8.209 20.762 8.1147 20.762 8.1147s0.21435-12.752-7.8766-20.916z" fill="var(--avatar-main)" stroke="#1a1a1a" stroke-linejoin="round" stroke-width="2"/>
 <path d="m13.139 52.056 0.01174-20.723c1.0956 0.52091 2.2534 0.801 3.3476 1.2543l-0.70516 21.244c-0.26936-0.19848-2.0117-1.026-2.6542-1.7754z" fill="var(--avatar-shadow)" stroke-width="0"/>
 <path d="m24.856 38.156c-8.091-8.1638-20.952-8.5785-20.952-8.5785s-0.069499 13.171 8.0662 21.38c8.1357 8.209 20.762 8.1147 20.762 8.1147s0.21435-12.752-7.8766-20.916z" fill="none" stroke="#1a1a1a" stroke-linejoin="round" stroke-width="2"/>
 <path d="m16.026 21.706-0.23273 32.125c5.0409 3.5089 10.884 5.0593 16.939 5.2412 6.0891 0.22439 17.942-6.4792 17.942-6.4792l0.42686-31.055z" fill="var(--avatar-main)" stroke="#1a1a1a" stroke-linejoin="round" stroke-width="2"/>
 <path d="m51.024 28.044s-8.4608 1.1718-14.449 10.251c-5.989 9.0787-5.5386 20.698-5.5386 20.698 13.192 1.4902 19.988-30.949 19.988-30.949z" fill="var(--avatar-shadow)" stroke-width="0"/>
 <path d="m16.026 21.706-0.23273 32.125c5.0409 3.5089 10.884 5.0593 16.939 5.2412 6.0891 0.22439 17.942-6.4792 17.942-6.4792l0.42686-31.055z" fill="none" stroke="#1a1a1a" stroke-linejoin="round" stroke-width="2"/>
 <path d="m31.916 20.02c4.3156-0.14016 9.4921-1.298 9.2804-4.3442-0.21171-3.0462-18.932-0.99545-18.628 4.902 0.30337 5.8975 16.988 5.116 22.597-0.6943 4.3471-4.5028 6.4327 0.863 5.8839 1.7807-4.0986 6.8531-23.829 10.618-30.999 5.7487-5.0762-3.4478-5.6251-9.0168-0.60296-12.981 10.095-7.9685 35.109-6.2815 25.612 5.4637-4.0185 4.9702-22.182 6.7111-22.486 0.71183-0.30455-5.9993 18.585-8.05 18.642-4.8502 0.05753 3.1998-5.1818 3.9874-9.3034 4.128z" fill="var(--avatar-main)" stroke="#1a1a1a" stroke-linejoin="round" stroke-width="2"/>
 <g fill="var(--avatar-shadow)" stroke-width="0">
  <path d="m16.02 21.667c8.0662 7.8957 27.491 4.5619 34.922-1.3892 0.03205 0.09216-0.98566 4.1178-6.2568 6.2341-3.4226 1.3741-5.7781 2.1017-8.5527 2.525-2.5974 0.39626-8.8991 0.70079-12.668-0.13885-3.3791-1.0518-6.1571-3.9553-7.4448-7.2311z"/>
  <path d="m23.414 20.557c2.0775 2.9536 19.693 3.0911 22.825-6.0799 0.66759 1.542-0.69782 5.0777-2.5475 6.6542-2.2547 1.5774-5.1284 2.5176-7.0725 2.8839-1.6207 0.3054-5.431 0.57373-8.277 0.2714-1.4098-0.14977-4.6889-1.8428-4.9277-3.7296z"/>
  <path d="m41.665 14.522c-3.8111-2.6174-17.899-0.48748-19.886 4.8286 0.13974-6.0643 17.051-8.8722 19.886-4.8286z"/>
  <path d="m40.734 16.249c0.01317-0.0057-0.02164 0.35544-0.23456 0.63706-0.31726 0.41961-0.98518 0.8715-1.9375 1.2136-2.2527 0.80922-6.8485 1.2908-6.7992 0.90331 5.7627-0.81086 6.9986-1.8446 8.5023-3.2228z"/>
 </g>
 <g stroke="#1a1a1a" stroke-linejoin="round" stroke-width="2">
  <path d="m31.916 20.02c4.3156-0.14016 9.4921-1.298 9.2804-4.3442-0.21171-3.0462-18.932-0.99545-18.628 4.902 0.30337 5.8975 16.988 5.116 22.597-0.6943 4.3471-4.5028 6.4327 0.863 5.8839 1.7807-4.0986 6.8531-23.829 10.618-30.999 5.7487-5.0762-3.4478-5.6251-9.0168-0.60296-12.981 10.095-7.9685 35.109-6.2815 25.612 5.4637-4.0185 4.9702-22.182 6.7111-22.486 0.71183-0.30455-5.9993 18.585-8.05 18.642-4.8502 0.05753 3.1998-5.1818 3.9874-9.3034 4.128z" fill="none"/>
  <path d="m60.662 27.35s-12.795 1.3663-20.26 10.107c-7.4654 8.7408-6.8272 21.608-6.8272 21.608s13.117-1.0071 20.623-9.7963c7.5068-8.7892 6.4641-21.919 6.4641-21.919z" fill="var(--avatar-main)"/>
  <path d="m60.662 27.35s-12.795 1.3663-20.26 10.107c-7.4654 8.7408-6.8272 21.608-6.8272 21.608s13.117-1.0071 20.623-9.7963c7.5068-8.7892 6.4641-21.919 6.4641-21.919z" fill="none"/>
 </g>
</svg>
