<?xml version="1.0" encoding="UTF-8"?>
<!-- Created with Inkscape (http://www.inkscape.org/) -->
<svg id="svg1" width="256" height="256" version="1.1" viewBox="0 0 67.733 67.733" xmlns="http://www.w3.org/2000/svg">
 <g id="layer1">
  <path id="path1-8-3" d="m33.261 59.199s-0.31438-12.879-8.4053-21.043c-8.091-8.1638-20.952-8.5785-20.952-8.5785s-0.069499 13.171 8.0662 21.38c8.1357 8.209 21.291 8.2417 21.291 8.2417z" fill="currentColor" stroke="#1a1a1a" stroke-linejoin="round" stroke-width="2"/>
  <path id="path2" d="m16.026 22.658-0.23273 31.173c5.0409 3.5089 10.884 5.0593 16.939 5.2412 6.0891 0.22439 18.369-5.9569 18.369-5.9569v-30.457z" fill="currentColor" stroke="#1a1a1a" stroke-linejoin="round" stroke-width="2"/>
  <path id="path1" d="m31.916 20.02c4.3156-0.14016 9.4921-1.298 9.2804-4.3442-0.21171-3.0462-18.932-0.99545-18.628 4.902 0.30337 5.8975 16.988 5.116 22.597-0.6943 4.3471-4.5028 6.4327 0.863 5.8839 1.7807-4.0986 6.8531-23.829 10.618-30.999 5.7487-5.0762-3.4478-5.6251-9.0168-0.60296-12.981 10.095-7.9685 35.109-6.2815 25.612 5.4637-4.0185 4.9702-22.182 6.7111-22.486 0.71183-0.30455-5.9993 18.585-8.05 18.642-4.8502 0.05753 3.1998-5.1818 3.9874-9.3034 4.128z" fill="currentColor" stroke="#1a1a1a" stroke-linejoin="round" stroke-width="2"/>
  <path id="path1-8-0" d="m49.912 27.931s-7.3483 1.2853-13.337 10.364c-5.989 9.0787-5.0583 19.459-5.0583 19.459 13.192 1.4902 18.406-10.39 18.396-29.823z" fill-opacity=".2" stroke-width="0"/>
  <path id="path1-8" d="m62.371 27.442s-12.795 1.3663-20.26 10.107c-7.4654 8.7408-6.8272 21.608-6.8272 21.608s13.117-1.0071 20.623-9.7963c7.5068-8.7892 6.4641-21.919 6.4641-21.919z" fill="currentColor" stroke="#1a1a1a" stroke-linejoin="round" stroke-width="2"/>
  <path id="path3" d="m13.122 50.4 0.0037-17.812s0.61549 0.2063 0.89867 0.30752c0.28318 0.10122 0.80067 0.29851 0.80067 0.29851l3.38e-4 18.691s-0.14767-0.10594-0.89891-0.73999c-0.75123-0.63405-0.80449-0.74462-0.80449-0.74462z" fill-opacity=".2" stroke-width="0"/>
  <path id="path4" d="m17.508 22.653c8.0662 7.8957 24.866 3.9667 32.297-1.9844 0 0 0.04734 0.13508 0.08029 0.25822 0.03296 0.12313 0.0449 0.2603 0.0449 0.2603s-1.4224 2.5325-6.194 4.4483c-3.4226 1.3741-6.2626 1.9844-9.0372 2.4077-2.5974 0.39626-6.761 0.64995-10.53-0.18969-3.7685-0.83965-6.1404-3.4977-6.6614-5.2004z" fill-opacity=".2" stroke-width="0"/>
  <path id="path4-9" d="m23.777 20.604c3.3249 2.0692 18.346 3.3165 22.159-5.8999 0 0-0.07561-0.56503 0.03442 0.22601 0.11002 0.79103-0.49495 3.485-3.0642 5.2824-2.2547 1.5774-5.3393 2.2094-7.2834 2.5757-1.6207 0.3054-4.4508 0.57903-7.2968 0.2767-2.846-0.30233-4.3739-1.1255-4.5395-2.3857z" fill-opacity=".2" stroke-width="0"/>
  <path id="path4-9-1" d="m41.775 14.221c-3.8111-2.6174-18.173-0.52106-20.16 4.795 0.12744-5.5305 16.555-9.1941 20.079-4.9105z" fill-opacity=".2" stroke-width="0"/>
  <path id="path4-8" d="m39.992 15.948c0.01317-0.0057-0.02164 0.35544-0.23456 0.63706-0.31726 0.41961-0.98518 0.8715-1.9375 1.2136-1.9392 0.69662-4.886 0.8865-7.1483 0.91653-7e-3 9.3e-5 0.01614-0.17972 0.01614-0.17972 6.0049-0.70491 6.6957-1.4666 9.3043-2.5875z" fill-opacity=".2" stroke-width="0"/>
 </g>
</svg>
