<?xml version="1.0" encoding="UTF-8" standalone="no"?>
<!-- Created with Inkscape (http://www.inkscape.org/) -->

<svg
   width="256"
   height="256"
   viewBox="0 0 67.733332 67.733333"
   version="1.1"
   id="svg1"
   xml:space="preserve"
   inkscape:version="1.4.3 (0d15f75042, 2025-12-25)"
   sodipodi:docname="shiba-inu.svg"
   xmlns:inkscape="http://www.inkscape.org/namespaces/inkscape"
   xmlns:sodipodi="http://sodipodi.sourceforge.net/DTD/sodipodi-0.dtd"
   xmlns="http://www.w3.org/2000/svg"
   xmlns:svg="http://www.w3.org/2000/svg"><sodipodi:namedview
     id="namedview1"
     pagecolor="#ffffff"
     bordercolor="#000000"
     borderopacity="0.25"
     inkscape:showpageshadow="2"
     inkscape:pageopacity="0.0"
     inkscape:pagecheckerboard="0"
     inkscape:deskcolor="#d1d1d1"
     inkscape:document-units="mm"
     showguides="true"
     inkscape:zoom="2.9109109"
     inkscape:cx="139.64701"
     inkscape:cy="75.749483"
     inkscape:window-width="2560"
     inkscape:window-height="1600"
     inkscape:window-x="0"
     inkscape:window-y="0"
     inkscape:window-maximized="1"
     inkscape:current-layer="layer1"
     showgrid="false"><sodipodi:guide
       position="158.32902,138.53372"
       orientation="1,0"
       id="guide25"
       inkscape:locked="false" /></sodipodi:namedview><defs
     id="defs1" /><g
     inkscape:label="Layer 1"
     inkscape:groupmode="layer"
     id="layer1"><path
       style="fill:currentColor;fill-opacity:1;stroke:#1a1a1a;stroke-width:2;stroke-linecap:round;stroke-linejoin:round;stroke-miterlimit:10"
       d="M 12.558171,30.362329 C 8.2219573,19.172774 10.648243,8.015417 13.826416,7.072626 17.667468,5.9331957 23.719937,11.39117 25.16912,19.151779 l -5.390677,3.176168 -3.960071,3.694696 z"
       id="path65"
       sodipodi:nodetypes="csc" /><path
       style="fill:currentColor;fill-opacity:1;stroke:#1a1a1a;stroke-width:2;stroke-linecap:round;stroke-linejoin:round;stroke-miterlimit:10"
       d="M 55.174942,30.362329 C 59.511155,19.172774 57.08487,8.015417 53.906697,7.072626 50.065645,5.9331957 44.013176,11.39117 42.563993,19.151779 l 5.390677,3.176168 3.960072,3.694696 z"
       id="path18"
       sodipodi:nodetypes="csc" /><path
       style="fill:#ffffff;fill-opacity:0.342976;stroke:none;stroke-width:2;stroke-linecap:round;stroke-linejoin:round;stroke-miterlimit:10"
       d="m 45.993761,20.957548 c 1.473946,-4.267324 4.489561,-9.365885 6.132433,-8.696917 1.642871,0.668969 2.035943,9.100774 0.236,14.274307"
       id="path66"
       sodipodi:nodetypes="csc" /><path
       style="fill:#ffffff;fill-opacity:0.342976;stroke:none;stroke-width:2;stroke-linecap:round;stroke-linejoin:round;stroke-miterlimit:10"
       d="M 21.739074,20.957548 C 20.265128,16.690224 17.249513,11.591662 15.606641,12.260631 13.96377,12.9296 13.570698,21.361404 15.370642,26.534938"
       id="path67"
       sodipodi:nodetypes="csc" /><path
       id="path1"
       style="fill:currentColor;fill-opacity:1;stroke:none;stroke-width:2;stroke-linecap:round;stroke-linejoin:round;stroke-miterlimit:10"
       d="m 33.866355,13.407978 c -15.756577,0 -26.2151793,16.570506 -26.2151793,28.645092 0,8.092542 18.6288273,21.130348 26.2151793,21.130348 7.586351,0 26.215803,-13.037805 26.215803,-21.130347 0,-12.074586 -10.459227,-28.645093 -26.215803,-28.645093 z" /><path
       id="path64"
       style="fill:#ffffff;fill-opacity:0.631605;stroke:none;stroke-width:2;stroke-linecap:round;stroke-linejoin:round;stroke-miterlimit:10"
       d="m 16.942024,35.136435 c -3.808712,0 -8.7105767,1.733361 -9.2908483,6.916635 l 1.8539265,5.08675 3.5961558,4.333343 4.741209,4.125033 7.705869,4.913369 8.318019,2.671853 V 45.609929 C 27.930704,45.609906 21.673042,35.136435 16.942024,35.136435 Z m 16.924331,10.473494 6.24e-4,17.573489 8.318021,-2.671853 7.705868,-4.913368 4.741208,-4.125033 3.596155,-4.333343 1.853927,-5.08675 c -0.580272,-5.183274 -5.482136,-6.916635 -9.290848,-6.916635 -4.731018,0 -10.989303,10.473472 -16.924955,10.473493 z" /><path
       id="path61"
       style="fill:#000000;fill-opacity:0.353181;stroke:none;stroke-width:2;stroke-linecap:round;stroke-linejoin:round;stroke-miterlimit:10"
       d="m 33.866557,55.745236 c 2.18137,0 3.859029,-1.872539 4.312231,-2.894997 m -4.312231,2.894998 c -2.181371,0 -3.85903,-1.87254 -4.312232,-2.894998 l 4.312232,-2.013224 4.312231,2.013224" /><g
       id="g15"
       transform="matrix(0.90870552,0,0,0.90784519,16.624368,8.546014)"
       style="stroke-width:1.10099"><circle
         style="fill:#1a1a1a;stroke:none;stroke-width:2.20196;stroke-linecap:round;stroke-linejoin:round;stroke-miterlimit:10"
         id="circle10"
         cx="28.267347"
         cy="25.942007"
         r="3.4442995" /><circle
         style="fill:#ffffff;fill-opacity:1;stroke:none;stroke-width:2.20196;stroke-linecap:round;stroke-linejoin:round;stroke-miterlimit:10"
         id="circle11"
         cx="27.408236"
         cy="25.212543"
         r="1.3805408" /><circle
         style="fill:#ffffff;fill-opacity:1;stroke:none;stroke-width:2.20196;stroke-linecap:round;stroke-linejoin:round;stroke-miterlimit:10"
         id="circle15"
         cx="29.537535"
         cy="27.307114"
         r="0.4901334" /></g><path
       id="path53"
       style="fill:none;fill-opacity:0.15;stroke:#1a1a1a;stroke-width:2;stroke-linecap:round;stroke-linejoin:round;stroke-miterlimit:10"
       d="m 33.866557,55.745236 c -2.181371,0 -3.85903,-1.872539 -4.312232,-2.894997 m 4.312232,2.894998 c 2.18137,0 3.859029,-1.87254 4.312231,-2.894998" /><g
       id="g55"
       transform="matrix(0.90870552,0,0,0.90784519,-0.26464712,8.546014)"
       style="stroke-width:1.10099"><circle
         style="fill:#1a1a1a;stroke:none;stroke-width:2.20196;stroke-linecap:round;stroke-linejoin:round;stroke-miterlimit:10"
         id="circle53"
         cx="28.267347"
         cy="25.942007"
         r="3.4442995" /><circle
         style="fill:#ffffff;fill-opacity:1;stroke:none;stroke-width:2.20196;stroke-linecap:round;stroke-linejoin:round;stroke-miterlimit:10"
         id="circle54"
         cx="27.408236"
         cy="25.212543"
         r="1.3805408" /><circle
         style="fill:#ffffff;fill-opacity:1;stroke:none;stroke-width:2.20196;stroke-linecap:round;stroke-linejoin:round;stroke-miterlimit:10"
         id="circle55"
         cx="29.537535"
         cy="27.307114"
         r="0.4901334" /></g><path
       id="path57"
       style="fill:none;fill-opacity:0.15;stroke:#1a1a1a;stroke-width:2;stroke-linecap:round;stroke-linejoin:round;stroke-miterlimit:10"
       d="m 33.866557,50.837014 c -2.617261,0 -3.99783,2.565919 -5.982398,2.565919 -1.984569,0 -4.580595,-5.227986 -5.263418,-8.969015 m 11.245816,6.403096 c 2.61726,0 3.99783,2.565919 5.982397,2.565919 1.984569,0 4.580596,-5.227986 5.263418,-8.969015" /><path
       id="path2"
       style="fill:#1a1a1a;fill-opacity:1;stroke:#1a1a1a;stroke-width:2;stroke-linecap:round;stroke-linejoin:round;stroke-miterlimit:10"
       d="m 33.866557,43.112559 c -1.733501,0 -3.128789,0.868571 -3.128789,2.172414 0,1.303844 1.670955,2.198067 3.128789,2.866418 1.457831,-0.668351 3.128788,-1.562574 3.128788,-2.866418 0,-1.303843 -1.395289,-2.172414 -3.128788,-2.172414 z" /><path
       style="fill:none;fill-opacity:0.15;stroke:#1a1a1a;stroke-width:2;stroke-linecap:round;stroke-linejoin:round;stroke-miterlimit:10"
       d="m 33.866557,48.151391 v 2.685623"
       id="path37"
       sodipodi:nodetypes="cc" /><path
       id="path63"
       style="fill:none;fill-opacity:1;stroke:#1a1a1a;stroke-width:2;stroke-linecap:round;stroke-linejoin:round;stroke-miterlimit:10"
       d="m 33.866355,13.407978 c -15.756577,0 -26.2151793,16.570506 -26.2151793,28.645092 0,8.092542 18.6288273,21.130348 26.2151793,21.130348 7.586351,0 26.215803,-13.037805 26.215803,-21.130347 0,-12.074586 -10.459227,-28.645093 -26.215803,-28.645093 z" /></g></svg>
