<?xml version="1.0" encoding="UTF-8"?>
<!-- Created with Inkscape (http://www.inkscape.org/) -->
<svg width="256" height="256" version="1.1" viewBox="0 0 67.733 67.733" xml:space="preserve" xmlns="http://www.w3.org/2000/svg"><path d="m12.558 30.362c-4.3362-11.19-1.9099-22.347 1.2682-23.29 3.8411-1.1394 9.8935 4.3185 11.343 12.079l-5.3907 3.1762-3.9601 3.6947z" fill="var(--avatar-main)" stroke="#1a1a1a" stroke-linecap="round" stroke-linejoin="round" stroke-miterlimit="10" stroke-width="2"/><path d="m55.175 30.362c4.3362-11.19 1.9099-22.347-1.2682-23.29-3.8411-1.1394-9.8935 4.3185-11.343 12.079l5.3907 3.1762 3.9601 3.6947z" fill="var(--avatar-main)" stroke="#1a1a1a" stroke-linecap="round" stroke-linejoin="round" stroke-miterlimit="10" stroke-width="2"/><path d="m45.994 20.958c1.4739-4.2673 4.4896-9.3659 6.1324-8.6969 1.6429 0.66897 2.0359 9.1008 0.236 14.274" fill="var(--avatar-highlight)"/><path d="m21.739 20.958c-1.4739-4.2673-4.4896-9.3659-6.1324-8.6969-1.6429 0.66897-2.0359 9.1008-0.236 14.274" fill="var(--avatar-highlight)"/><path d="m33.866 13.408c-15.757 0-26.215 16.571-26.215 28.645 0 8.0925 18.629 21.13 26.215 21.13 7.5864 0 26.216-13.038 26.216-21.13 0-12.075-10.459-28.645-26.216-28.645z" fill="var(--avatar-main)"/><path d="m16.942 35.136c-3.8087 0-8.7106 1.7334-9.2908 6.9166l1.8539 5.0868 3.5962 4.3333 4.7412 4.125 7.7059 4.9134 8.318 2.6719v-17.573c-5.9357-2.3e-5 -12.193-10.473-16.924-10.473zm16.924 10.473 6.24e-4 17.573 8.318-2.6719 7.7059-4.9134 4.7412-4.125 3.5962-4.3333 1.8539-5.0868c-0.58027-5.1833-5.4821-6.9166-9.2908-6.9166-4.731 0-10.989 10.473-16.925 10.473z" fill="var(--avatar-highlight)"/><path d="m33.867 55.745c2.1814 0 3.859-1.8725 4.3122-2.895m-4.3122 2.895c-2.1814 0-3.859-1.8725-4.3122-2.895l4.3122-2.0132 4.3122 2.0132"/><g transform="matrix(.90871 0 0 .90785 16.624 8.546)" stroke-width="1.101"><circle cx="28.267" cy="25.942" r="3.4443" fill="#1a1a1a"/><circle cx="27.408" cy="25.213" r="1.3805" fill="#fff"/><circle cx="29.538" cy="27.307" r=".49013" fill="#fff"/></g><path d="m33.867 55.745c-2.1814 0-3.859-1.8725-4.3122-2.895m4.3122 2.895c2.1814 0 3.859-1.8725 4.3122-2.895" fill="none" stroke="#1a1a1a" stroke-linecap="round" stroke-linejoin="round" stroke-miterlimit="10" stroke-width="2"/><g transform="matrix(.90871 0 0 .90785 -.26465 8.546)" stroke-width="1.101"><circle cx="28.267" cy="25.942" r="3.4443" fill="#1a1a1a"/><circle cx="27.408" cy="25.213" r="1.3805" fill="#fff"/><circle cx="29.538" cy="27.307" r=".49013" fill="#fff"/></g><g stroke="#1a1a1a" stroke-linecap="round" stroke-linejoin="round" stroke-miterlimit="10" stroke-width="2"><path d="m33.867 50.837c-2.6173 0-3.9978 2.5659-5.9824 2.5659s-4.5806-5.228-5.2634-8.969m11.246 6.4031c2.6173 0 3.9978 2.5659 5.9824 2.5659s4.5806-5.228 5.2634-8.969" fill="none"/><path d="m33.867 43.113c-1.7335 0-3.1288 0.86857-3.1288 2.1724 0 1.3038 1.671 2.1981 3.1288 2.8664 1.4578-0.66835 3.1288-1.5626 3.1288-2.8664s-1.3953-2.1724-3.1288-2.1724z" fill="#1a1a1a"/><path d="m33.867 48.151v2.6856" fill="none"/><path d="m33.866 13.408c-15.757 0-26.215 16.571-26.215 28.645 0 8.0925 18.629 21.13 26.215 21.13 7.5864 0 26.216-13.038 26.216-21.13 0-12.075-10.459-28.645-26.216-28.645z" fill="none"/></g></svg>
