<?xml version="1.0" encoding="UTF-8"?>
<!-- Created with Inkscape (http://www.inkscape.org/) -->
<svg width="256" height="256" version="1.1" viewBox="0 0 67.733 67.733" xml:space="preserve" xmlns="http://www.w3.org/2000/svg"><path d="m42.245 27.941c-2.8431-0.10169-5.6354 0.2143-8.3769 0.94843-6.9166-1.781-16.085-0.87094-22.651 3.2463 2.6413 2.1173 15.364 2.8184 22.724 2.8184 7.5914 0 20.888-0.74581 22.943-3.0223-5.0205-2.4912-9.8998-3.8214-14.638-3.9909z" fill="var(--avatar-shadow)"/><path d="m42.245 27.941c-2.8431-0.10169-5.6354 0.2143-8.3769 0.94843-6.9166-1.781-16.085-0.87094-22.651 3.2463 2.6413 2.1173 15.364 2.8184 22.724 2.8184 7.5914 0 20.888-0.74581 22.943-3.0223-5.0205-2.4912-9.8998-3.8214-14.638-3.9909z" fill="none" stroke="#1a1a1a" stroke-linecap="round" stroke-linejoin="round" stroke-miterlimit="10" stroke-width="2"/><ellipse cx="33.868" cy="37.833" rx="14.755" ry="15.851" fill="#f2f2f2" stroke="#1a1a1a" stroke-linecap="round" stroke-linejoin="round" stroke-miterlimit="10" stroke-width="2"/><g transform="matrix(.93439 0 0 .93537 .48841 -4.183)" stroke-width="1.1587"><g transform="matrix(.92396 0 0 .92239 16.308 24.062)"><circle cx="28.267" cy="25.942" r="3.4443" fill="#1a1a1a"/><circle cx="27.408" cy="25.213" r="1.3805" fill="#fff"/><circle cx="29.538" cy="27.307" r=".49013" fill="#fff"/></g><g transform="matrix(.92396 0 0 .92239 2.9044 24.062)"><circle cx="28.267" cy="25.942" r="3.4443" fill="#1a1a1a"/><g stroke-width="1.1587"><circle cx="27.408" cy="25.213" r="1.3805" fill="#fff"/></g><circle cx="29.538" cy="27.307" r=".49013" fill="#fff"/></g></g><path d="m35.227 44.613a1.5682 1.5696 0 0 1-1.3581 0.7848 1.5682 1.5696 0 0 1-1.3581-0.7848" fill="none" stroke="#1a1a1a" stroke-linecap="round" stroke-linejoin="round" stroke-miterlimit="10" stroke-width="2"/><path d="m42.96 58.982c-0.67848-1.2687-1.8636-2.1171-3.0402-2.2555 0.641 2.3339-1.3049 5.4183-7.4082 7.7117 1.0946-2.4471 1.2789-4.7308-0.68628-6.3974-1.2545 0.49146-1.7253 1.8563-1.8064 2.858-3.6712-1.0759-4.4775-4.4444-4.4775-7.8869 0 0-1.9946 0.96404-2.4025 3.1229-0.75754-1.5754-2.2869-10.306 5.7456-10.339 1.0444 1.8725 2.5417 2.8219 5.1526 2.8219 2.1837 0 3.9876-1.2954 4.7947-3.1806 6.8701 0.1592 6.5757 10.336 4.1282 13.545z" fill="#fff" stroke="#1a1a1a" stroke-linecap="round" stroke-linejoin="round" stroke-miterlimit="10" stroke-width="2"/><path d="m41.269 26.349-13.658 1.6878-6.598 2.0149c-1.0248 1.9538-1.652 4.1191-1.8402 6.3526 4.3085-4.5872 18.216-6.4646 28.053-5.3048z" fill-opacity=".10318"/><path d="m36.007 4.1885c-6.5466 5.3317-9.9931 12.247-11.996 20.473-7.3821 2.2818-13.712 6.181-13.085 7.2722 0.8598 1.497 8.1132-3.0335 22.943-3.0444 14.83 0.01082 22.083 4.5414 22.943 3.0444 0.63893-1.1124-5.9512-5.1428-13.516-7.4032-3.0843-5.0481-4.5787-11.038-4.9645-19.221-0.072744-1.5432-1.1279-2.0953-2.3246-1.1206z" fill="var(--avatar-main)" stroke="#1a1a1a" stroke-linecap="round" stroke-linejoin="round" stroke-miterlimit="10" stroke-width="2"/></svg>
