<?xml version="1.0" encoding="UTF-8" standalone="no"?>
<!-- Created with Inkscape (http://www.inkscape.org/) -->

<svg
   width="256"
   height="256"
   viewBox="0 0 67.733332 67.733333"
   version="1.1"
   id="svg1"
   xml:space="preserve"
   inkscape:version="1.4.3 (0d15f75042, 2025-12-25)"
   sodipodi:docname="wizard.svg"
   xmlns:inkscape="http://www.inkscape.org/namespaces/inkscape"
   xmlns:sodipodi="http://sodipodi.sourceforge.net/DTD/sodipodi-0.dtd"
   xmlns="http://www.w3.org/2000/svg"
   xmlns:svg="http://www.w3.org/2000/svg"><sodipodi:namedview
     id="namedview1"
     pagecolor="#ffffff"
     bordercolor="#000000"
     borderopacity="0.25"
     inkscape:showpageshadow="2"
     inkscape:pageopacity="0.0"
     inkscape:pagecheckerboard="0"
     inkscape:deskcolor="#d1d1d1"
     inkscape:document-units="mm"
     showguides="true"
     inkscape:zoom="4.5132733"
     inkscape:cx="232.75789"
     inkscape:cy="134.60297"
     inkscape:window-width="2560"
     inkscape:window-height="1600"
     inkscape:window-x="0"
     inkscape:window-y="0"
     inkscape:window-maximized="1"
     inkscape:current-layer="layer1" /><defs
     id="defs1"><inkscape:path-effect
       effect="fillet_chamfer"
       id="path-effect10"
       is_visible="true"
       lpeversion="1"
       nodesatellites_param="F,0,0,1,0,3.0132632,0,1 @ F,0,0,1,0,0,0,1 @ F,0,0,1,0,0,0,1 @ F,0,0,1,0,0,0,1 @ F,0,0,1,0,0,0,1 @ F,0,0,1,0,0,0,1"
       radius="0"
       unit="px"
       method="auto"
       mode="F"
       chamfer_steps="1"
       flexible="false"
       use_knot_distance="true"
       apply_no_radius="true"
       apply_with_radius="true"
       only_selected="false"
       hide_knots="false" /></defs><g
     inkscape:label="Layer 1"
     inkscape:groupmode="layer"
     id="layer1"><path
       id="path9"
       style="fill:currentColor;stroke:#1a1a1a;stroke-width:2;stroke-linecap:round;stroke-linejoin:round;stroke-miterlimit:10"
       d="m 42.244831,27.940959 c -2.843063,-0.101693 -5.635364,0.214296 -8.376891,0.94843 -6.916596,-1.780966 -16.084972,-0.870942 -22.651436,3.246346 2.64128,2.117268 15.363852,2.818422 22.723791,2.818422 7.591433,0 20.888307,-0.74581 22.94277,-3.022308 -5.020483,-2.491228 -9.899794,-3.821402 -14.638234,-3.99089 z" /><path
       id="path10"
       style="fill:#1a1a1a;fill-opacity:0.259399;stroke:none;stroke-width:2;stroke-linecap:round;stroke-linejoin:round;stroke-miterlimit:10"
       d="m 42.244831,27.940959 c -2.843063,-0.101693 -5.635364,0.214296 -8.376891,0.94843 -6.916596,-1.780966 -16.084972,-0.870942 -22.651436,3.246346 2.64128,2.117268 15.363852,2.818422 22.723791,2.818422 7.591433,0 20.888307,-0.74581 22.94277,-3.022308 -5.020483,-2.491228 -9.899794,-3.821402 -14.638234,-3.99089 z" /><ellipse
       style="fill:#f2f2f2;stroke:#1a1a1a;stroke-width:2;stroke-linecap:round;stroke-linejoin:round;stroke-miterlimit:10;fill-opacity:1"
       id="path1"
       cx="33.867939"
       cy="37.833031"
       rx="14.755399"
       ry="15.850775" /><g
       id="g17"
       transform="matrix(0.93439252,0,0,0.93536615,0.48840915,-4.1830069)"
       style="stroke-width:1.06966"><g
         id="g12"
         transform="matrix(0.92395767,0,0,0.9223878,16.308441,24.062319)"
         style="stroke-width:1.15868"><circle
           style="fill:#1a1a1a;stroke:none;stroke-width:2.31734;stroke-linecap:round;stroke-linejoin:round;stroke-miterlimit:10"
           id="circle10"
           cx="28.267347"
           cy="25.942007"
           r="3.4442995" /><circle
           style="fill:#ffffff;fill-opacity:1;stroke:none;stroke-width:2.31734;stroke-linecap:round;stroke-linejoin:round;stroke-miterlimit:10"
           id="circle11"
           cx="27.408236"
           cy="25.212543"
           r="1.3805408" /><circle
           style="fill:#ffffff;fill-opacity:1;stroke:none;stroke-width:2.31734;stroke-linecap:round;stroke-linejoin:round;stroke-miterlimit:10"
           id="circle12"
           cx="29.537535"
           cy="27.307114"
           r="0.4901334" /></g><g
         id="g15"
         transform="matrix(0.92395767,0,0,0.9223878,2.9044415,24.062319)"
         style="stroke-width:1.15868"><circle
           style="fill:#1a1a1a;stroke:none;stroke-width:2.31734;stroke-linecap:round;stroke-linejoin:round;stroke-miterlimit:10"
           id="circle13"
           cx="28.267347"
           cy="25.942007"
           r="3.4442995" /><g
           id="g16"
           style="stroke-width:1.15868"><circle
             style="fill:#ffffff;fill-opacity:1;stroke:none;stroke-width:2.31734;stroke-linecap:round;stroke-linejoin:round;stroke-miterlimit:10"
             id="circle14"
             cx="27.408236"
             cy="25.212543"
             r="1.3805408" /></g><circle
           style="fill:#ffffff;fill-opacity:1;stroke:none;stroke-width:2.31734;stroke-linecap:round;stroke-linejoin:round;stroke-miterlimit:10"
           id="circle15"
           cx="29.537535"
           cy="27.307114"
           r="0.4901334" /></g></g><path
       style="fill:none;fill-opacity:0.259399;stroke:#1a1a1a;stroke-width:2;stroke-linecap:round;stroke-linejoin:round;stroke-miterlimit:10"
       id="path17"
       sodipodi:type="arc"
       sodipodi:cx="33.868904"
       sodipodi:cy="43.82827"
       sodipodi:rx="1.5681733"
       sodipodi:ry="1.5696071"
       sodipodi:start="0.52359878"
       sodipodi:end="2.6179939"
       sodipodi:arc-type="arc"
       d="m 35.226982,44.613074 a 1.5681733,1.5696071 0 0 1 -1.358078,0.784803 1.5681733,1.5696071 0 0 1 -1.358078,-0.784804"
       sodipodi:open="true" /><path
       style="fill:#ffffff;fill-opacity:1;stroke:#1a1a1a;stroke-width:2;stroke-linecap:round;stroke-linejoin:round;stroke-miterlimit:10"
       d="m 42.960226,58.982267 c -0.678483,-1.26868 -1.863637,-2.117139 -3.040219,-2.25551 0.640996,2.333911 -1.304867,5.418346 -7.40822,7.711742 1.09463,-2.44708 1.278855,-4.730782 -0.686284,-6.39736 -1.254459,0.491463 -1.725332,1.856279 -1.806442,2.857976 -3.671158,-1.075851 -4.477465,-4.444393 -4.477465,-7.886913 0,0 -1.994584,0.964042 -2.402491,3.122911 -0.75754,-1.575391 -2.286889,-10.306186 5.745606,-10.338845 1.044381,1.872472 2.541671,2.821909 5.152624,2.821909 2.183707,0 3.987637,-1.295415 4.794659,-3.180616 6.870098,0.159203 6.57567,10.335577 4.128232,13.544706 z"
       id="path3"
       sodipodi:nodetypes="ccccccccscc" /><path
       id="path5"
       style="fill:#000000;fill-opacity:0.10318;stroke:none;stroke-width:4;stroke-linecap:round;stroke-linejoin:round;stroke-miterlimit:10;stroke-dasharray:none"
       d="m 41.268799,26.349296 -13.658081,1.687752 -6.598047,2.014864 c -1.024836,1.953839 -1.652049,4.119055 -1.840198,6.352584 4.308539,-4.587201 18.216149,-6.464561 28.053384,-5.304773 z"
       sodipodi:nodetypes="cccccc" /><path
       id="path2"
       style="fill:currentColor;stroke:#1a1a1a;stroke-width:2.15564;stroke-linecap:round;stroke-linejoin:round;stroke-miterlimit:10"
       d="M 36.172549,8.0744217 C 29.112399,13.817675 25.395615,21.266287 23.235791,30.127877 15.274564,32.585772 8.4480371,36.785936 9.1239909,37.961507 10.05124,39.574111 17.873593,34.693778 33.866667,34.682121 c 15.993072,0.01166 23.815426,4.89199 24.742675,3.279386 C 59.298389,36.763165 52.191291,32.421678 44.033488,29.9868 40.707328,24.548977 39.095622,18.097272 38.679565,9.2815528 38.601114,7.6192894 37.46318,7.0245263 36.172549,8.0744217 Z"
       inkscape:path-effect="#path-effect10"
       inkscape:original-d="M 38.584725,6.2699015 C 29.935192,12.221862 25.629378,20.307174 23.235791,30.127877 15.274564,32.585772 8.4480371,36.785936 9.1239909,37.961507 10.05124,39.574111 17.873593,34.693778 33.866667,34.682121 c 15.993072,0.01166 23.815426,4.89199 24.742675,3.279386 C 59.298389,36.763165 52.191291,32.421678 44.033488,29.9868 40.33969,23.947938 38.760286,16.65868 38.584725,6.2699015 Z"
       transform="matrix(0.92725513,0,0,0.92833761,2.4648997,-3.3073266)" /></g></svg>
