<?xml version="1.0" encoding="UTF-8"?>
<!-- Created with Inkscape (http://www.inkscape.org/) -->
<svg id="svg1" width="256" height="256" version="1.1" viewBox="0 0 67.733 67.733" xml:space="preserve" xmlns="http://www.w3.org/2000/svg"><g id="layer1"><path id="path9" d="m42.245 27.941c-2.8431-0.10169-5.6354 0.2143-8.3769 0.94843-6.9166-1.781-16.085-0.87094-22.651 3.2463 2.6413 2.1173 15.364 2.8184 22.724 2.8184 7.5914 0 20.888-0.74581 22.943-3.0223-5.0205-2.4912-9.8998-3.8214-14.638-3.9909z" fill="currentColor" stroke="#1a1a1a" stroke-linecap="round" stroke-linejoin="round" stroke-miterlimit="10" stroke-width="2"/><path id="path10" d="m42.245 27.941c-2.8431-0.10169-5.6354 0.2143-8.3769 0.94843-6.9166-1.781-16.085-0.87094-22.651 3.2463 2.6413 2.1173 15.364 2.8184 22.724 2.8184 7.5914 0 20.888-0.74581 22.943-3.0223-5.0205-2.4912-9.8998-3.8214-14.638-3.9909z" fill="#1a1a1a" fill-opacity=".2594"/><ellipse id="path1" cx="33.868" cy="37.833" rx="14.755" ry="15.851" fill="#f2f2f2" stroke="#1a1a1a" stroke-linecap="round" stroke-linejoin="round" stroke-miterlimit="10" stroke-width="2"/><g id="g17" transform="matrix(.93439 0 0 .93537 .48841 -4.183)" stroke-width="1.1587"><g id="g12" transform="matrix(.92396 0 0 .92239 16.308 24.062)"><circle id="circle10" cx="28.267" cy="25.942" r="3.4443" fill="#1a1a1a"/><circle id="circle11" cx="27.408" cy="25.213" r="1.3805" fill="#fff"/><circle id="circle12" cx="29.538" cy="27.307" r=".49013" fill="#fff"/></g><g id="g15" transform="matrix(.92396 0 0 .92239 2.9044 24.062)"><circle id="circle13" cx="28.267" cy="25.942" r="3.4443" fill="#1a1a1a"/><g id="g16" stroke-width="1.1587"><circle id="circle14" cx="27.408" cy="25.213" r="1.3805" fill="#fff"/></g><circle id="circle15" cx="29.538" cy="27.307" r=".49013" fill="#fff"/></g></g><path id="path17" d="m35.227 44.613a1.5682 1.5696 0 0 1-1.3581 0.7848 1.5682 1.5696 0 0 1-1.3581-0.7848" fill="none" stroke="#1a1a1a" stroke-linecap="round" stroke-linejoin="round" stroke-miterlimit="10" stroke-width="2"/><path id="path3" d="m42.96 58.982c-0.67848-1.2687-1.8636-2.1171-3.0402-2.2555 0.641 2.3339-1.3049 5.4183-7.4082 7.7117 1.0946-2.4471 1.2789-4.7308-0.68628-6.3974-1.2545 0.49146-1.7253 1.8563-1.8064 2.858-3.6712-1.0759-4.4775-4.4444-4.4775-7.8869 0 0-1.9946 0.96404-2.4025 3.1229-0.75754-1.5754-2.2869-10.306 5.7456-10.339 1.0444 1.8725 2.5417 2.8219 5.1526 2.8219 2.1837 0 3.9876-1.2954 4.7947-3.1806 6.8701 0.1592 6.5757 10.336 4.1282 13.545z" fill="#fff" stroke="#1a1a1a" stroke-linecap="round" stroke-linejoin="round" stroke-miterlimit="10" stroke-width="2"/><path id="path5" d="m41.269 26.349-13.658 1.6878-6.598 2.0149c-1.0248 1.9538-1.652 4.1191-1.8402 6.3526 4.3085-4.5872 18.216-6.4646 28.053-5.3048z" fill-opacity=".10318"/><path id="path2" transform="matrix(.92726 0 0 .92834 2.4649 -3.3073)" d="m36.173 8.0744c-7.0602 5.7433-10.777 13.192-12.937 22.053-7.9612 2.4579-14.788 6.6581-14.112 7.8336 0.92725 1.6126 8.7496-3.2677 24.743-3.2794 15.993 0.01166 23.815 4.892 24.743 3.2794 0.68905-1.1983-6.4181-5.5398-14.576-7.9747-3.3262-5.4378-4.9379-11.89-5.3539-20.705-0.078451-1.6623-1.2164-2.257-2.507-1.2071z" fill="currentColor" stroke="#1a1a1a" stroke-linecap="round" stroke-linejoin="round" stroke-miterlimit="10" stroke-width="2.1556"/></g></svg>
